<?xml version="1.0" encoding="iso-8859-1"?>
<!-- Generator: Adobe Illustrator 19.0.0, SVG Export Plug-In . SVG Version: 6.00 Build 0)  -->
<svg version="1.1" id="Layer_1" xmlns="http://www.w3.org/2000/svg" xmlns:xlink="http://www.w3.org/1999/xlink" x="0px" y="0px"
	 viewBox="0 0 512 512" style="enable-background:new 0 0 512 512;" xml:space="preserve">
<g>
	<g>
		<path d="M256,0C114.62,0,0,114.62,0,256s114.62,256,256,256c141.389,0,256-114.62,256-256S397.389,0,256,0z M268.8,485.751V460.8
			c0-7.074-5.726-12.8-12.8-12.8c-7.074,0-12.8,5.726-12.8,12.8v24.951C126.387,479.292,32.717,385.613,26.249,268.8H51.2
			c7.074,0,12.8-5.726,12.8-12.8c0-7.074-5.726-12.8-12.8-12.8H26.249C32.717,126.387,126.387,32.717,243.2,26.249V51.2
			c0,7.074,5.726,12.8,12.8,12.8c7.074,0,12.8-5.726,12.8-12.8V26.249C385.613,32.717,479.283,126.387,485.751,243.2H460.8
			c-7.074,0-12.8,5.726-12.8,12.8c0,7.074,5.726,12.8,12.8,12.8h24.951C479.283,385.613,385.613,479.292,268.8,485.751z"/>
	</g>
</g>
<g>
	<g>
		<path d="M374.494,108.092c-4.693-3.797-10.394-5.692-16.094-5.692c-5.658,0-11.315,1.869-15.991,5.606l-128,102.4
			c-2.893,2.313-5.248,5.231-6.904,8.542l-76.8,153.6c-5.376,10.752-2.543,23.799,6.801,31.36
			c4.693,3.797,10.394,5.692,16.094,5.692c5.658,0,11.315-1.869,15.991-5.606l128-102.4c2.893-2.313,5.248-5.231,6.903-8.542
			l76.8-153.6C386.671,128.7,383.838,115.652,374.494,108.092z M281.6,281.6l-51.2-51.2l128-102.4L281.6,281.6z"/>
	</g>
</g>
<g>
</g>
<g>
</g>
<g>
</g>
<g>
</g>
<g>
</g>
<g>
</g>
<g>
</g>
<g>
</g>
<g>
</g>
<g>
</g>
<g>
</g>
<g>
</g>
<g>
</g>
<g>
</g>
<g>
</g>
</svg>
