<?xml version="1.0" encoding="iso-8859-1"?>
<!-- Generator: Adobe Illustrator 19.0.0, SVG Export Plug-In . SVG Version: 6.00 Build 0)  -->
<svg version="1.1" id="Layer_1" xmlns="http://www.w3.org/2000/svg" xmlns:xlink="http://www.w3.org/1999/xlink" x="0px" y="0px"
	 viewBox="0 0 512 512" style="enable-background:new 0 0 512 512;" xml:space="preserve">
<g>
	<g>
		<path d="M256,0C114.611,0,0,114.611,0,256s114.611,256,256,256s256-114.611,256-256S397.389,0,256,0z M256,486.4
			C128.759,486.4,25.6,383.241,25.6,256S128.759,25.6,256,25.6S486.4,128.759,486.4,256S383.241,486.4,256,486.4z"/>
	</g>
</g>
<g>
	<g>
		<path d="M256,115.2c-21.205,0-38.4,17.195-38.4,38.4c0,21.205,17.195,38.4,38.4,38.4c21.205,0,38.4-17.195,38.4-38.4
			C294.4,132.395,277.205,115.2,256,115.2z M256,166.4c-7.066,0-12.8-5.734-12.8-12.8c0-7.066,5.734-12.8,12.8-12.8
			c7.066,0,12.8,5.734,12.8,12.8C268.8,160.666,263.066,166.4,256,166.4z"/>
	</g>
</g>
<g>
	<g>
		<path d="M268.8,371.2v-128c7.066,0,12.8-5.734,12.8-12.8c0-7.066-5.734-12.8-12.8-12.8h-25.6c-7.066,0-12.8,5.734-12.8,12.8
			c0,7.066,5.734,12.8,12.8,12.8v128c-7.066,0-12.8,5.734-12.8,12.8c0,7.066,5.734,12.8,12.8,12.8h25.6
			c7.066,0,12.8-5.734,12.8-12.8C281.6,376.934,275.866,371.2,268.8,371.2z"/>
	</g>
</g>
<g>
</g>
<g>
</g>
<g>
</g>
<g>
</g>
<g>
</g>
<g>
</g>
<g>
</g>
<g>
</g>
<g>
</g>
<g>
</g>
<g>
</g>
<g>
</g>
<g>
</g>
<g>
</g>
<g>
</g>
</svg>
