<?xml version="1.0" encoding="iso-8859-1"?>
<!-- Generator: Adobe Illustrator 19.0.0, SVG Export Plug-In . SVG Version: 6.00 Build 0)  -->
<svg version="1.1" id="Layer_1" xmlns="http://www.w3.org/2000/svg" xmlns:xlink="http://www.w3.org/1999/xlink" x="0px" y="0px"
	 viewBox="0 0 512 512" style="enable-background:new 0 0 512 512;" xml:space="preserve">
<g>
	<g>
		<path d="M486.4,128h-91.793l-69.299-69.299c-4.804-4.804-11.315-7.501-18.108-7.501H204.8c-6.792,0-13.303,2.697-18.099,7.501
			L117.393,128H25.6C11.46,128,0,139.46,0,153.6v281.6c0,14.14,11.46,25.6,25.6,25.6h460.8c14.14,0,25.6-11.46,25.6-25.6V153.6
			C512,139.46,500.54,128,486.4,128z M486.4,435.2H25.6V153.6H128l76.8-76.8h102.4l76.8,76.8h102.4V435.2z"/>
	</g>
</g>
<g>
	<g>
		<path d="M256,153.6c-70.69,0-128,57.31-128,128s57.31,128,128,128s128-57.31,128-128S326.69,153.6,256,153.6z M256,384
			c-56.465,0-102.4-45.935-102.4-102.4S199.535,179.2,256,179.2s102.4,45.935,102.4,102.4S312.465,384,256,384z"/>
	</g>
</g>
<g>
</g>
<g>
</g>
<g>
</g>
<g>
</g>
<g>
</g>
<g>
</g>
<g>
</g>
<g>
</g>
<g>
</g>
<g>
</g>
<g>
</g>
<g>
</g>
<g>
</g>
<g>
</g>
<g>
</g>
</svg>
