<?xml version="1.0" encoding="iso-8859-1"?>
<!-- Generator: Adobe Illustrator 19.0.0, SVG Export Plug-In . SVG Version: 6.00 Build 0)  -->
<svg version="1.1" id="Layer_1" xmlns="http://www.w3.org/2000/svg" xmlns:xlink="http://www.w3.org/1999/xlink" x="0px" y="0px"
	 viewBox="0 0 512.001 512.001" style="enable-background:new 0 0 512.001 512.001;" xml:space="preserve">
<g>
	<g>
		<path d="M511.324,194.019c-1.763-5.195-6.643-8.696-12.128-8.696H322.848L268.227,8.55c-3.305-10.749-21.157-10.749-24.453,0
			l-54.62,176.773H12.806c-5.494,0-10.365,3.492-12.128,8.696s-0.008,10.953,4.352,14.275l143.216,109.369L93.481,494.939
			c-1.652,5.323,0.332,11.098,4.897,14.275c4.574,3.151,10.663,3.049,15.101-0.324l142.526-108.9l142.518,108.9
			c2.3,1.746,5.042,2.623,7.776,2.623c2.564,0,5.127-0.775,7.333-2.3c4.557-3.177,6.55-8.952,4.897-14.275l-54.765-177.276
			l143.207-109.369C511.332,204.972,513.087,199.223,511.324,194.019z M341.125,302.732c-4.259,3.254-6.03,8.824-4.446,13.951
			l45.575,147.551l-118.474-90.52c-2.3-1.746-5.042-2.623-7.776-2.623c-2.742,0-5.477,0.877-7.785,2.632l-118.474,90.52
			l45.575-147.551c1.593-5.127-0.187-10.698-4.446-13.951l-120.22-91.823h147.943c5.613,0,10.57-3.654,12.222-9.028l45.183-146.222
			l45.192,146.214c1.644,5.374,6.609,9.028,12.222,9.028h147.926L341.125,302.732z"/>
	</g>
</g>
<g>
</g>
<g>
</g>
<g>
</g>
<g>
</g>
<g>
</g>
<g>
</g>
<g>
</g>
<g>
</g>
<g>
</g>
<g>
</g>
<g>
</g>
<g>
</g>
<g>
</g>
<g>
</g>
<g>
</g>
</svg>
