<?xml version="1.0" encoding="iso-8859-1"?>
<!-- Generator: Adobe Illustrator 19.0.0, SVG Export Plug-In . SVG Version: 6.00 Build 0)  -->
<svg version="1.1" id="Layer_1" xmlns="http://www.w3.org/2000/svg" xmlns:xlink="http://www.w3.org/1999/xlink" x="0px" y="0px"
	 viewBox="0 0 352.586 352.586" style="enable-background:new 0 0 352.586 352.586;" xml:space="preserve">
<g>
	<g>
		<path d="M351.855,135.942l-16.083-84.029c-3.096-16.341-18.921-31.823-34.919-34.919L216.824,0.911
			c-15.826-3.097-38.015,3.698-49.626,15.223L9.03,174.302C3.096,179.978,0,187.805,0,195.976s3.096,15.826,9.03,21.674
			l125.743,125.743c5.935,5.935,13.847,9.03,21.674,9.03s15.825-3.097,22.018-8.773l158.167-158.167
			C347.898,174.302,354.951,151.768,351.855,135.942z M332.675,181.354L174.508,339.521c-9.891,9.891-25.63,9.891-35.521,0
			l-61.065-61.065l35.693-35.693c1.118-1.118,1.118-2.838,0-3.956c-1.118-1.118-2.838-1.118-3.956,0L73.965,274.5l-60.721-60.721
			c-4.816-4.817-7.311-11.009-7.311-17.718c0-6.794,2.494-12.987,7.311-17.718L171.412,20.177
			c8.429-8.429,24.254-14.363,37.499-14.363c2.236,0,4.816,0.258,7.052,0.602l84.029,16.083
			c13.847,2.838,27.867,16.599,30.447,30.447l16.083,84.029C349.017,150.908,342.824,171.206,332.675,181.354z"/>
	</g>
</g>
<g>
	<g>
		<path d="M290.618,40.991c-11.525,0-21.158,9.547-21.158,21.158c0,4.73,1.634,9.117,4.3,12.643L131.935,216.617
			c-1.118,1.118-1.118,2.838,0,3.956c0.602,0.602,1.118,0.86,1.978,0.86s1.376-0.258,1.978-0.86L277.717,78.748
			c3.612,2.838,8.085,4.558,12.987,4.558c11.525,0,21.158-9.547,21.158-21.158S302.229,40.991,290.618,40.991z M290.618,77.372
			c-8.429,0-15.482-7.052-15.482-15.482c0-8.429,7.052-15.482,15.482-15.482c8.429,0,15.482,7.052,15.482,15.482
			C306.099,70.32,299.133,77.372,290.618,77.372z"/>
	</g>
</g>
<g>
</g>
<g>
</g>
<g>
</g>
<g>
</g>
<g>
</g>
<g>
</g>
<g>
</g>
<g>
</g>
<g>
</g>
<g>
</g>
<g>
</g>
<g>
</g>
<g>
</g>
<g>
</g>
<g>
</g>
</svg>
