<?xml version="1.0" encoding="iso-8859-1"?>
<!-- Generator: Adobe Illustrator 19.0.0, SVG Export Plug-In . SVG Version: 6.00 Build 0)  -->
<svg version="1.1" id="Layer_1" xmlns="http://www.w3.org/2000/svg" xmlns:xlink="http://www.w3.org/1999/xlink" x="0px" y="0px"
	 viewBox="0 0 352.37 352.37" style="enable-background:new 0 0 352.37 352.37;" xml:space="preserve">
<g>
	<g>
		<path d="M104.584,200.224c-15.482,0-27.867,12.385-27.867,27.867c0,15.482,12.385,27.866,27.867,27.866
			c15.482,0,27.867-12.643,27.867-27.866C132.537,212.867,120.066,200.224,104.584,200.224z M104.584,250.366
			c-12.127,0-22.276-9.891-22.276-22.276c0-12.127,9.891-22.276,22.276-22.276s22.276,9.891,22.276,22.276
			C126.86,240.218,116.711,250.366,104.584,250.366z"/>
	</g>
</g>
<g>
	<g>
		<path d="M160.145,224.393l-0.259-3.355c-0.258-3.956-3.956-7.052-7.913-7.052h-3.956c-1.72-5.074-4.214-9.891-7.569-14.105
			l2.236-3.097c2.236-3.355,1.72-8.171-1.376-10.751l-2.236-1.978c-3.096-2.494-7.913-2.236-10.751,0.602l-2.838,2.838
			c-4.816-2.236-9.891-3.956-15.223-4.472l-0.602-3.956c-0.602-3.956-4.472-6.794-8.429-6.45l-3.096,0.258
			c-3.956,0.258-7.052,3.956-7.052,7.913v3.956c-5.075,1.72-9.891,3.956-14.105,7.311l-3.096-2.236
			c-3.355-2.236-8.171-1.72-10.751,1.376l-1.978,2.236c-2.494,3.097-2.236,7.913,0.602,10.751l2.838,2.838
			c-2.494,4.817-4.214,9.891-4.816,15.223l-3.698,0.602c-3.956,0.602-6.794,4.472-6.45,8.429l0.258,3.097
			c0.258,3.956,3.956,7.052,7.913,7.052h3.698c1.376,5.074,3.956,9.891,7.311,14.105l-1.978,3.097
			c-2.236,3.354-1.72,8.171,1.376,10.751l2.236,1.978c3.096,2.494,7.913,2.236,10.751-0.602l2.494-2.494
			c5.075,2.494,10.149,4.214,15.482,4.816l0.602,3.698c0.86,3.698,4.214,6.45,7.913,6.45c0.258,0,0.258,0,0.86-0.258l3.096-0.258
			c3.956-0.258,7.052-3.956,7.052-7.913v-3.698c5.075-1.72,9.891-4.214,14.105-7.569l3.096,1.978
			c3.354,2.236,8.171,1.72,10.751-1.376l1.978-2.236c2.494-3.097,2.236-7.913-0.602-10.751l-2.494-2.494
			c2.236-4.817,3.956-9.891,4.472-15.223l3.698-0.602C157.651,232.22,160.489,228.349,160.145,224.393z M152.233,227.575
			l-5.935,1.118c-1.118,0.258-2.236,1.118-2.236,2.494c-0.258,5.935-1.978,11.869-5.075,16.943
			c-0.602,1.118-0.258,2.494,0.602,3.354l4.214,3.956c0.86,0.86,1.118,2.236,0.258,3.097l-1.978,2.236
			c-0.86,0.86-2.236,0.86-3.096,0.258l-4.816-3.354c-0.86-0.602-2.494-0.602-3.354,0.258c-4.472,3.956-9.891,6.794-15.825,8.429
			c-1.118,0.258-1.978,1.376-1.978,2.838v5.677c0,1.118-0.86,2.236-1.978,2.236l-3.096,0.258c-1.118,0-2.236-0.86-2.494-1.978
			l-1.118-5.677c-0.258-1.118-1.118-2.236-2.494-2.236c-6.192-0.602-11.869-2.236-17.201-5.333c-0.602-0.258-0.86-0.258-1.376-0.258
			c-0.516,0-1.376,0.258-2.236,1.376l-3.956,4.214c-0.86,0.86-2.236,1.118-3.096,0.258l-2.236-1.978
			c-1.118-0.86-1.118-2.236-0.602-3.097l3.355-4.817c0.602-0.86,0.602-2.494-0.258-3.354c-3.698-4.472-6.794-10.149-8.171-15.825
			c-0.258-1.118-1.376-1.978-2.838-1.978h-5.935c-1.118,0-2.236-0.86-2.236-1.978l-0.258-3.097c0-1.118,0.86-2.236,1.978-2.494
			l5.935-1.118c1.118-0.258,2.236-1.118,2.236-2.494c0.602-5.935,2.236-11.869,5.333-16.943c0.602-1.118,0.258-2.494-0.602-3.354
			l-4.214-4.214c-0.86-0.86-1.118-2.236-0.258-3.097l1.978-2.236c0.86-0.86,2.236-0.86,3.096-0.258l5.075,3.354
			c0.86,0.602,2.494,0.602,3.354-0.258c4.472-3.956,9.891-6.794,15.482-8.171c1.118-0.258,1.978-1.376,1.978-2.838v-6.193
			c0-1.118,0.86-2.236,1.978-2.236l3.096-0.258c1.118,0,2.236,0.86,2.494,1.978l1.118,5.935c0.258,1.118,1.118,2.236,2.494,2.236
			c5.935,0.258,11.869,1.978,16.943,5.074c1.118,0.602,2.494,0.258,3.354-0.602l4.214-4.214c0.86-0.86,2.236-0.86,3.096-0.258
			l2.236,1.978c0.86,0.86,0.86,2.236,0.258,3.097l-3.354,5.074c-0.602,0.86-0.602,2.494,0.258,3.355
			c3.956,4.472,7.052,9.891,8.429,15.482c0.258,1.118,1.72,1.978,2.838,1.978h5.935c1.118,0,2.236,0.86,2.236,1.978l0.258,3.097
			C154.211,226.112,153.35,227.23,152.233,227.575z"/>
	</g>
</g>
<g>
	<g>
		<path d="M275.223,181.734c-0.344-1.292-1.806-2.667-3.183-2.409c-1.376,0.258-2.838,1.72-2.494,3.097
			c1.118,11.267-2.236,22.018-9.289,30.704c-7.052,8.429-16.943,13.847-28.21,14.965c-22.792,2.236-43.433-14.621-45.669-37.757
			c-2.236-22.792,14.621-43.433,37.757-45.67c13.245-1.118,26.748,4.214,35.521,14.363c1.978,2.236,3.698,4.817,5.075,7.311
			c0.86,1.376,2.494,1.978,3.956,1.118c1.376-0.86,1.978-2.494,1.118-3.956c-1.72-2.838-3.698-5.677-5.935-8.171
			c-9.891-11.525-25.114-17.46-40.337-16.083c-26.232,2.494-45.412,25.63-42.832,51.863c2.494,24.77,23.136,43.089,47.39,43.089
			c1.376,0,3.096,0,4.214-0.602c12.643-1.376,23.996-7.311,32.167-17.201C272.643,206.848,276.341,194.377,275.223,181.734z"/>
	</g>
</g>
<g>
	<g>
		<path d="M307.991,181.561l-0.172-4.472c-0.602-5.074-5.075-9.289-10.407-9.289h-6.794c-2.494-7.913-6.45-15.482-11.869-22.018
			l3.956-5.677c2.838-4.214,1.978-10.407-1.978-13.847l-3.355-2.838c-4.214-3.354-10.407-2.838-14.105,0.86l-4.816,4.816
			c-7.311-3.956-15.223-6.45-23.652-7.311l-1.118-6.794c-1.118-5.074-5.935-9.031-11.267-8.429l-4.472,0.258
			c-5.075,0.602-9.289,5.074-9.289,10.407v6.794c-8.171,2.236-15.482,6.192-22.018,11.525l-5.677-3.956
			c-4.214-2.838-10.407-1.978-13.847,1.978l-2.838,3.354c-3.354,4.214-2.838,10.407,0.86,14.105l4.816,4.816
			c-3.956,7.569-6.45,15.482-7.311,23.996l-6.45,1.118c-5.075,1.118-9.03,5.935-8.429,11.267l0.258,4.472
			c0.602,5.074,5.333,9.289,10.407,9.289h6.45c2.494,8.171,6.45,15.825,11.869,22.276l-3.698,5.333
			c-2.838,4.214-1.978,10.407,1.978,13.847l3.355,2.838c4.214,3.354,10.407,2.838,14.105-0.86l4.472-4.472
			c7.569,3.956,15.825,6.45,24.254,7.311l1.118,6.193c0.86,4.817,5.333,8.429,10.149,8.429c0.258,0,0.602,0,0.602,0.602l4.472-0.602
			c5.075-0.602,9.289-5.074,9.289-10.407v-6.192c8.171-2.494,15.482-6.45,22.276-11.869l5.333,3.698
			c4.214,2.838,10.407,1.978,13.847-1.978l2.838-3.354c3.354-4.214,2.838-10.407-0.86-14.105l-4.472-4.472
			c3.956-7.569,6.45-15.826,7.311-24.254l6.45-1.118C304.637,191.709,308.593,186.893,307.991,181.561z M298.789,186.635
			l-8.429,1.376c-1.118,0.258-2.236,1.118-2.236,2.494c-0.602,9.289-3.354,18.062-7.913,25.974
			c-0.602,1.118-0.258,2.494,0.602,3.354l6.193,5.935c1.72,1.72,1.72,4.817,0.258,6.45l-2.838,3.355
			c-1.72,1.72-4.472,2.236-6.45,0.86l-7.052-4.816c-0.86-0.602-2.494-0.602-3.354,0.258c-7.052,5.935-14.965,10.407-23.996,12.643
			c-1.118,0.258-1.978,1.376-1.978,2.838v8.429c0,2.236-1.978,4.472-4.214,4.816l-4.472,0.602c-2.236,0-4.816-1.72-5.075-3.956
			l-1.376-8.429c-0.258-1.118-1.118-2.236-2.494-2.236c-9.031-0.602-18.062-3.355-25.974-7.913c-0.602-0.258-0.86-0.258-1.376-0.258
			c-0.86,0-1.376,0.258-1.376,0.602l-5.935,6.193c-1.72,1.72-4.816,1.72-6.45,0.258l-3.354-2.838
			c-1.72-1.376-2.236-4.214-0.86-6.193l4.816-7.052c0.602-1.118,0.602-2.494-0.258-3.354c-5.935-7.052-10.407-15.223-12.643-23.996
			c-0.258-1.118-1.376-1.978-2.838-1.978h-8.773c-2.494,0-4.472-1.978-4.816-4.214l-0.258-4.472
			c-0.258-2.236,1.72-4.816,3.956-5.074l8.773-1.72c1.118-0.258,2.236-1.118,2.236-2.494c0.602-9.289,3.354-17.718,7.913-25.63
			c0.602-1.118,0.258-2.494-0.602-3.354l-6.45-6.192c-1.72-1.72-1.72-4.817-0.258-6.45l2.838-3.354
			c1.376-1.72,4.214-2.236,6.193-0.86l7.311,5.074c1.118,0.602,2.494,0.602,3.354-0.258c7.052-5.935,14.965-10.149,23.652-12.385
			c1.118-0.258,1.978-1.376,1.978-2.838v-9.03c0-2.236,1.978-4.472,4.214-4.816l4.472-0.258c2.236,0,4.816,1.72,5.075,3.956
			l1.72,9.03c0.258,1.118,1.118,2.236,2.494,2.236c9.03,0.86,17.46,3.354,25.372,7.913c1.118,0.602,2.494,0.258,3.354-0.602
			l6.193-6.45c1.72-1.72,4.816-1.72,6.45-0.258l3.354,2.838c1.72,1.376,2.236,4.214,0.86,6.193l-5.075,7.311
			c-0.602,0.86-0.602,2.494,0.258,3.355c5.935,7.052,10.407,14.965,12.643,23.652c0.258,1.118,1.376,1.978,2.838,1.978h8.773
			c2.236,0,4.472,1.978,4.816,4.214l0.258,4.472C303.089,183.883,301.111,186.377,298.789,186.635z"/>
	</g>
</g>
<g>
	<g>
		<path d="M325.02,42.573H27.609C12.385,42.573,0,55.216,0,70.44v236.519c0,1.72,1.118,2.838,2.838,2.838h346.695
			c1.72,0,2.838-1.376,2.838-2.838V70.44C352.371,55.044,340.244,42.573,325.02,42.573z M346.781,304.207L346.781,304.207H5.677
			V84.028h327.257c1.72,0,2.839-1.118,2.839-2.838c0-1.72-1.118-2.838-2.839-2.838H5.677V70.44
			c0-12.127,10.149-22.276,22.018-22.276h297.413c11.869,0,21.674,10.149,21.674,22.276V304.207z"/>
	</g>
</g>
<g>
	<g>
		<path d="M26.834,63.215c-1.204-1.118-2.838-1.118-3.956,0c-0.602,0.602-0.86,1.118-0.86,1.978s0.258,1.376,0.86,1.978
			s1.118,0.86,1.978,0.86s1.376-0.258,1.978-0.86s0.86-1.376,0.86-1.978S27.436,63.817,26.834,63.215z"/>
	</g>
</g>
<g>
	<g>
		<path d="M40.595,63.215c-1.118-1.118-2.838-1.118-3.956,0c-0.602,0.602-0.86,1.118-0.86,1.978s0.258,1.376,0.86,1.978
			s1.118,0.86,1.978,0.86s1.376-0.258,1.978-0.86s0.86-1.376,0.86-1.978S41.197,63.817,40.595,63.215z"/>
	</g>
</g>
<g>
	<g>
		<path d="M54.443,63.215c-1.118-1.118-2.839-1.118-3.956,0c-0.602,0.602-0.86,1.118-0.86,1.978s0.258,1.376,0.86,1.978
			c0.602,0.602,1.118,0.86,1.978,0.86c0.602,0,1.376-0.258,1.978-0.86c0.602-0.602,0.86-1.376,0.86-1.978
			S55.044,63.817,54.443,63.215z"/>
	</g>
</g>
<g>
</g>
<g>
</g>
<g>
</g>
<g>
</g>
<g>
</g>
<g>
</g>
<g>
</g>
<g>
</g>
<g>
</g>
<g>
</g>
<g>
</g>
<g>
</g>
<g>
</g>
<g>
</g>
<g>
</g>
</svg>
