<?xml version="1.0" encoding="iso-8859-1"?>
<!-- Generator: Adobe Illustrator 19.0.0, SVG Export Plug-In . SVG Version: 6.00 Build 0)  -->
<svg version="1.1" id="Layer_1" xmlns="http://www.w3.org/2000/svg" xmlns:xlink="http://www.w3.org/1999/xlink" x="0px" y="0px"
	 viewBox="0 0 352.285 352.285" style="enable-background:new 0 0 352.285 352.285;" xml:space="preserve">
<g>
	<g>
		<path d="M316.507,253.076H184.571v-27.35h131.935c19.696,0,35.779-16.083,35.779-35.779v-27.609
			c0-19.696-16.083-35.779-35.779-35.779H184.571v-27.35h131.935v0c19.696,0,35.779-16.083,35.779-35.779V35.822
			c0.001-19.696-16.083-35.779-35.779-35.779H35.779C16.083,0.042,0,16.126,0,35.822V63.43c0,19.696,16.083,35.779,35.779,35.779
			h132.193v27.35H35.779C16.083,126.559,0,142.642,0,162.338v27.609c0,19.696,16.083,35.779,35.779,35.779h132.193v27.35H35.779
			C16.083,253.076,0,269.159,0,288.855v27.609c0,19.695,16.083,35.779,35.779,35.779h280.727c19.696,0,35.779-16.083,35.779-35.779
			v-27.609C352.285,269.159,336.202,253.076,316.507,253.076z M35.779,93.619C19.093,93.618,5.591,80.029,5.591,63.43V35.822
			c0-16.599,13.503-30.189,30.189-30.189h280.727c16.599,0,30.189,13.503,30.189,30.189V63.43c0,16.599-13.503,30.189-30.189,30.189
			H35.779z M178.637,99.209v27.35h-5.333v-27.35H178.637z M35.779,220.135c-16.599,0-30.189-13.503-30.189-30.189v-27.609
			c0-16.599,13.503-30.189,30.189-30.189H170.81h11.009h134.773c16.513,0.086,30.103,13.589,30.103,30.189v27.609
			c0,16.599-13.503,30.189-30.189,30.189H35.779z M178.637,225.811v27.35h-5.333v-27.35H178.637z M346.694,316.549
			c0,16.599-13.503,30.189-30.189,30.189H35.779c-16.599,0-30.189-13.503-30.189-30.189V288.94
			c0-16.599,13.503-30.189,30.189-30.189H170.81h11.009h134.773c16.513,0,30.103,13.589,30.103,30.189V316.549z"/>
	</g>
</g>
<g>
	<g>
		<path d="M137.525,32.984H43.95c-7.569,0-13.847,6.193-13.847,13.847v5.677c0,7.569,6.193,13.847,13.847,13.847h93.576
			c7.569,0,13.847-6.192,13.847-13.847v-5.677C151.286,39.176,145.094,32.984,137.525,32.984z M145.696,52.421L145.696,52.421
			c-0.001,4.472-3.699,8.171-8.171,8.171H43.95c-4.472,0-8.171-3.698-8.171-8.171v-5.677c0-4.472,3.698-8.171,8.171-8.171h93.576
			c4.472,0,8.171,3.698,8.171,8.171V52.421z"/>
	</g>
</g>
<g>
	<g>
		<path d="M302.659,32.725c-9.289,0-16.599,7.311-16.599,16.599c0,9.288,7.569,16.599,16.599,16.599
			c9.289,0,16.599-7.311,16.599-16.599C319.258,40.036,312.034,32.725,302.659,32.725z M302.659,60.592
			c-6.193,0-11.009-5.074-11.009-11.009c0-6.193,5.075-11.009,11.009-11.009c6.193,0,11.009,4.816,11.009,11.009
			C313.668,55.861,308.852,60.592,302.659,60.592z"/>
	</g>
</g>
<g>
	<g>
		<path d="M264.386,38.66c-5.935,0-11.009,5.074-11.009,11.009s4.816,11.009,11.009,11.009c5.935,0,11.009-5.074,11.009-11.009
			S270.578,38.66,264.386,38.66z M264.386,54.657c-2.838,0-5.333-2.236-5.333-5.333c0-2.838,2.236-5.333,5.333-5.333
			c2.838,0,5.333,2.494,5.333,5.333S267.138,54.657,264.386,54.657z"/>
	</g>
</g>
<g>
	<g>
		<path d="M236.691,38.66c-5.935,0-11.009,4.816-11.009,11.009c0,5.935,4.816,11.009,11.009,11.009
			c6.192,0,11.009-5.074,11.009-11.009S242.626,38.66,236.691,38.66z M236.691,54.657c-2.838,0-5.333-2.236-5.333-5.333
			c0-2.838,2.236-5.333,5.333-5.333s5.333,2.494,5.333,5.333S239.788,54.657,236.691,54.657z"/>
	</g>
</g>
<g>
	<g>
		<path d="M137.525,159.586H43.95c-7.569,0-13.847,6.193-13.847,13.847v5.677c0,7.569,6.193,13.847,13.847,13.847h93.576
			c7.569,0,13.847-6.193,13.847-13.847v-5.677C151.286,165.778,145.094,159.586,137.525,159.586z M145.696,179.023L145.696,179.023
			c-0.001,4.472-3.699,8.171-8.171,8.171H43.95c-4.472,0-8.171-3.698-8.171-8.171v-5.677c0-4.472,3.698-8.171,8.171-8.171h93.576
			c4.472,0,8.171,3.698,8.171,8.171V179.023z"/>
	</g>
</g>
<g>
	<g>
		<path d="M302.659,159.586c-9.288,0-16.599,7.311-16.599,16.599s7.569,16.599,16.599,16.599c9.289,0,16.599-7.311,16.599-16.599
			C319.258,166.896,311.947,159.586,302.659,159.586z M302.659,187.193c-6.192,0-11.009-4.817-11.009-11.009
			s5.161-11.009,11.009-11.009c6.193,0,11.009,4.817,11.009,11.009C313.667,182.377,308.851,187.193,302.659,187.193z"/>
	</g>
</g>
<g>
	<g>
		<path d="M264.386,165.177c-5.935,0-11.009,5.074-11.009,11.009c-0.001,5.935,4.73,11.009,11.009,11.009
			c5.935,0,11.009-5.074,11.009-11.009C275.395,170.251,270.578,165.177,264.386,165.177z M264.386,181.26
			c-2.839,0-5.333-2.236-5.333-5.333c-0.086-2.839,2.236-5.333,5.333-5.333c2.838,0,5.333,2.494,5.333,5.333
			C269.719,178.765,267.225,181.26,264.386,181.26z"/>
	</g>
</g>
<g>
	<g>
		<path d="M236.691,165.177c-5.934,0-11.009,4.817-11.009,11.009c0.086,5.935,4.816,11.009,11.009,11.009
			c6.192,0,11.009-5.074,11.009-11.009C247.7,170.251,242.625,165.177,236.691,165.177z M236.691,181.26
			c-2.838,0-5.333-2.236-5.333-5.333c0-2.839,2.237-5.333,5.333-5.333c3.096,0,5.333,2.494,5.333,5.333
			C242.024,178.765,239.788,181.26,236.691,181.26z"/>
	</g>
</g>
<g>
	<g>
		<path d="M137.525,286.102H43.95c-7.569,0-13.847,6.193-13.847,13.847v5.677c0,7.569,6.193,13.847,13.847,13.847h93.576
			c7.569,0,13.847-6.193,13.847-13.847v-5.677C151.286,292.295,145.094,286.102,137.525,286.102z M145.696,305.54L145.696,305.54
			c-0.001,4.472-3.699,8.171-8.171,8.171H43.95c-4.472,0-8.171-3.698-8.171-8.171v-5.677c0-4.472,3.698-8.171,8.171-8.171h93.576
			c4.472,0,8.171,3.698,8.171,8.171V305.54z"/>
	</g>
</g>
<g>
	<g>
		<path d="M302.659,286.188c-9.288,0-16.599,7.311-16.599,16.599c0,9.288,7.569,16.599,16.599,16.599
			c9.289,0,16.599-7.311,16.599-16.599C319.258,293.499,311.947,286.188,302.659,286.188z M302.659,313.796
			c-6.192,0-11.009-4.817-11.009-11.009s5.161-11.009,11.009-11.009c6.193,0,11.009,4.817,11.009,11.009
			C313.667,308.979,308.851,313.796,302.659,313.796z"/>
	</g>
</g>
<g>
	<g>
		<path d="M264.386,291.779c-5.935,0-11.009,5.074-11.009,11.009c-0.001,5.935,4.73,11.009,11.009,11.009
			c5.935,0,11.009-5.074,11.009-11.009C275.395,296.853,270.578,291.779,264.386,291.779z M264.386,307.776
			c-2.839,0-5.333-2.494-5.333-5.333s2.236-5.333,5.333-5.333c2.838,0,5.333,2.494,5.333,5.333
			C269.719,305.282,267.225,307.776,264.386,307.776z"/>
	</g>
</g>
<g>
	<g>
		<path d="M236.691,291.779c-5.934,0-11.009,5.074-11.009,11.009c0,5.935,4.816,11.009,11.009,11.009
			c6.192,0,11.009-5.074,11.009-11.009C247.7,296.853,242.625,291.779,236.691,291.779z M236.691,307.776
			c-2.838,0-5.333-2.494-5.333-5.333c0.001-2.839,2.237-5.333,5.333-5.333c3.096,0,5.333,2.494,5.333,5.333
			C242.024,305.282,239.788,307.776,236.691,307.776z"/>
	</g>
</g>
<g>
	<g>
		<path d="M139.504,47.605c-1.118-1.118-2.839-1.118-3.956,0c-0.602,0.602-0.86,1.118-0.86,1.978s0.258,1.376,0.86,1.978
			c0.602,0.602,1.118,0.86,1.978,0.86s1.72-0.258,1.978-0.86c0.602-0.602,0.86-1.118,0.86-1.978S140.106,48.207,139.504,47.605z"/>
	</g>
</g>
<g>
	<g>
		<path d="M139.504,174.207c-1.118-1.118-2.839-1.118-3.956,0c-0.602,0.602-0.86,1.118-0.86,1.978s0.258,1.376,0.86,1.978
			c0.602,0.602,1.118,0.86,1.978,0.86s1.72-0.258,1.978-0.86c0.602-0.602,0.86-1.118,0.86-1.978
			C140.364,175.583,140.106,174.809,139.504,174.207z"/>
	</g>
</g>
<g>
	<g>
		<path d="M139.504,300.809c-1.118-1.118-2.839-1.118-3.956,0c-0.602,0.602-0.86,1.118-0.86,1.978c0,0.86,0.258,1.376,0.86,1.978
			s1.118,0.86,1.978,0.86s1.72-0.258,1.978-0.86c0.602-0.602,0.86-1.118,0.86-1.978
			C140.364,301.928,140.106,301.411,139.504,300.809z"/>
	</g>
</g>
<g>
	<g>
		<path d="M46.186,300.809c-1.118-1.118-2.839-1.118-3.956,0c-0.602,0.602-0.86,1.118-0.86,1.978c0,0.86,0.258,1.376,0.86,1.978
			s1.118,0.86,1.978,0.86c0.602,0,1.376-0.258,1.978-0.86s0.86-1.118,0.86-1.978C47.046,301.928,46.788,301.411,46.186,300.809z"/>
	</g>
</g>
<g>
	<g>
		<path d="M46.186,174.207c-0.86-1.118-2.839-1.118-3.956,0c-0.602,0.602-0.86,1.118-0.86,1.978s0.258,1.376,0.86,1.978
			c0.602,0.602,1.118,0.86,1.978,0.86c0.602,0,1.376-0.258,1.978-0.86c0.602-0.602,0.86-1.118,0.86-1.978
			S46.788,174.809,46.186,174.207z"/>
	</g>
</g>
<g>
	<g>
		<path d="M46.186,47.605c-0.86-1.118-2.839-1.118-3.956,0c-0.602,0.602-0.86,1.118-0.86,1.978s0.258,1.376,0.86,1.978
			c0.602,0.602,1.118,0.86,1.978,0.86c0.602,0,1.376-0.258,1.978-0.86c0.602-0.602,0.86-1.118,0.86-1.978
			S46.788,48.207,46.186,47.605z"/>
	</g>
</g>
<g>
</g>
<g>
</g>
<g>
</g>
<g>
</g>
<g>
</g>
<g>
</g>
<g>
</g>
<g>
</g>
<g>
</g>
<g>
</g>
<g>
</g>
<g>
</g>
<g>
</g>
<g>
</g>
<g>
</g>
</svg>
