<?xml version="1.0" encoding="iso-8859-1"?>
<!-- Generator: Adobe Illustrator 19.0.0, SVG Export Plug-In . SVG Version: 6.00 Build 0)  -->
<svg version="1.1" id="Layer_1" xmlns="http://www.w3.org/2000/svg" xmlns:xlink="http://www.w3.org/1999/xlink" x="0px" y="0px"
	 viewBox="0 0 352.629 352.629" style="enable-background:new 0 0 352.629 352.629;" xml:space="preserve">
<g>
	<g>
		<path d="M322.182,52.292H30.447C13.503,52.292,0,66.139,0,82.739V269.89c0,16.943,13.847,30.447,30.447,30.447h291.736
			c16.943,0,30.447-13.847,30.447-30.447V82.739C352.629,65.796,338.868,52.292,322.182,52.292z M347.296,228.52h-36.123
			c-1.72,0-2.838,1.118-2.838,2.838c0,1.72,1.118,2.838,2.838,2.838h36.123v35.779c0,13.762-11.267,24.771-24.77,24.771H30.79
			c-13.847,0-24.77-11.267-24.77-24.77v-35.779h264.127c1.376,0,2.838-1.118,2.838-2.838c0-1.72-1.118-2.838-2.838-2.838H6.021
			V82.738c0-13.847,11.267-24.77,24.77-24.77h291.736c13.847,0,24.77,11.267,24.77,24.77V228.52z"/>
	</g>
</g>
<g>
	<g>
		<path d="M327.859,261.462H87.899c-1.72-8.944-9.633-15.825-19.093-15.825c-9.46,0-17.373,6.794-19.093,15.825H25.115
			c-1.72,0-2.838,1.118-2.838,2.838c0,1.72,1.118,2.838,2.838,2.838h24.34c1.032,9.805,9.289,17.46,19.351,17.46
			c10.062,0,18.405-7.483,19.351-17.46h239.702c1.376,0,2.838-1.118,2.838-2.838C330.697,262.579,329.493,261.462,327.859,261.462z
			 M68.806,279.179c-7.569,0-13.847-6.193-13.847-13.847c0-7.569,6.193-13.847,13.847-13.847s13.847,6.193,13.847,13.847
			C82.567,272.986,76.375,279.179,68.806,279.179z"/>
	</g>
</g>
<g>
	<g>
		<path d="M195.924,93.747h-2.838c-4.472,0-8.171,3.698-8.171,8.171v88.243c0,4.472,3.698,8.171,8.171,8.171h2.838
			c4.472,0,8.171-3.698,8.171-8.171v-88.243C204.095,97.36,200.396,93.747,195.924,93.747z M198.16,190.162
			c0,1.376-1.118,2.494-2.494,2.494h-2.838c-1.376,0-2.494-1.118-2.494-2.494v-88.244c0-1.376,1.118-2.494,2.494-2.494h2.838
			c1.376,0,2.494,1.118,2.494,2.494V190.162z"/>
	</g>
</g>
<g>
	<g>
		<path d="M160.145,93.747h-2.838c-4.472,0-8.171,3.698-8.171,8.171v88.243c0,4.472,3.698,8.171,8.171,8.171h2.838
			c4.472,0,8.171-3.698,8.171-8.171v-88.243C168.316,97.36,164.618,93.747,160.145,93.747z M162.382,190.162
			c0,1.376-1.118,2.494-2.494,2.494h-2.838c-1.376,0-2.494-1.118-2.494-2.494v-88.244c0-1.376,1.118-2.494,2.494-2.494h2.838
			c1.376,0,2.494,1.118,2.494,2.494V190.162z"/>
	</g>
</g>
<g>
</g>
<g>
</g>
<g>
</g>
<g>
</g>
<g>
</g>
<g>
</g>
<g>
</g>
<g>
</g>
<g>
</g>
<g>
</g>
<g>
</g>
<g>
</g>
<g>
</g>
<g>
</g>
<g>
</g>
</svg>
