<?xml version="1.0" encoding="iso-8859-1"?>
<!-- Generator: Adobe Illustrator 19.0.0, SVG Export Plug-In . SVG Version: 6.00 Build 0)  -->
<svg version="1.1" id="Layer_1" xmlns="http://www.w3.org/2000/svg" xmlns:xlink="http://www.w3.org/1999/xlink" x="0px" y="0px"
	 viewBox="0 0 352.099 352.099" style="enable-background:new 0 0 352.099 352.099;" xml:space="preserve">
<g>
	<g>
		<path d="M351.059,57.574c-0.86-0.602-1.72-0.86-2.494-0.602L234.089,84.581L120.388,30.482c-0.517-0.43-1.118-0.602-1.892-0.602
			c-0.688,0-1.29,0.172-1.806,0.602L2.301,56.972c-1.376,0.258-2.236,1.376-2.236,2.839v117.572c-0.086,0.344-0.086,0.774,0,1.118
			v113.358c0,0.86,0.602,1.72,1.118,2.236c0.602,0.258,1.118,0.602,1.72,0.602c0.258,0,0.602,0,0.86,0l114.647-27.436
			l113.787,54.098c0.258,0.258,0.602,0.43,0.946,0.516c0.258,0.086,0.688,0.086,0.86,0.086c0,0,0.258,0,0.258,0.258l115.594-27.609
			c1.376-0.258,2.236-1.376,2.236-2.838V59.811C352.177,59.037,351.575,58.176,351.059,57.574z M346.586,289.364h-0.085v-0.001
			L236.842,315.51V207.915l96.93-22.878c1.376-0.258,2.236-1.978,1.978-3.354s-1.978-2.236-3.354-1.978l-95.554,22.534v-73.02
			c0-1.72-1.118-2.838-2.838-2.838c-1.72,0-2.838,1.118-2.838,2.838v76.116c-0.086,0.344-0.086,0.774,0,1.118v108.369
			l-109.659-52.121V155.622l94.694,44.896c0.258,0.258,0.86,0.258,1.118,0.258c1.118,0,2.236-0.602,2.494-1.376
			c0.602-1.376,0-3.097-1.376-3.698l-96.93-46.272V68.583c0-1.72-1.118-2.838-2.838-2.838s-2.838,1.118-2.838,2.838v80.675
			c-0.086,0.172-0.172,0.344-0.258,0.516c-0.344,0.946-0.258,1.978,0.258,2.752v109.487L5.999,288.245V179.962l96.672-22.792
			c1.376-0.258,2.236-1.978,1.978-3.354s-1.978-2.236-3.354-1.978L5.999,174.286V62.219l109.659-25.63v12.987
			c0,1.72,1.118,2.838,2.838,2.838s2.838-1.118,2.838-2.838V37.363l109.917,52.292v17.718c0,1.72,1.118,2.838,2.838,2.838
			c1.376,0,2.838-1.118,2.838-2.838V89.828l109.659-26.49V289.364z"/>
	</g>
</g>
<g>
</g>
<g>
</g>
<g>
</g>
<g>
</g>
<g>
</g>
<g>
</g>
<g>
</g>
<g>
</g>
<g>
</g>
<g>
</g>
<g>
</g>
<g>
</g>
<g>
</g>
<g>
</g>
<g>
</g>
</svg>
