<?xml version="1.0" encoding="iso-8859-1"?>
<!-- Generator: Adobe Illustrator 19.0.0, SVG Export Plug-In . SVG Version: 6.00 Build 0)  -->
<svg version="1.1" id="Layer_1" xmlns="http://www.w3.org/2000/svg" xmlns:xlink="http://www.w3.org/1999/xlink" x="0px" y="0px"
	 viewBox="0 0 352.285 352.285" style="enable-background:new 0 0 352.285 352.285;" xml:space="preserve">
<g>
	<g>
		<path d="M277.975,128.323v-26.576C277.975,45.67,232.305,0,176.229,0C120.152,0,74.482,45.67,74.482,101.746v26.49
			c-26.92,6.536-47.046,30.876-47.046,59.689V290.79c0,33.801,27.609,61.495,61.495,61.495h174.767
			c33.801,0,61.151-27.609,61.151-61.495V187.925C324.763,159.199,304.723,134.945,277.975,128.323z M80.073,101.746
			c0-52.98,43.089-96.156,96.156-96.156c52.98,0,96.156,43.089,96.156,96.156v25.458c-2.924-0.43-5.935-0.688-9.03-0.688h-4.472
			v-24.254c0-45.67-36.897-82.566-82.566-82.566s-82.566,36.897-82.566,82.566v24.254h-4.816c-2.924,0-5.849,0.258-8.773,0.602
			v-25.372L80.073,101.746L80.073,101.746z M253.205,102.262v24.254H99.252v-24.254c0-42.316,34.661-76.977,76.977-76.977
			S253.205,59.689,253.205,102.262z M319.086,290.876c0,30.705-25.114,55.818-55.818,55.818H88.759
			c-30.704,0-55.818-25.114-55.818-55.818V188.011c0-30.704,25.114-55.818,55.818-55.818h174.509
			c30.704,0,55.818,25.114,55.818,55.818V290.876z"/>
	</g>
</g>
<g>
	<g>
		<path d="M200.998,222.672c0-2.494-0.602-4.472-0.86-6.193c-0.258-0.602-0.258-1.118-0.602-1.72l-0.258-0.602
			c-0.602-1.376-2.236-2.236-3.698-1.72c-1.376,0.602-2.236,2.236-1.72,3.698l0.258,0.602c0,0.602,0.258,0.86,0.258,1.118
			c0.602,1.376,0.86,3.097,0.86,4.816c0,8.171-4.816,15.223-12.127,17.718c-1.118,0.258-1.978,1.376-1.978,2.494v37.757h-8.171
			v-37.757c0-1.376-0.86-2.494-1.978-2.838c-8.773-2.236-12.987-7.913-12.987-17.46c0-10.751,7.913-18.921,18.062-18.921
			c3.354,0,6.794,0.86,9.547,2.494c1.376,0.86,3.096,0.602,3.956-0.86c0.86-1.376,0.602-3.097-0.86-3.956
			c-3.698-2.236-7.913-3.354-12.385-3.354c-13.245,0-23.652,10.751-23.652,24.512c0,11.267,5.075,18.921,14.965,22.276v38.617
			c0,1.72,1.118,2.838,2.838,2.838h13.847c1.72,0,2.838-1.376,2.494-2.58v-38.875C195.408,240.992,200.998,232.219,200.998,222.672z
			"/>
	</g>
</g>
<g>
	<g>
		<path d="M263.268,156.963c-1.72,0-2.838,1.118-2.838,2.838s1.118,2.838,2.838,2.838c14.105,0,25.63,11.525,25.63,25.63v102.865
			c0,14.105-11.009,25.372-25.114,25.372H89.361c-14.363,0-25.974-11.267-25.974-25.372V188.269c0-13.847,11.869-25.63,25.974-25.63
			H242.11c1.72,0,2.838-1.118,2.838-2.838s-1.118-2.838-2.838-2.838H89.361c-17.46,0-31.564,14.105-31.564,31.306v102.865
			c0,16.943,14.105,31.048,31.564,31.048H263.87c16.943,0,30.704-14.105,30.704-31.048V188.269
			C294.574,171.068,280.469,156.963,263.268,156.963z"/>
	</g>
</g>
<g>
</g>
<g>
</g>
<g>
</g>
<g>
</g>
<g>
</g>
<g>
</g>
<g>
</g>
<g>
</g>
<g>
</g>
<g>
</g>
<g>
</g>
<g>
</g>
<g>
</g>
<g>
</g>
<g>
</g>
</svg>
