<?xml version="1.0" encoding="iso-8859-1"?>
<!-- Generator: Adobe Illustrator 19.0.0, SVG Export Plug-In . SVG Version: 6.00 Build 0)  -->
<svg version="1.1" id="Layer_1" xmlns="http://www.w3.org/2000/svg" xmlns:xlink="http://www.w3.org/1999/xlink" x="0px" y="0px"
	 viewBox="0 0 352.284 352.284" style="enable-background:new 0 0 352.284 352.284;" xml:space="preserve">
<g>
	<g>
		<path d="M176.099,0C101.359,0,40.81,60.893,40.81,135.289c0,135.633,132.193,215.964,133.655,216.738
			c0.258,0.258,0.86,0.258,1.376,0.258c0.602,0,1.118,0,1.978-0.258c1.118-0.86,133.655-81.191,133.655-216.738
			C311.388,60.549,250.839,0,176.099,0z M175.841,346.437c-14.363-9.289-129.698-86.523-129.698-211.148
			c0-71.644,58.312-129.698,129.698-129.698c71.3,0,129.699,58.054,129.699,129.699
			C305.454,260.172,190.204,337.405,175.841,346.437z"/>
	</g>
</g>
<g>
	<g>
		<path d="M266.578,101.145c-0.602-1.376-2.236-2.236-3.698-1.72c-1.462,0.516-2.236,2.236-1.72,3.698
			c8.429,22.792,7.569,47.648-2.236,69.666c-20.9,45.927-74.998,66.569-120.926,45.67c-22.276-10.149-39.219-28.21-47.906-51.002
			c-8.429-22.792-7.913-47.648,2.236-69.924c20.9-45.928,74.998-66.57,120.926-45.671c13.503,5.935,25.372,15.482,34.403,27.092
			c0.86,1.376,2.838,1.376,3.956,0.602c1.376-0.86,1.376-2.838,0.602-3.956c-9.547-12.385-22.276-22.276-36.639-28.726
			C167.068,24.855,109.272,46.615,87.34,95.381c-10.407,23.394-11.267,49.884-2.236,74.138c9.03,24.254,27.092,43.433,50.744,54.098
			c12.987,5.935,26.49,8.773,39.735,8.773c37.241,0,72.418-21.415,88.501-57.195C274.749,151.63,275.609,125.399,266.578,101.145z"
			/>
	</g>
</g>
<g>
	<g>
		<path d="M175.841,63.129c-39.735,0-72.16,32.425-72.16,72.16s32.425,72.16,72.16,72.16c39.735,0,72.16-32.425,72.16-72.16
			S215.576,63.129,175.841,63.129z M175.841,201.515c-36.639,0-66.57-29.845-66.57-66.57c0-36.639,29.845-66.57,66.57-66.57
			c36.639,0,66.57,29.845,66.57,66.57C242.324,171.67,212.48,201.515,175.841,201.515z"/>
	</g>
</g>
<g>
</g>
<g>
</g>
<g>
</g>
<g>
</g>
<g>
</g>
<g>
</g>
<g>
</g>
<g>
</g>
<g>
</g>
<g>
</g>
<g>
</g>
<g>
</g>
<g>
</g>
<g>
</g>
<g>
</g>
</svg>
