<?xml version="1.0" encoding="iso-8859-1"?>
<!-- Generator: Adobe Illustrator 19.0.0, SVG Export Plug-In . SVG Version: 6.00 Build 0)  -->
<svg version="1.1" id="Layer_1" xmlns="http://www.w3.org/2000/svg" xmlns:xlink="http://www.w3.org/1999/xlink" x="0px" y="0px"
	 viewBox="0 0 352.457 352.457" style="enable-background:new 0 0 352.457 352.457;" xml:space="preserve">
<g>
	<g>
		<path d="M351.167,84.717c-0.86-0.602-1.72-0.86-2.494-0.602l-86.609,20.986c0.602-4.989,0.86-10.063,0.86-15.31
			c0-47.906-38.875-86.781-86.781-86.781c-38.101,0-70.44,24.512-82.137,58.657L2.236,84.201C0.86,84.459,0,85.577,0,87.039V319
			c0,0.86,0.602,1.72,1.118,2.236c0.602,0.258,1.118,0.602,1.72,0.602c0.258,0,0.602,0,0.602,0.258L118.26,294.66l114.647,54.529
			c0.258,0.258,0.86,0.258,1.118,0.258s0.602,0,0.602,0l115.594-27.609c1.376-0.258,2.236-1.376,2.236-2.838V87.039
			C352.285,86.179,352.027,85.319,351.167,84.717z M176.142,8.343c44.552,0,81.191,36.381,81.191,81.191
			c0,77.234-70.182,125.742-81.191,132.795c-11.009-7.052-81.191-55.56-81.191-132.795C94.951,44.723,131.333,8.343,176.142,8.343z
			 M236.777,342.996V198.074c0-1.72-1.118-2.838-2.838-2.838c-1.72,0-2.838,1.118-2.838,2.838v144.148L121.184,289.93v-97.532
			c0-1.72-1.118-2.838-2.838-2.838s-2.838,1.118-2.838,2.838v96.672L5.59,315.302V88.931l86.523-21.158
			c-1.806,7.052-2.838,14.449-2.838,22.018c0,86.523,84.545,137.87,85.405,138.385c0.258,0.258,0.86,0.258,1.376,0.258
			c0.258,0,0.86-0.258,1.376-0.258c0.774-0.516,71.644-43.519,83.685-117.141l85.491-20.642v226.371h0.086L236.777,342.996z"/>
	</g>
</g>
<g>
	<g>
		<path d="M226.371,62.785c-0.86-1.376-2.494-1.978-3.956-1.118c-1.376,0.86-1.978,2.494-1.118,3.956
			c3.956,7.311,5.935,15.482,5.935,23.996c0,28.21-23.136,51.346-51.346,51.346c-28.21,0-51.346-23.136-51.346-51.346
			s23.136-51.346,51.346-51.346c9.289,0,18.32,2.236,26.232,7.052c1.376,0.86,3.096,0.602,3.956-0.86
			c0.86-1.376,0.602-3.097-0.86-3.956c-8.773-5.074-18.921-7.913-29.07-7.913c-31.306,0-56.937,25.63-56.937,56.937
			c-0.001,31.307,25.63,56.937,56.936,56.937s56.679-25.372,56.679-57.195C232.821,80.245,230.585,70.956,226.371,62.785z"/>
	</g>
</g>
<g>
</g>
<g>
</g>
<g>
</g>
<g>
</g>
<g>
</g>
<g>
</g>
<g>
</g>
<g>
</g>
<g>
</g>
<g>
</g>
<g>
</g>
<g>
</g>
<g>
</g>
<g>
</g>
<g>
</g>
</svg>
