<?xml version="1.0" encoding="iso-8859-1"?>
<!-- Generator: Adobe Illustrator 19.0.0, SVG Export Plug-In . SVG Version: 6.00 Build 0)  -->
<svg version="1.1" id="Layer_1" xmlns="http://www.w3.org/2000/svg" xmlns:xlink="http://www.w3.org/1999/xlink" x="0px" y="0px"
	 viewBox="0 0 352.022 352.022" style="enable-background:new 0 0 352.022 352.022;" xml:space="preserve">
<g>
	<g>
		<path d="M243.053,76.931c-0.602-1.376-2.236-2.236-3.698-1.72c-1.376,0.602-2.236,2.236-1.72,3.698
			c5.935,16.341,5.333,33.801-1.72,49.626c-7.053,15.825-20.04,27.866-36.381,34.145c-16.341,5.935-34.145,5.333-49.884-1.72
			c-32.683-14.965-47.39-53.582-32.425-86.265c7.052-15.825,20.04-27.866,36.381-34.145c16.341-5.935,34.145-5.333,49.884,1.72
			c9.547,4.472,18.062,11.267,24.512,19.438c0.86,1.376,2.838,1.376,3.956,0.602c1.376-0.86,1.376-2.838,0.602-3.956
			c-7.052-9.03-16.341-16.341-26.748-21.158c-17.201-7.913-36.381-8.429-54.099-1.72c-17.718,6.794-31.564,20.04-39.477,37.241
			c-16.341,35.521-0.258,77.492,35.263,93.576c9.29,3.957,19.181,6.193,28.986,6.193c8.429,0,16.943-1.376,25.372-4.472
			c17.718-6.794,31.564-20.04,39.477-37.241C248.902,113.57,249.504,94.648,243.053,76.931z"/>
	</g>
</g>
<g>
	<g>
		<path d="M176.57,55.772c-25.458,0.001-46.272,20.9-46.272,46.272c0,25.372,20.556,46.272,46.272,46.272s46.272-20.9,46.272-46.272
			C222.842,76.672,201.943,55.772,176.57,55.772z M176.484,142.382c-22.276,0-40.595-18.062-40.595-40.595
			c0-22.276,18.062-40.595,40.595-40.595s40.94,18.319,40.595,40.595C217.079,124.062,198.76,142.382,176.484,142.382z"/>
	</g>
</g>
<g>
	<g>
		<path d="M351.852,339.682l-46.53-137.525c-0.258-1.118-1.376-1.978-2.494-1.978H232.99c19.438-24.684,36.639-57.969,36.639-98.392
			c0-51.347-41.713-93.06-93.059-93.06s-93.06,41.713-93.06,93.06c0,40.423,17.115,73.708,36.639,98.392H49.193
			c-1.118,0-2.236,0.86-2.494,1.978L0.169,339.682c-0.258,0.86-0.258,1.72,0.258,2.494c0.602,0.602,1.376,1.118,2.236,1.118h346.694
			c0.86,0,1.72-0.602,2.236-1.118C352.111,341.402,352.111,340.542,351.852,339.682z M89.101,101.786
			c0-48.25,39.219-87.383,87.383-87.383s87.383,39.219,87.383,87.383c0,83.427-75.858,135.633-87.383,142.944
			C164.959,237.161,89.101,185.213,89.101,101.786z M6.534,337.704l44.552-131.935h72.762c0.258,0,0.516-0.086,0.774-0.086
			c24.168,28.64,50.056,44.38,50.486,44.638c0.258,0.258,0.86,0.258,1.376,0.258s1.118,0,1.376-0.258
			c0.43-0.344,26.748-16.255,51.002-45.24c0.516,0.43,1.204,0.688,1.978,0.688h69.924l44.552,131.935H6.534z"/>
	</g>
</g>
<g>
	<g>
		<path d="M237.377,294.873l-55.216-27.264l44.724-22.104c1.376-0.602,1.978-2.236,1.376-3.698
			c-0.602-1.376-2.236-1.978-3.698-1.376l-48.766,24.082L127.03,240.43c-1.376-0.602-3.096,0-3.698,1.376
			c-0.602,1.376,0,3.097,1.376,3.698l44.724,22.104l-55.216,27.264c-1.376,0.602-1.978,2.236-1.376,3.698
			c0.602,1.118,1.376,1.72,2.494,1.72c0.602,0,0.86,0,1.118-0.258l59.173-29.242l59.173,29.242c0.258,0.258,0.86,0.258,1.118,0.258
			c1.118,0,1.978-0.602,2.494-1.72C239.355,297.109,238.839,295.388,237.377,294.873z"/>
	</g>
</g>
<g>
</g>
<g>
</g>
<g>
</g>
<g>
</g>
<g>
</g>
<g>
</g>
<g>
</g>
<g>
</g>
<g>
</g>
<g>
</g>
<g>
</g>
<g>
</g>
<g>
</g>
<g>
</g>
<g>
</g>
</svg>
