<?xml version="1.0" encoding="iso-8859-1"?>
<!-- Generator: Adobe Illustrator 19.0.0, SVG Export Plug-In . SVG Version: 6.00 Build 0)  -->
<svg version="1.1" id="Layer_1" xmlns="http://www.w3.org/2000/svg" xmlns:xlink="http://www.w3.org/1999/xlink" x="0px" y="0px"
	 viewBox="0 0 352.214 352.214" style="enable-background:new 0 0 352.214 352.214;" xml:space="preserve">
<g>
	<g>
		<path d="M351.726,184.966l-27.608-38.617c-0.602-0.602-1.376-1.118-2.236-1.118H195.622v-19.179h123.764
			c1.72,0,2.838-1.118,2.838-2.838V48.817c0-1.72-1.118-2.838-2.838-2.838H195.622V22.327c0-10.751-8.773-19.438-19.438-19.438
			c-10.235,0-18.577,7.913-19.351,17.976c0,0.172-0.086,0.43-0.086,0.688c0,0.086,0,0.086,0,0.172c0,0.258,0,0.43,0,0.688v23.652
			H30.489c-0.86,0-1.72,0.258-2.236,1.118L0.645,85.8c-0.86,1.118-0.86,2.494,0,3.355l27.609,35.779
			c0.602,0.86,1.376,1.118,2.236,1.118h126.258v19.179H30.145c-1.72,0-2.838,1.118-2.838,2.838v74.396
			c0,1.72,1.118,2.838,2.838,2.838h126.86v121.184c0,1.72,1.118,2.838,2.838,2.838h32.941c1.376,0,2.838-1.376,2.838-2.838V225.303
			H321.88c0.86,0,1.72-0.258,2.236-1.118l27.609-35.779C352.241,187.202,352.499,186.084,351.726,184.966z M176.099,18.629h-13.331
			c1.634-5.849,6.966-10.149,13.331-10.149c7.569,0,13.847,6.193,13.847,13.847V45.98h-27.609V24.305h13.761
			c1.72,0,2.838-1.118,2.838-2.838C178.937,19.748,177.819,18.629,176.099,18.629z M31.693,120.461L6.407,87.434l25.372-35.779
			h126.43c0.344,0.172,0.86,0.258,1.29,0.258s0.946-0.086,1.29-0.258h30.618c0.344,0.172,0.86,0.258,1.29,0.258
			c0.344,0,0.774-0.086,1.118-0.258h122.646v68.806H192.699h-33.285H31.693z M189.86,126.051v19.179h-27.608v-19.179H189.86z
			 M189.861,343.735h-27.35V225.303h27.35V343.735z M320.419,219.627H32.898v-68.806h287.522l25.372,35.779L320.419,219.627z"/>
	</g>
</g>
<g>
	<g>
		<path d="M291.693,82.016H98.865c-1.72,0-2.838,1.118-2.838,2.838c0,1.72,1.118,2.838,2.838,2.838h192.827
			c1.72,0,2.838-1.118,2.838-2.838C294.531,83.134,293.413,82.016,291.693,82.016z"/>
	</g>
</g>
<g>
	<g>
		<path d="M82.523,82.102h-43.95c-1.72,0-2.838,1.118-2.838,2.838s1.118,2.838,2.838,2.838h43.95c1.376,0,2.838-1.118,2.838-2.838
			S84.158,82.102,82.523,82.102z"/>
	</g>
</g>
<g>
	<g>
		<path d="M253.334,183.848H60.506c-1.72,0-2.838,1.118-2.838,2.838c0,1.72,1.118,2.838,2.838,2.838h192.827
			c1.376,0,2.838-1.118,2.838-2.838C256.172,184.966,254.967,183.848,253.334,183.848z"/>
	</g>
</g>
<g>
	<g>
		<path d="M313.882,183.848h-43.949c-1.72,0-2.838,1.118-2.838,2.838c0,1.72,1.118,2.838,2.838,2.838h43.949
			c1.376,0,2.838-1.118,2.838-2.838C316.721,184.966,315.602,183.848,313.882,183.848z"/>
	</g>
</g>
<g>
</g>
<g>
</g>
<g>
</g>
<g>
</g>
<g>
</g>
<g>
</g>
<g>
</g>
<g>
</g>
<g>
</g>
<g>
</g>
<g>
</g>
<g>
</g>
<g>
</g>
<g>
</g>
<g>
</g>
</svg>
