<?xml version="1.0" encoding="iso-8859-1"?>
<!-- Generator: Adobe Illustrator 19.0.0, SVG Export Plug-In . SVG Version: 6.00 Build 0)  -->
<svg version="1.1" id="Layer_1" xmlns="http://www.w3.org/2000/svg" xmlns:xlink="http://www.w3.org/1999/xlink" x="0px" y="0px"
	 viewBox="0 0 352.284 352.284" style="enable-background:new 0 0 352.284 352.284;" xml:space="preserve">
<g>
	<g>
		<path d="M256.129,244.518L182.249,91.77c-3.01-6.708-6.45-7.483-8.687-7.224c-2.494,0.258-5.333,2.236-6.45,9.547l-11.009,62.269
			l-64.592,12.643c-7.311,1.118-9.289,4.214-9.547,6.45c-0.258,2.236,0.86,5.677,7.569,8.773l154.727,71.902
			c3.096,1.376,5.333,1.978,7.052,1.978c2.236,0,3.956-1.118,5.075-1.72C258.107,254.667,259.225,251.055,256.129,244.518z
			 M181.475,185.173l65.193,65.967c0,0-0.086,0-0.086-0.086L91.856,179.153c-3.096-1.376-4.214-2.838-4.214-2.838
			c0.258-0.258,1.376-1.376,5.075-1.978l65.537-13.073l5.247,5.419c0.602,0.602,1.118,0.86,1.978,0.86
			c0.602,0,1.376-0.258,1.978-0.86c1.118-1.118,1.118-2.838,0-3.956l-5.591-5.849l10.923-62.355c0.602-3.355,1.376-4.472,1.72-4.816
			c0.258,0.258,1.376,1.118,2.58,4.214l73.88,152.749c0,0.515,0.086,0.859,0.258,1.118l-65.795-66.57
			c-1.118-1.118-2.838-1.118-3.956,0C180.357,182.335,180.357,184.055,181.475,185.173z"/>
	</g>
</g>
<g>
	<g>
		<path d="M176.142,0C78.869,0,0,78.955,0,176.142s78.955,176.142,176.142,176.142c97.274,0,176.142-78.955,176.142-176.142
			S273.33,0,176.142,0z M176.142,346.694C81.965,346.694,5.59,270.32,5.59,176.142S81.965,5.591,176.142,5.591
			s170.552,76.374,170.552,170.552S270.234,346.694,176.142,346.694z"/>
	</g>
</g>
<g>
	<g>
		<path d="M294.488,77.492c-0.86-1.118-2.838-1.376-3.956-0.258c-1.118,0.86-1.376,2.838-0.258,3.956
			c22.276,26.49,34.403,60.291,34.403,95.038c0,82.051-66.57,148.534-148.534,148.534S27.609,258.193,27.609,176.229
			S94.178,27.695,176.142,27.695c34.661,0,68.462,12.127,95.038,34.403c1.118,1.118,2.838,0.86,3.956-0.258
			c1.118-1.118,0.86-2.838-0.258-3.956c-27.608-23.136-62.613-35.779-98.65-35.779c-85.147,0-154.211,69.064-154.211,154.211
			s69.064,154.211,154.211,154.211S330.44,261.462,330.44,176.315C330.353,140.106,317.624,105.1,294.488,77.492z"/>
	</g>
</g>
<g>
</g>
<g>
</g>
<g>
</g>
<g>
</g>
<g>
</g>
<g>
</g>
<g>
</g>
<g>
</g>
<g>
</g>
<g>
</g>
<g>
</g>
<g>
</g>
<g>
</g>
<g>
</g>
<g>
</g>
</svg>
