<?xml version="1.0" encoding="iso-8859-1"?>
<!-- Generator: Adobe Illustrator 19.0.0, SVG Export Plug-In . SVG Version: 6.00 Build 0)  -->
<svg version="1.1" id="Layer_1" xmlns="http://www.w3.org/2000/svg" xmlns:xlink="http://www.w3.org/1999/xlink" x="0px" y="0px"
	 viewBox="0 0 352.457 352.457" style="enable-background:new 0 0 352.457 352.457;" xml:space="preserve">
<g>
	<g>
		<path d="M351.253,57.869c-0.86-0.602-1.72-0.86-2.494-0.602L233.681,85.048L121.098,31.551c-0.516-1.204-1.978-1.806-3.269-1.548
			L2.236,57.611C0.86,57.869,0,58.988,0,60.449v231.961c0,0.86,0.602,1.72,1.118,2.236c0.602,0.258,1.118,0.602,1.72,0.602
			c0.258,0,0.602,0,0.86,0l114.647-27.436l114.561,54.443c0.258,0.258,0.86,0.258,1.118,0.258s0.602,0,0.602,0l115.594-27.609
			c1.376-0.258,2.236-1.376,2.236-2.838V60.105C352.371,59.331,351.855,58.471,351.253,57.869z M231.187,315.46l-109.659-52.121
			v-31.995c14.277,13.332,33.542,21.675,54.701,21.675c21.244,0,40.681-8.343,54.959-22.018V315.46z M176.229,247.6
			c-40.853,0-74.138-33.285-74.138-74.138s33.199-74.138,74.138-74.138c40.853,0,74.138,33.284,74.138,74.138
			S217.082,247.6,176.229,247.6z M346.78,289.917l-109.917,26.232V225.67c0-0.172,0-0.43-0.086-0.602
			c11.955-13.933,19.179-32.081,19.179-51.862c0-43.95-35.779-79.814-79.814-79.814c-21.244,0-40.681,8.343-54.959,22.018V69.222
			c0-1.72-1.118-2.838-2.838-2.838s-2.838,1.118-2.838,2.838v52.121c0,0,0,0,0,0.086c-11.955,13.933-19.179,32.081-19.179,51.776
			c0,19.954,7.397,38.187,19.524,52.207c0,0.172-0.086,0.344-0.086,0.516v36.639L5.849,288.798V62.428l109.659-26.146v13.503
			c0,1.72,1.118,2.838,2.838,2.838s2.838-1.376,2.838-2.838V37.83l109.917,52.293v17.46c0,1.72,1.118,2.838,2.838,2.838
			c1.72,0,2.838-1.376,2.838-2.838v-17.46l109.917-26.49v226.284L346.78,289.917L346.78,289.917z"/>
	</g>
</g>
<g>
	<g>
		<path d="M188.355,175.183l19.438-19.438c1.634-1.72,2.494-3.698,2.494-5.935c0-2.236-0.86-4.214-2.494-5.935
			c-3.355-3.097-8.773-3.097-11.869,0l-19.438,19.438l-19.437-19.438c-3.354-3.097-8.773-3.097-11.869,0
			c-3.096,3.354-3.096,8.773,0,11.869l19.438,19.438l-19.438,19.438c-1.72,1.72-2.494,3.698-2.494,5.935
			c0,2.236,0.86,4.214,2.494,5.935c3.354,3.097,8.773,3.097,11.869,0l19.437-19.438l19.438,19.438
			c1.72,1.72,3.698,2.494,5.935,2.494c2.236,0,4.214-0.86,5.935-2.494c1.72-1.72,2.494-3.698,2.494-5.935
			c0-2.236-0.86-4.214-2.494-5.935L188.355,175.183z M203.579,202.791c-0.86,1.118-2.494,1.118-3.698,0l-21.416-21.415
			c-0.602-0.602-1.118-0.86-1.978-0.86c-0.602,0-1.376,0.258-1.978,0.86l-21.416,21.415c-0.86,1.118-2.494,1.118-3.698,0
			c-0.602-0.602-0.86-1.118-0.86-1.978c0-0.86,0.258-1.376,0.86-1.978l21.416-21.415c0.602-0.602,0.86-1.118,0.86-1.978
			s-0.258-1.376-0.86-1.978l-21.416-21.415c-0.602-0.602-0.86-1.118-0.86-1.978s0.258-1.376,0.86-1.978
			c0.86-1.118,2.494-1.118,3.698,0l21.416,21.415c1.118,1.118,2.838,1.118,3.956,0l21.416-21.415c0.86-1.118,2.494-1.118,3.698,0
			c0.602,0.602,0.86,1.118,0.86,1.978c0,0.86-0.344,1.462-0.86,1.978l-21.416,21.415c-0.602,0.602-0.86,1.118-0.86,1.978
			s0.258,1.376,0.86,1.978l21.416,21.415c0.602,0.602,0.86,1.118,0.86,1.978C204.439,201.672,204.181,202.189,203.579,202.791z"/>
	</g>
</g>
<g>
	<g>
		<path d="M229.123,129.771c-0.86-1.118-2.838-1.118-3.956-0.258c-1.118,0.86-1.118,2.838-0.258,3.956
			c9.03,11.267,14.105,25.372,14.105,39.735c0,34.661-28.21,63.129-63.129,63.129c-34.661,0-63.129-28.468-63.129-63.129
			c0-34.661,28.21-63.129,63.129-63.129c12.385,0,24.254,3.698,34.661,10.407c1.376,0.86,3.096,0.602,3.956-0.86
			c0.86-1.376,0.602-3.097-0.86-3.956c-11.267-7.311-24.254-11.267-37.757-11.267c-37.757,0-68.806,30.704-68.806,68.806
			c0.086,37.757,30.79,68.806,68.805,68.806c37.757,0,68.806-30.705,68.462-68.806C244.346,157.379,239.013,141.898,229.123,129.771
			z"/>
	</g>
</g>
<g>
</g>
<g>
</g>
<g>
</g>
<g>
</g>
<g>
</g>
<g>
</g>
<g>
</g>
<g>
</g>
<g>
</g>
<g>
</g>
<g>
</g>
<g>
</g>
<g>
</g>
<g>
</g>
<g>
</g>
</svg>
