<?xml version="1.0" encoding="iso-8859-1"?>
<!-- Generator: Adobe Illustrator 19.0.0, SVG Export Plug-In . SVG Version: 6.00 Build 0)  -->
<svg version="1.1" id="Layer_1" xmlns="http://www.w3.org/2000/svg" xmlns:xlink="http://www.w3.org/1999/xlink" x="0px" y="0px"
	 viewBox="0 0 352.371 352.371" style="enable-background:new 0 0 352.371 352.371;" xml:space="preserve">
<g>
	<g>
		<path d="M351.167,57.711c-0.86-0.602-1.72-0.86-2.494-0.602L233.251,84.459L120.496,30.791c-0.688-0.602-1.72-0.946-2.666-0.688
			L2.236,57.195C0.86,57.453,0,58.571,0,60.033v231.961c0,0.86,0.602,1.72,1.118,2.236c0.602,0.258,1.118,0.602,1.72,0.602
			c0.258,0,0.602,0,0.86,0.258l114.647-27.436l114.561,54.443c0.258,0.258,0.86,0.258,1.118,0.258c0.172,0,0.344,0,0.516-0.086
			v0.086l115.594-27.609c1.376-0.258,2.236-1.376,2.236-2.838V59.948C352.285,59.173,351.769,58.313,351.167,57.711z
			 M231.101,315.215l-109.659-52.121l0-15.738c0.258,0.258,0.516,0.516,0.86,0.688c1.978,1.376,4.472,2.236,7.311,2.236
			c3.354,0,7.052-1.118,11.869-3.354l35.521-18.921l35.779,18.577c7.311,3.956,13.847,4.214,18.32,0.86V315.215z M121.356,205.385
			v-17.373l2.58,2.494L121.356,205.385z M231.101,202.719l-2.236-12.729l2.236-2.236V202.719z M223.187,187.238
			c-0.86,0.602-1.118,1.72-0.86,2.494l7.052,41.197c1.118,5.935,0.258,10.407-2.494,12.385c-2.494,1.978-7.052,1.72-12.385-1.118
			l-37.24-19.438c-0.86-0.602-1.72-0.602-2.494,0l-36.897,19.438c-5.075,2.838-9.547,3.354-12.385,1.376
			c-2.838-1.978-3.956-6.45-2.838-12.385l7.052-41.197c0-0.86-0.258-1.978-0.86-2.494l-30.533-29.673
			c-3.956-3.956-5.677-7.913-4.816-11.267c0.86-3.354,4.816-5.677,10.751-6.45l31.048-4.472l10.407-1.376
			c1.118,0,1.978-0.602,2.236-1.376l18.32-37.5c2.494-5.333,5.935-8.429,9.289-8.429c3.096,0,6.794,3.097,9.289,8.429l18.577,37.5
			c0.602,0.602,1.376,1.376,2.236,1.376l41.455,5.935c5.935,0.86,9.891,3.097,11.009,6.192c1.118,3.097-0.86,7.311-5.075,11.525
			L223.187,187.238z M236.777,315.99V182.25l20.9-20.47c5.935-5.677,8.171-11.869,6.45-17.201c-1.72-5.333-7.311-9.03-15.482-10.149
			l-39.994-5.677L190.591,92.63c-3.698-7.569-8.773-11.525-14.363-11.525c-5.591,0-10.751,4.214-14.363,11.525l-17.718,36.381
			l-22.878,3.354c0-0.086,0-0.172,0-0.258V68.72c0-1.72-1.118-2.838-2.838-2.838c-1.72,0-2.838,1.118-2.838,2.838v63.387
			c0,0.43,0.086,0.774,0.172,1.118l-11.783,1.72c-8.171,1.118-13.847,4.816-15.482,10.149c-1.376,5.074,0.258,10.751,5.333,16.083
			l0.258,0.258l0.86,0.86c0,0.258,0.258,0.258,0.258,0.258l20.556,19.954v79.557L5.849,288.382V62.012l109.659-25.63v13.245
			c0,1.72,1.118,2.838,2.838,2.838s2.838-1.376,2.838-2.838V37.413l109.917,52.293v28.726c0,1.72,1.118,2.838,2.838,2.838
			c1.72,0,2.838-1.118,2.838-2.838V89.448l109.917-25.974l0.001,226.285L236.777,315.99z"/>
	</g>
</g>
<g>
	<g>
		<path d="M235.228,155.931c0.86-0.602,1.118-1.72,0.86-2.838c-0.259-1.118-1.118-1.72-2.236-1.978l-18.32-2.494
			c-1.376-0.258-2.838,0.86-3.096,2.236c-0.258,1.376,0.86,2.838,2.236,3.097l12.643,1.72l-17.46,17.201
			c-5.075,5.074-7.311,12.385-6.192,19.438l4.214,24.254l-21.674-11.267c-6.193-3.354-14.105-3.354-20.298,0l-21.674,11.525
			l3.956-24.254c1.376-7.052-1.118-14.105-6.193-19.179l-17.718-17.201l24.254-3.698c7.052-0.86,13.245-5.333,16.341-11.869
			l10.751-22.018l11.009,22.018c1.118,2.494,3.096,4.472,5.075,6.45c1.118,1.118,2.838,0.86,3.956-0.258
			c1.118-1.118,0.86-2.838-0.258-3.956c-1.376-1.376-2.838-2.838-3.698-4.817l-13.503-27.092c-0.602-1.376-2.236-1.978-3.698-1.376
			c-0.258,0.258-0.602,0.258-0.86,0.602c-0.258,0.258-0.602,0.602-0.602,0.86l-13.245,27.35c-2.236,4.472-6.794,7.913-12.127,8.773
			l-29.845,4.472c-1.118,0.258-1.978,0.86-2.236,1.978c-0.258,0.86,0,1.978,0.86,2.838l21.674,21.158
			c3.873,3.613,5.593,8.946,4.733,14.364l-5.075,29.845c-0.258,1.118,0.258,2.236,1.118,2.838c0.602,0.258,1.118,0.602,1.72,0.602
			c0.258,0,0.86,0,0.86-0.86l26.748-14.105c4.472-2.494,10.407-2.494,14.965,0l26.748,14.105c1.118,0.602,2.236,0.258,3.096-0.258
			c0.86-0.602,1.376-1.72,1.118-2.838l-5.075-29.845c-1.118-5.333,0.86-10.751,4.472-14.363L235.228,155.931z"/>
	</g>
</g>
<g>
</g>
<g>
</g>
<g>
</g>
<g>
</g>
<g>
</g>
<g>
</g>
<g>
</g>
<g>
</g>
<g>
</g>
<g>
</g>
<g>
</g>
<g>
</g>
<g>
</g>
<g>
</g>
<g>
</g>
</svg>
