<?xml version="1.0" encoding="iso-8859-1"?>
<!-- Generator: Adobe Illustrator 19.0.0, SVG Export Plug-In . SVG Version: 6.00 Build 0)  -->
<svg version="1.1" id="Layer_1" xmlns="http://www.w3.org/2000/svg" xmlns:xlink="http://www.w3.org/1999/xlink" x="0px" y="0px"
	 viewBox="0 0 352.156 352.156" style="enable-background:new 0 0 352.156 352.156;" xml:space="preserve">
<g>
	<g>
		<path d="M351.963,174.96c-25.63-55.561-96.414-92.716-175.884-92.716S25.824,119.485,0.193,174.96
			c-0.258,0.602-0.258,1.376,0,2.236c25.63,55.56,96.414,92.716,175.884,92.716s150.255-37.241,175.884-92.716
			C352.221,176.68,352.221,175.82,351.963,174.96z M176.078,264.321c-76.719,0-144.922-35.263-170.294-88.243
			c25.372-52.981,93.575-88.244,170.294-88.244c76.976,0,144.922,35.263,170.294,88.243
			C320.914,228.8,252.71,264.321,176.078,264.321z"/>
	</g>
</g>
<g>
	<g>
		<path d="M240.583,139.526c-0.86-1.463-2.494-2.065-3.956-1.205c-1.376,0.86-1.978,2.494-1.118,3.956
			c6.193,10.407,9.289,22.276,9.289,34.403c0,38.015-31.048,69.064-69.064,69.064s-69.064-31.048-69.064-69.064
			c0-20.04,8.773-38.875,23.996-52.121c12.385-11.009,28.468-16.943,45.068-16.943c16.599,0,32.683,5.935,45.068,16.599
			c1.118,1.118,2.838,0.86,3.956-0.258c1.118-1.118,0.86-2.838-0.258-3.956c-13.503-11.525-31.048-18.062-48.766-18.062
			c-18.062,0-35.263,6.192-48.766,18.062c-16.599,14.105-25.974,34.661-25.974,56.421c0,41.197,33.542,74.74,74.74,74.74
			c41.198,0,74.74-33.542,74.74-74.396C250.474,163.78,247.12,150.793,240.583,139.526z"/>
	</g>
</g>
<g>
	<g>
		<path d="M236.11,176.679c0-6.45-2.838-12.643-7.569-16.943c-3.956-3.354-9.03-5.333-14.363-5.333
			c-5.417,0.001-10.492,1.979-14.448,5.333c-4.816,3.956-7.569,10.149-7.569,16.599c0,9.03,5.419,16.771,13.073,20.298
			c-6.622,9.719-17.632,15.568-29.414,15.568c-19.696,0-35.779-16.083-35.779-35.779c0-10.407,4.472-20.298,12.385-27.092
			c6.45-5.677,14.621-8.773,23.394-8.773s16.943,3.097,23.394,8.773c1.118,1.118,2.838,0.86,3.956-0.258
			c1.118-1.118,0.86-2.838-0.258-3.956c-7.569-6.45-17.201-10.149-27.092-10.149c-9.891,0-19.438,3.698-27.092,10.149
			c-9.03,7.913-14.363,19.179-14.363,31.306c0,22.792,18.577,41.455,41.455,41.455c14.449,0,27.608-7.397,35.177-19.438
			c1.118,0.172,2.236,0.258,3.44,0.258C226.821,198.697,236.712,188.548,236.11,176.679z M214.782,192.677
			c-9.288,0-16.599-7.569-16.599-16.599c0-4.817,1.978-9.289,5.677-12.385c2.838-2.494,6.794-3.956,10.751-3.956
			c3.698,0,7.654,1.376,11.095,3.956c3.698,3.097,5.677,7.569,5.677,12.385C231.381,185.367,224.07,192.677,214.782,192.677z"/>
	</g>
</g>
<g>
</g>
<g>
</g>
<g>
</g>
<g>
</g>
<g>
</g>
<g>
</g>
<g>
</g>
<g>
</g>
<g>
</g>
<g>
</g>
<g>
</g>
<g>
</g>
<g>
</g>
<g>
</g>
<g>
</g>
</svg>
