<?xml version="1.0" encoding="iso-8859-1"?>
<!-- Generator: Adobe Illustrator 19.0.0, SVG Export Plug-In . SVG Version: 6.00 Build 0)  -->
<svg version="1.1" id="Layer_1" xmlns="http://www.w3.org/2000/svg" xmlns:xlink="http://www.w3.org/1999/xlink" x="0px" y="0px"
	 viewBox="0 0 352.113 352.113" style="enable-background:new 0 0 352.113 352.113;" xml:space="preserve">
<g>
	<g>
		<path d="M263.18,126.258H99.078v-24.254c0-42.316,34.661-76.976,77.234-76.976c42.316,0,76.719,34.403,76.977,76.719
			c0,1.72,1.376,2.838,2.838,2.838c0.516,0,0.946-0.086,1.29-0.258h16.083c0.43,0.344,1.032,0.602,1.806,0.602
			c1.72,0,2.838-1.118,2.838-2.838c0-0.172,0-0.344,0-0.516c0,0,0,0,0-0.086v-0.086C277.801,45.326,232.303,0,176.141,0
			C119.72,0,74.137,45.67,74.137,101.746v26.318c-26.834,6.622-46.788,30.876-46.788,59.689v102.865
			c0,33.801,27.609,61.495,61.495,61.495H263.61c33.801,0,61.495-27.35,61.151-61.495V187.753
			C324.675,153.867,297.067,126.258,263.18,126.258z M79.641,101.746h0.086c0-52.98,43.089-96.156,96.414-96.156
			c52.121,0,94.522,41.283,96.328,93.06h-13.589c-1.892-43.95-38.187-79.213-82.48-79.213c-45.669,0-82.911,36.897-82.911,82.566
			v24.254h-4.816c-3.096,0-6.107,0.258-9.031,0.688V101.746z M318.999,290.618c0,30.704-25.114,55.818-55.818,55.818H88.672
			c-30.704,0-55.818-25.114-55.818-55.818V187.753c0-30.704,25.114-55.818,55.818-55.818H263.18
			c30.704,0,55.818,25.114,55.818,55.818V290.618z"/>
	</g>
</g>
<g>
	<g>
		<path d="M200.911,222.415c0-2.494-0.602-4.472-0.86-6.193c-0.258-0.602-0.258-1.118-0.602-1.72l-0.258-0.602
			c-0.602-1.376-2.236-2.236-3.698-1.72c-1.376,0.602-2.236,2.236-1.72,3.698l0.258,0.602c0,0.258,0.258,0.86,0.258,1.118
			c0.602,1.376,0.86,3.097,0.86,4.816c0,8.171-4.816,15.223-12.127,17.718c-1.118,0.258-1.978,1.376-1.978,2.494v37.757h-8.171
			v-37.757c0-1.376-0.86-2.494-1.978-2.838c-8.773-2.236-12.987-7.913-12.987-17.46c0-10.751,7.913-18.921,18.062-18.921
			c3.354,0,6.794,0.86,9.547,2.494c1.376,0.86,3.096,0.602,3.956-0.86c0.86-1.376,0.602-3.097-0.86-3.956
			c-3.698-2.236-7.913-3.355-12.385-3.355c-13.245,0-23.652,10.751-23.652,24.512c0,11.267,5.075,18.921,14.965,22.276v38.617
			c0,1.72,1.118,2.838,2.838,2.838h13.847c1.72,0,2.838-1.118,2.494-2.58v-38.875C195.32,240.734,200.911,231.961,200.911,222.415z"
			/>
	</g>
</g>
<g>
	<g>
		<path d="M263.18,156.705c-1.72,0-2.838,1.118-2.838,2.838s1.118,2.838,2.838,2.838c14.105,0,25.63,11.525,25.63,25.63v102.865
			c0,14.105-11.009,25.372-25.114,25.372H89.274c-14.363,0-25.974-11.267-25.974-25.372V188.012c0-13.847,11.869-25.63,25.974-25.63
			h153.093c1.72,0,2.838-1.118,2.838-2.838s-1.118-2.838-2.838-2.838H89.274c-17.46,0-31.564,14.105-31.564,31.306v102.865
			c0,17.201,14.105,31.048,31.564,31.048h174.509c17.201,0,30.704-13.503,30.704-31.048V188.011
			C294.487,170.81,280.381,156.705,263.18,156.705z"/>
	</g>
</g>
<g>
</g>
<g>
</g>
<g>
</g>
<g>
</g>
<g>
</g>
<g>
</g>
<g>
</g>
<g>
</g>
<g>
</g>
<g>
</g>
<g>
</g>
<g>
</g>
<g>
</g>
<g>
</g>
<g>
</g>
</svg>
