<?xml version="1.0" encoding="iso-8859-1"?>
<!-- Generator: Adobe Illustrator 19.0.0, SVG Export Plug-In . SVG Version: 6.00 Build 0)  -->
<svg version="1.1" id="Layer_1" xmlns="http://www.w3.org/2000/svg" xmlns:xlink="http://www.w3.org/1999/xlink" x="0px" y="0px"
	 viewBox="0 0 352.37 352.37" style="enable-background:new 0 0 352.37 352.37;" xml:space="preserve">
<g>
	<g>
		<path d="M177.003,126.86c-36.725,0-66.57,29.845-66.57,66.57c0,36.639,29.845,66.57,66.57,66.57
			c36.725,0,66.311-29.931,66.57-66.57C243.572,156.791,213.728,126.86,177.003,126.86z M177.089,254.323
			c-33.543,0-60.893-27.351-60.893-60.893c0-33.542,27.35-60.893,60.893-60.893c33.543,0,60.893,27.35,60.893,60.893
			C237.982,226.973,210.632,254.323,177.089,254.323z"/>
	</g>
</g>
<g>
	<g>
		<path d="M215.62,154.555c-7.052-7.052-15.825-11.869-25.114-14.363c-1.376-0.602-3.096,0.602-3.355,1.978
			c-0.516,1.376,0.602,3.096,1.978,3.354c8.429,2.236,16.341,6.794,22.534,12.987c0.602,0.602,1.118,0.86,1.978,0.86
			c0.86,0,1.376-0.258,1.978-0.86C216.738,157.393,216.738,155.673,215.62,154.555z"/>
	</g>
</g>
<g>
	<g>
		<path d="M325.02,42.66H27.609C12.987,42.66,0,56.163,0,71.73v235.143c0,1.72,1.118,2.838,2.838,2.838h346.695
			c1.72,0,2.838-1.376,2.838-2.838V71.73C352.371,56.163,339.728,42.66,325.02,42.66z M80.331,303.949H52.035l34.231-32.167
			l11.868,11.869l-17.201,18.921C80.589,303.003,80.417,303.432,80.331,303.949z M111.551,243.744
			c4.3,5.591,9.289,10.665,14.879,14.965l-1.806,1.806c-3.698,3.698-9.891,3.698-13.503,0l-1.376-1.376
			c-3.698-3.698-3.698-9.891,0-13.503L111.551,243.744z M100.112,193.43c0-42.574,34.661-76.977,76.976-76.977
			c42.316,0,76.977,34.403,76.977,76.977c0,42.574-34.403,76.976-76.977,76.976C134.515,270.406,100.112,236.004,100.112,193.43z
			 M107.079,264.472c0.688,0.688,1.376,1.29,2.15,1.806l-10.063,10.063l-5.677-5.677l10.149-10.149
			c0.688,0.946,1.29,1.806,2.064,2.58L107.079,264.472z M346.781,303.949L346.781,303.949H87.297l17.115-18.577
			c1.118-1.118,1.118-2.838,0-3.956l-1.118-1.118l11.611-11.611c1.032,0.258,2.064,0.344,3.01,0.344
			c4.214,0,8.171-1.376,10.751-4.472l2.408-2.408c13.159,8.859,28.984,14.019,46.014,14.019c45.412,0,82.566-36.897,82.566-82.566
			s-36.897-82.566-82.566-82.566s-82.566,36.897-82.566,82.566c0,16.943,5.075,32.597,13.761,45.67l-2.494,2.494
			c-3.612,3.612-4.989,8.601-4.214,13.245L89.705,266.88l-0.86-0.86c-1.118-1.118-2.838-1.118-3.956,0L45.67,302.917
			c-0.344,0.344-0.516,0.688-0.688,1.118H5.677V83.857h327.257c1.72,0,2.839-1.118,2.839-2.838s-1.118-2.838-2.839-2.838H5.677
			v-6.45c0-12.386,10.407-23.395,22.018-23.395h297.413c11.525,0,21.674,11.009,21.674,23.394V303.949z"/>
	</g>
</g>
<g>
	<g>
		<path d="M26.834,64.075c-1.204-1.118-2.838-1.118-3.956,0c-0.602,0.602-0.86,1.118-0.86,1.978c0,0.602,0.258,1.376,0.86,1.978
			c0.602,0.602,1.118,0.86,1.978,0.86s1.376-0.258,1.978-0.86c0.602-0.602,0.86-1.376,0.86-1.978S27.436,64.677,26.834,64.075z"/>
	</g>
</g>
<g>
	<g>
		<path d="M40.595,64.075c-1.118-1.118-2.838-1.118-3.956,0c-0.602,0.602-0.86,1.118-0.86,1.978c0,0.602,0.258,1.376,0.86,1.978
			c0.602,0.602,1.118,0.86,1.978,0.86s1.376-0.258,1.978-0.86c0.602-0.602,0.86-1.376,0.86-1.978S41.197,64.677,40.595,64.075z"/>
	</g>
</g>
<g>
	<g>
		<path d="M54.443,64.075c-1.118-1.118-2.839-1.118-3.956,0c-0.602,0.602-0.86,1.376-0.86,1.978s0.258,1.376,0.86,1.978
			c0.602,0.602,1.118,0.86,1.978,0.86c0.602,0,1.376-0.258,1.978-0.86c0.602-0.602,0.86-1.376,0.86-1.978
			S55.044,64.677,54.443,64.075z"/>
	</g>
</g>
<g>
</g>
<g>
</g>
<g>
</g>
<g>
</g>
<g>
</g>
<g>
</g>
<g>
</g>
<g>
</g>
<g>
</g>
<g>
</g>
<g>
</g>
<g>
</g>
<g>
</g>
<g>
</g>
<g>
</g>
</svg>
