<?xml version="1.0" encoding="iso-8859-1"?>
<!-- Generator: Adobe Illustrator 19.0.0, SVG Export Plug-In . SVG Version: 6.00 Build 0)  -->
<svg version="1.1" id="Layer_1" xmlns="http://www.w3.org/2000/svg" xmlns:xlink="http://www.w3.org/1999/xlink" x="0px" y="0px"
	 viewBox="0 0 352.263 352.263" style="enable-background:new 0 0 352.263 352.263;" xml:space="preserve">
<g>
	<g>
		<path d="M319.521,32.575c-43.433-43.433-114.131-43.433-157.565,0c-38.187,38.187-42.745,97.618-13.761,140.879l-2.064,2.064
			c-5.763,5.763-7.311,14.105-4.644,21.243l-20.642,20.642l-2.15-2.15c-1.118-1.118-2.838-1.118-3.956,0L6.198,317.258
			c-7.913,8.171-7.913,21.157,0,29.07c3.698,3.698,9.03,5.935,14.363,5.935c5.333,0,10.407-2.236,14.621-5.935l102.004-108.541
			c1.118-1.118,1.118-2.838,0-3.956l-2.666-2.666l20.728-20.728c2.408,0.946,4.902,1.376,7.311,1.376
			c5.075,0,10.149-1.978,14.105-5.935l1.892-1.892c18.749,12.557,40.509,18.835,62.097,18.835c28.726,0,57.195-11.009,78.611-32.683
			C362.869,146.706,362.869,76.008,319.521,32.575z M30.796,342.115c-2.838,2.838-6.45,4.214-10.407,4.214
			s-7.569-1.376-10.407-4.214c-4.989-4.988-5.591-13.159-1.634-18.835l12.041,12.041c0.602,0.602,1.118,0.86,1.978,0.86
			s1.376-0.258,1.978-0.86c1.118-1.118,1.118-2.838,0-3.956L12.132,319.15l104.412-98.048l14.363,14.363L30.796,342.115z
			 M130.736,227.209l-5.935-5.935l19.437-19.438c0.516,0.774,1.118,1.462,1.806,2.15l2.236,1.978c0.602,0.602,1.29,1.204,1.978,1.72
			L130.736,227.209z M172.879,202.009c-5.677,5.677-14.965,5.677-20.556,0l-2.236-1.978c-5.677-5.677-5.677-14.965,0-20.556
			l1.376-1.376c3.183,4.214,6.622,8.257,10.493,12.127c3.87,3.87,7.999,7.397,12.213,10.579L172.879,202.009z M315.565,186.183
			c-36.553,36.553-93.662,40.595-134.859,12.299c-0.086-0.086-0.086-0.172-0.172-0.258c-0.344-0.344-0.688-0.516-1.118-0.688
			c-4.73-3.354-9.289-7.139-13.503-11.439c-41.197-41.197-41.197-108.541,0-149.652c20.9-20.556,47.907-31.049,74.999-31.049
			c27.35,0,54.443,10.407,74.74,31.048C356.676,77.643,356.676,145.072,315.565,186.183z"/>
	</g>
</g>
<g>
	<g>
		<path d="M303.611,75.664c-13.245-23.394-38.359-37.241-65.365-36.123c-1.72,0-2.838,1.118-2.838,2.838s1.203,2.839,2.923,2.839
			c24.77-1.118,47.906,11.525,60.291,33.285c0.602,0.86,1.72,1.376,2.494,1.376c0.258,0,0.86-0.258,1.376-0.258
			C303.869,78.761,304.471,77.127,303.611,75.664z"/>
	</g>
</g>
<g>
	<g>
		<path d="M240.825,21.652c-49.626,0-89.619,40.337-89.619,89.619c0,49.626,40.337,89.619,89.619,89.619
			c38.703,0,71.558-24.34,84.201-58.657c0.172-0.344,0.344-0.688,0.344-1.032c3.268-9.374,5.075-19.438,5.075-29.931
			C330.444,61.645,290.451,21.652,240.825,21.652z M240.825,195.473c-34.403,0-64.075-20.9-77.062-50.658l36.639-36.639l8.858,8.859
			l9.891,9.891c0.602,0.602,1.118,0.86,1.978,0.86c0.602,0,1.376-0.258,1.978-0.86c1.118-1.118,1.118-2.838,0-3.956l-7.913-7.913
			l17.373-17.373l29.501,29.501l9.547,9.547c0.602,0.602,1.118,0.86,1.978,0.86c0.602,0,1.376-0.258,1.978-0.86
			c1.118-1.118,1.118-2.838,0-3.956l-7.569-7.569l17.632-17.632l33.801,33.801C307.136,173.025,276.517,195.473,240.825,195.473z
			 M321.327,135.611l-33.973-33.973c-1.118-1.118-2.838-1.118-3.956,0c-0.258,0.258-0.43,0.602-0.602,0.86l-18.835,18.835
			l-28.726-28.726c-0.172-0.344-0.344-0.602-0.602-0.86c-0.602-0.602-1.376-0.86-2.15-0.86s-1.548,0.258-2.15,0.86
			c-0.258,0.258-0.43,0.602-0.602,0.86l-18.577,18.577l-8.773-8.773c-0.602-0.602-1.376-0.86-2.15-0.86s-1.548,0.258-2.15,0.86
			l-36.725,36.725c-3.01-8.687-4.73-17.976-4.73-27.695c0.257-46.185,38.014-83.942,84.2-83.942
			c46.53,0,84.029,37.499,84.029,84.029C324.854,119.872,323.649,127.956,321.327,135.611z"/>
	</g>
</g>
<g>
	<g>
		<path d="M265.079,68.956c-7.569,0-13.847,6.193-13.847,13.847c0,7.569,6.193,13.847,13.847,13.847s14.105-6.193,13.847-13.847
			C278.926,75.149,272.733,68.956,265.079,68.956z M273.25,82.459c0,4.472-3.698,8.171-8.171,8.171
			c-4.472,0-8.171-3.698-8.171-8.171c0-4.472,3.698-8.171,8.171-8.171C269.637,74.288,273.507,78.245,273.25,82.459z"/>
	</g>
</g>
<g>
</g>
<g>
</g>
<g>
</g>
<g>
</g>
<g>
</g>
<g>
</g>
<g>
</g>
<g>
</g>
<g>
</g>
<g>
</g>
<g>
</g>
<g>
</g>
<g>
</g>
<g>
</g>
<g>
</g>
</svg>
