<?xml version="1.0" encoding="iso-8859-1"?>
<!-- Generator: Adobe Illustrator 19.0.0, SVG Export Plug-In . SVG Version: 6.00 Build 0)  -->
<svg version="1.1" id="Layer_1" xmlns="http://www.w3.org/2000/svg" xmlns:xlink="http://www.w3.org/1999/xlink" x="0px" y="0px"
	 viewBox="0 0 352.629 352.629" style="enable-background:new 0 0 352.629 352.629;" xml:space="preserve">
<g>
	<g>
		<path d="M272.212,111.982c-1.118-1.205-2.838-1.463-3.956-0.345l-16.685,14.707c-2.322-1.806-5.247-2.838-8.429-2.838
			c-7.569,0-13.847,6.193-13.847,13.847c0,7.569,6.193,13.847,13.847,13.847s13.847-6.193,13.847-13.847
			c0-2.408-0.602-4.73-1.72-6.708l16.685-14.707C273.072,114.82,273.33,113.1,272.212,111.982z M243.228,145.782
			c-4.472,0-8.171-3.698-8.171-8.171c0-4.472,3.698-8.171,8.171-8.171c2.064,0,3.956,0.774,5.419,2.064
			c0.086,0.258,0.258,0.516,0.516,0.774c0.172,0.172,0.344,0.344,0.602,0.43c1.032,1.376,1.634,3.097,1.634,4.902
			C251.398,142.084,247.7,145.782,243.228,145.782z"/>
	</g>
</g>
<g>
	<g>
		<path d="M223.188,127.462l-18.491-7.139c0.086-0.688,0.172-1.376,0.172-2.15c0-7.569-6.192-13.847-13.847-13.847
			c-7.569,0-13.847,6.193-13.847,13.847c0,7.569,6.192,13.847,13.847,13.847c4.816,0,9.116-2.494,11.611-6.364l18.577,7.139
			c0.602,0.258,0.86,0.258,1.118,0.258c1.118,0,2.236-0.86,2.494-1.978C225.424,129.699,224.564,127.979,223.188,127.462z
			 M198.935,120.066c-0.258,0.258-0.516,0.602-0.602,0.946c-0.172,0.344-0.172,0.774-0.172,1.118
			c-1.377,2.493-4.043,4.214-7.139,4.214c-4.472,0-8.171-3.698-8.171-8.171c0-4.472,3.698-8.171,8.171-8.171
			c4.472,0,8.171,3.698,8.171,8.171C199.193,118.862,199.107,119.464,198.935,120.066z"/>
	</g>
</g>
<g>
	<g>
		<path d="M240.906,0c-61.753,0-111.637,49.884-111.637,111.637c0,23.05,6.966,44.466,19.007,62.183l-2.064,2.064
			c-5.763,5.763-7.311,14.105-4.644,21.243l-20.728,20.728l-2.236-2.236c-1.118-1.118-2.838-1.118-3.956,0L6.106,317.624
			c-7.913,8.171-7.913,21.157,0,29.07c3.956,3.956,9.03,5.935,14.363,5.935c5.333,0,10.751-1.978,14.621-5.935l102.004-108.541
			c1.118-1.118,1.118-2.838,0-3.956l-2.494-2.494l20.814-20.814c2.408,0.946,4.902,1.376,7.311,1.376
			c5.075,0,10.149-1.978,14.105-5.935l1.978-1.978c17.804,11.869,39.133,18.835,62.011,18.835
			c61.753,0,111.637-49.884,111.637-111.637C352.543,49.884,302.659,0,240.906,0z M30.876,342.566c-5.677,5.677-15.223,5.677-20.9,0
			c-4.989-4.989-5.591-13.159-1.634-18.835l12.041,12.041c0.602,0.602,1.118,0.86,1.978,0.86s1.376-0.258,1.978-0.86
			c1.118-1.118,1.118-2.839,0-3.956l-12.213-12.213l104.412-98.048l14.363,14.363L30.876,342.566z M130.731,227.833l-3.01-3.01
			l-2.924-2.924l19.61-19.61c0.516,0.774,1.118,1.462,1.806,2.15l2.236,1.978c0.602,0.602,1.29,1.204,1.978,1.72L130.731,227.833z
			 M172.96,202.46c-5.677,5.677-14.965,5.677-20.556,0l-2.236-1.978c-5.677-5.677-5.677-14.965,0-20.556l1.376-1.376
			c6.45,8.601,14.105,16.255,22.706,22.706L172.96,202.46z M240.906,217.942c-22.19,0-42.832-6.88-59.861-18.491
			c-0.086-0.258-0.258-0.43-0.43-0.602c-0.43-0.43-1.032-0.688-1.548-0.774c-9.461-6.88-17.804-15.223-24.598-24.77
			c-0.172-0.344-0.344-0.688-0.602-0.946c-11.869-17.115-18.835-37.929-18.835-60.291c0-58.657,47.648-105.961,105.961-105.961
			c58.657,0,105.961,47.39,105.961,105.961C346.952,170.552,299.563,217.942,240.906,217.942z"/>
	</g>
</g>
<g>
	<g>
		<path d="M240.906,22.018c-49.626,0-89.619,40.337-89.619,89.619c0,49.626,40.337,89.619,89.619,89.619
			c49.626,0,89.619-39.994,89.619-89.619S290.532,22.018,240.906,22.018z M240.906,195.924c-36.381,0-67.516-23.394-79.127-55.818
			c0.43,0,0.86-0.086,1.29-0.516l10.149-6.45c1.376-0.86,1.72-2.494,0.86-3.956c-0.86-1.462-2.494-1.72-3.956-0.86l-10.063,6.45
			c-2.064-7.224-3.182-14.879-3.182-22.792c0-46.272,37.757-84.029,84.029-84.029c36.467,0,67.429,23.136,79.041,55.56
			l-21.158,8.171c-2.494-3.87-6.794-6.45-11.611-6.45c-7.569,0-13.847,6.192-13.847,13.847c0,7.569,6.193,13.847,13.847,13.847
			s13.847-6.193,13.847-13.847c0-0.688-0.086-1.376-0.172-2.064l20.986-7.999c2.064,7.311,3.183,15.051,3.183,23.05
			C324.934,158.167,287.178,195.924,240.906,195.924z M295.348,98.994c0,4.472-3.698,8.171-8.171,8.171s-8.171-3.698-8.171-8.171
			s3.698-8.171,8.171-8.171c3.354,0,6.193,1.978,7.483,4.902c0,0.172,0.086,0.344,0.086,0.43c0.086,0.172,0.172,0.344,0.258,0.516
			C295.176,97.446,295.348,98.22,295.348,98.994z"/>
	</g>
</g>
<g>
	<g>
		<path d="M303.692,76.374c-13.245-23.652-38.359-37.499-65.365-36.381c-1.72,0-2.838,1.118-2.838,2.838s1.203,2.839,2.923,2.839
			c24.77-1.118,47.906,11.525,60.291,33.285c0.602,0.86,1.72,1.376,2.494,1.376c0.258,0,0.86-0.258,1.376,0
			C303.95,79.471,304.551,77.836,303.692,76.374z"/>
	</g>
</g>
<g>
</g>
<g>
</g>
<g>
</g>
<g>
</g>
<g>
</g>
<g>
</g>
<g>
</g>
<g>
</g>
<g>
</g>
<g>
</g>
<g>
</g>
<g>
</g>
<g>
</g>
<g>
</g>
<g>
</g>
</svg>
