<?xml version="1.0" encoding="iso-8859-1"?>
<!-- Generator: Adobe Illustrator 19.0.0, SVG Export Plug-In . SVG Version: 6.00 Build 0)  -->
<svg version="1.1" id="Layer_1" xmlns="http://www.w3.org/2000/svg" xmlns:xlink="http://www.w3.org/1999/xlink" x="0px" y="0px"
	 viewBox="0 0 352.457 352.457" style="enable-background:new 0 0 352.457 352.457;" xml:space="preserve">
<g>
	<g>
		<path d="M351.253,57.754c-0.86-0.602-1.72-0.86-2.494-0.602L234.111,84.847L120.496,30.834c-0.688-0.602-1.72-0.946-2.666-0.688
			L2.236,57.238C0.86,57.496,0,58.614,0,60.076v231.961c0,0.86,0.602,1.72,1.118,2.236c0.602,0.258,1.118,0.602,1.72,0.602
			c0.258,0,0.602,0,0.86,0l114.303-27.35l114.905,54.615c0.258,0.258,0.86,0.258,1.118,0.258s0.602,0,0.602,0l115.594-27.609
			c1.376-0.258,2.236-1.376,2.236-2.838V59.991C352.371,59.216,351.855,58.356,351.253,57.754z M236.863,316.034V129.398
			c0-1.72-1.118-2.838-2.838-2.838c-1.72,0-2.838,1.118-2.838,2.838v185.861l-109.659-52.121v-24.168
			c2.064-0.086,4.128-0.258,6.192-0.43c1.376-0.258,2.494-1.978,2.236-3.354c-0.258-1.376-1.978-2.494-3.354-2.236
			c-1.634,0.258-3.355,0.43-5.075,0.516V68.849c0-1.72-1.118-2.838-2.838-2.838c-1.72,0-2.838,1.118-2.838,2.838v164.704
			c-0.774,0-1.548,0-2.236-0.086c-1.72,0-3.096,0.86-3.096,2.494c-0.258,1.72,0.86,3.097,2.494,3.097c0.86,0,1.806,0,2.838,0v23.136
			L5.935,288.425V62.055l109.659-25.63v13.245c0,1.72,1.118,2.838,2.838,2.838s2.838-1.376,2.838-2.838V37.457l109.917,52.292
			v17.718c0,1.72,1.118,2.838,2.838,2.838c1.72,0,2.838-1.376,2.838-2.838v-17.46l109.917-26.49l0.001,226.285L236.863,316.034z"/>
	</g>
</g>
<g>
	<g>
		<path d="M306.271,203.02l15.224-15.224c3.096-3.354,3.354-8.773,0-11.869s-8.773-3.097-11.869,0l-15.223,15.223l-14.965-14.965
			c-3.183-3.096-8.515-3.096-11.612,0.001c-1.72,1.72-2.494,3.698-2.494,5.935s0.86,4.214,2.494,5.935l14.965,14.965l-14.965,14.965
			c-1.72,1.72-2.494,3.698-2.494,5.935c0,2.236,0.86,4.214,2.494,5.935c3.354,3.097,8.773,3.097,11.869,0l14.965-14.965
			l14.965,14.965c1.72,1.72,3.698,2.494,5.935,2.494c2.236,0,4.214-0.602,5.677-2.494c1.72-1.72,2.494-3.698,2.494-5.935
			c0-2.236-0.86-4.214-2.494-5.935L306.271,203.02z M317.28,225.898c-0.86,1.118-2.494,1.118-3.698,0l-16.943-16.943
			c-0.602-0.602-1.118-0.86-1.978-0.86c-0.86,0-1.376,0.258-1.978,1.118l-16.943,16.943c-0.86,1.118-2.494,1.118-3.698,0
			c-0.602-0.602-0.86-1.118-0.86-1.978c0-0.86,0.258-1.376,0.86-1.978l16.943-16.943c0.602-0.602,0.86-1.118,0.86-1.978
			c0-0.86-0.258-1.376-0.86-1.978l-16.943-16.943c-0.602-0.602-0.86-1.118-0.86-1.978s0.258-1.376,0.86-1.978
			c0.86-1.119,2.581-1.119,3.698-0.001l16.943,16.943c1.118,1.118,2.838,1.118,3.956,0l17.201-17.201
			c0.86-1.118,2.494-1.118,3.698,0c1.118,0.86,1.118,2.494,0,3.698l-17.201,17.201c-1.118,1.118-1.118,2.838,0,3.956l16.943,16.943
			c0.602,0.602,0.86,1.376,0.86,1.978C318.139,224.779,317.882,225.296,317.28,225.898z"/>
	</g>
</g>
<g>
	<g>
		<path d="M57.797,76.934c-1.72,0-2.838,1.118-2.838,2.838v7.052c0,1.721,1.118,2.839,2.838,2.839c1.376,0,2.838-1.118,2.838-2.838
			v-7.053C60.635,78.051,59.516,76.934,57.797,76.934z"/>
	</g>
</g>
<g>
	<g>
		<path d="M100.37,230.887c-4.214-1.376-8.429-3.097-12.127-5.333c-1.376-0.602-3.354-0.258-3.956,1.118
			c-0.602,1.376-0.258,3.097,1.118,3.956c4.214,2.494,8.773,4.472,13.245,5.935c0.258,0,0.602,0,0.86,0
			c1.118,0,2.236-0.86,2.838-2.236C102.606,232.864,101.746,231.403,100.37,230.887z"/>
	</g>
</g>
<g>
	<g>
		<path d="M154.211,223.318c-0.86-1.205-2.839-1.463-3.956-0.603c-3.355,2.494-7.311,4.817-11.267,6.45
			c-1.376,0.602-1.978,2.236-1.376,3.698c0.258,1.118,1.376,1.72,2.494,1.72c0.258,0,0.602,0,1.118-0.258
			c4.214-1.72,8.429-4.214,12.385-7.052C154.727,226.415,154.985,224.437,154.211,223.318z"/>
	</g>
</g>
<g>
	<g>
		<path d="M63.99,195.968c-1.376-3.957-2.237-8.515-2.839-12.73c-0.258-1.72-1.376-2.838-3.096-2.494
			c-1.72,0.344-2.838,1.72-2.494,3.097c0.258,4.816,1.376,9.547,3.096,14.105c0.258,1.118,1.376,1.978,2.494,1.978
			c0.258,0,0.602-0.258,1.118-0.258C63.646,199.064,64.506,197.43,63.99,195.968z"/>
	</g>
</g>
<g>
	<g>
		<path d="M78.095,217.899c-3.354-3.096-6.193-6.45-8.429-10.149c-0.86-1.376-2.494-1.72-3.956-0.86
			c-1.376,0.86-1.72,2.494-0.86,3.956c2.838,3.956,5.935,7.569,9.289,11.009c0.602,0.602,1.376,0.86,1.978,0.86
			s1.376-0.258,1.978-0.86C79.213,220.737,79.213,219.018,78.095,217.899z"/>
	</g>
</g>
<g>
	<g>
		<path d="M183.281,148.32c-1.376-0.602-3.096,0-3.698,1.376c-1.978,4.214-3.698,8.772-4.816,13.503
			c-0.258,1.376,0.86,3.097,2.236,3.355c0.258,0,0.258,0,0.602,0c1.376,0,2.494-0.86,2.494-2.236
			c1.118-4.214,2.494-8.429,4.472-12.385C185.259,150.556,184.657,148.835,183.281,148.32z"/>
	</g>
</g>
<g>
	<g>
		<path d="M202.117,128.28c-0.86-1.118-2.838-1.462-3.956-0.602c-3.956,2.838-7.311,6.192-10.407,9.891
			c-1.118,1.118-0.86,2.838,0.258,3.956c0.258,0.258,1.118,0.602,1.72,0.602c0.86,0,1.72-0.258,2.236-0.86
			c2.838-3.354,6.192-6.45,9.547-9.03C202.633,131.377,202.891,129.399,202.117,128.28z"/>
	</g>
</g>
<g>
	<g>
		<path d="M57.797,152.964c-1.72,0-2.838,1.118-2.838,2.838v13.847c0,1.72,1.118,2.838,2.838,2.838c1.376,0,2.838-1.118,2.838-2.838
			v-13.847C60.635,154.082,59.516,152.964,57.797,152.964z"/>
	</g>
</g>
<g>
	<g>
		<path d="M171.154,201.816c-1.118-0.86-2.838-0.258-3.698,1.118c-1.978,3.956-4.472,7.569-7.311,11.009
			c-1.118,1.118-0.86,2.838,0.258,3.956c0.258,0.258,1.118,0.602,1.72,0.602c0.86,0,1.72-0.602,2.236-1.118
			c3.097-3.698,5.677-7.569,7.913-11.869C173.132,204.396,172.53,202.676,171.154,201.816z"/>
	</g>
</g>
<g>
	<g>
		<path d="M176.487,174.81c-1.376,0-2.838,1.376-2.838,2.838c0,4.214-0.602,8.773-1.72,12.987c-0.602,1.376,0.602,3.097,1.978,3.354
			c0,0,0.258,0,0.602,0c1.376,0,2.494-0.86,3.096-1.978c1.118-4.816,1.72-9.547,1.72-14.363
			C179.325,176.186,178.206,174.81,176.487,174.81z"/>
	</g>
</g>
<g>
	<g>
		<path d="M277.975,131.118c-3.354-3.097-7.311-6.192-11.525-8.429c-1.376-0.602-3.096-0.258-3.956,1.118
			c-0.602,1.376-0.343,3.011,1.118,3.87c3.698,2.236,7.311,4.816,10.407,7.913c0.602,0.602,1.376,0.86,1.978,0.86
			c0.602,0,1.376-0.258,2.236-1.376S279.092,132.236,277.975,131.118z"/>
	</g>
</g>
<g>
	<g>
		<path d="M293.714,155.544c-1.72-4.472-3.698-9.03-6.45-12.987c-0.86-1.376-2.494-1.72-3.956-0.86
			c-1.376,0.86-1.72,2.494-0.86,3.956c2.322,3.784,4.558,7.397,5.934,11.61c0.258,1.376,1.376,1.978,2.494,1.978
			c0.602,0,0.86,0,1.118,0C293.37,158.64,294.23,157.006,293.714,155.544z"/>
	</g>
</g>
<g>
	<g>
		<path d="M252.516,117.614c-4.472-1.118-9.289-1.978-14.105-2.236c-1.29-0.343-2.407,1.032-2.751,2.495
			c-0.258,1.376,0.86,2.838,2.494,2.838c4.472,0.258,8.773,1.118,12.987,2.236c0.258,0,0.602,0,0.86,0
			c1.376,0,2.494-0.602,2.494-1.978C254.752,119.593,253.893,118.131,252.516,117.614z"/>
	</g>
</g>
<g>
	<g>
		<path d="M227.66,118.475c-0.171-1.462-1.806-2.58-3.268-2.322c-4.816,0.86-9.289,2.236-13.847,4.214
			c-1.376,0.602-1.978,2.236-1.376,3.698c0.258,1.118,1.376,1.72,2.494,1.72c0.258,0,0.602,0,1.376,0
			c3.956-1.978,8.171-3.097,12.385-3.956C226.8,121.571,227.918,119.851,227.66,118.475z"/>
	</g>
</g>
<g>
	<g>
		<path d="M57.797,97.748c-1.72,0-2.838,1.118-2.838,2.838v13.847c0,1.72,1.118,2.838,2.838,2.838c1.376,0,2.838-1.118,2.838-2.838
			v-13.847C60.635,98.866,59.516,97.748,57.797,97.748z"/>
	</g>
</g>
<g>
	<g>
		<path d="M57.797,125.356c-1.72,0-2.838,1.118-2.838,2.838v13.847c0,1.72,1.118,2.838,2.838,2.838c1.376,0,2.838-1.118,2.838-2.838
			v-13.847C60.635,126.474,59.516,125.356,57.797,125.356z"/>
	</g>
</g>
<g>
	<g>
		<path d="M297.068,169.735c-0.258-1.72-1.72-2.838-3.096-2.494c-1.634,0.173-2.752,1.634-2.494,3.011
			c0.258,2.236,0.258,4.472,0.258,6.794c0,1.72,1.118,2.838,2.838,2.838c1.72,0,2.838-1.118,3.096-2.838
			C297.67,174.552,297.412,172.229,297.068,169.735z"/>
	</g>
</g>
<g>
</g>
<g>
</g>
<g>
</g>
<g>
</g>
<g>
</g>
<g>
</g>
<g>
</g>
<g>
</g>
<g>
</g>
<g>
</g>
<g>
</g>
<g>
</g>
<g>
</g>
<g>
</g>
<g>
</g>
</svg>
