<?xml version="1.0" encoding="iso-8859-1"?>
<!-- Generator: Adobe Illustrator 19.0.0, SVG Export Plug-In . SVG Version: 6.00 Build 0)  -->
<svg version="1.1" id="Layer_1" xmlns="http://www.w3.org/2000/svg" xmlns:xlink="http://www.w3.org/1999/xlink" x="0px" y="0px"
	 viewBox="0 0 352.458 352.458" style="enable-background:new 0 0 352.458 352.458;" xml:space="preserve">
<g>
	<g>
		<path d="M351.167,57.797c-0.86-0.602-1.72-0.86-2.494-0.602L234.025,84.631L120.238,30.533c-0.516-0.43-1.118-0.602-1.892-0.602
			c-1.118,0-1.978,0.516-2.408,1.29L2.236,57.281C0.86,57.539,0,58.657,0,60.119v231.961c0,0.86,0.602,1.72,1.118,2.236
			c0.602,0.258,1.118,0.602,1.72,0.602c0.258,0,0.602,0,0.602,0.258l115.25-27.522l114.217,54.357
			c0.258,0.258,0.86,0.258,1.118,0.258s0.602,0,0.602,0.258l115.594-27.609c1.376-0.258,2.236-1.376,2.236-2.838V60.119
			C352.285,59.173,351.769,58.313,351.167,57.797z M231.186,314.958l-109.917-52.293v-29.335c1.52,1.432,3.042,2.782,4.731,4.049
			c14.363,11.267,31.564,17.201,49.884,17.201c3.354,0,6.794-0.258,9.891-0.602c12.643-1.72,25.114-6.193,35.521-13.245
			c1.892,3.612,5.763,6.107,9.891,6.45V314.958z M232.219,241.422h-0.602c-3.096,0-5.677-2.494-6.193-5.677
			c0-1.118-0.86-1.978-1.72-2.236c-0.86-0.602-1.978-0.258-2.838,0.258c-10.407,7.913-22.792,12.643-35.779,14.363
			c-3.096,0.258-6.193,0.602-9.289,0.602c-16.943,0-32.683-5.677-46.272-16.083c-21.416-16.599-32.167-43.691-28.21-70.439
			c0.602-3.355,3.354-5.935,6.794-5.935c0.258,0,0.602,0,0.602-0.602c1.978,0.258,3.354,1.376,4.472,2.838
			c0.86,1.376,1.376,3.354,1.118,5.074c-3.01,22.191,5.677,44.122,23.222,57.97c13.245,10.149,29.328,14.621,45.669,12.643
			c10.149-1.118,20.298-5.074,28.726-11.267c0.86-0.86,1.376-1.978,1.118-3.097c-0.258-1.118-1.118-1.72-2.236-1.978
			c-3.698-0.258-6.192-3.354-5.935-7.052c0.258-3.698,3.698-6.45,7.311-6.193l21.674,1.376c1.978,0,3.698,0.86,4.816,2.236
			c1.118,1.376,1.72,3.354,1.72,5.074l-1.376,21.674C238.756,238.67,235.918,241.422,232.219,241.422z M236.777,315.99v-69.752
			c4.3-1.72,7.483-5.763,7.913-10.579l1.376-21.674c0.258-3.354-0.86-6.45-3.096-9.03c-1.978-2.494-5.075-3.956-8.429-4.214
			l-21.674-1.376c-6.794-0.602-12.643,4.817-13.245,11.525c-0.258,4.472,1.72,8.429,5.075,11.009
			c-6.794,4.214-14.105,6.794-22.018,7.569c-14.965,1.72-29.587-2.236-41.455-11.525c-15.825-12.643-23.996-32.683-20.9-52.722
			c0.602-3.354-0.258-6.794-2.236-9.289c-1.978-2.494-4.816-4.214-8.171-4.816c-6.794-1.118-12.987,3.698-14.105,10.407
			c-3.526,24.082,3.956,48.25,19.868,66.139c-0.086,0.258-0.172,0.602-0.172,0.946v34.145L5.591,288.984V62.613l109.917-25.458
			v12.213c0,1.72,1.118,2.838,2.838,2.838s2.838-1.376,2.838-2.838V37.155l109.917,52.293v12.041c0,1.72,1.118,2.838,2.838,2.838
			c1.72,0,2.838-1.118,2.838-2.838V89.705l109.917-26.232l0.001,226.285L236.777,315.99z"/>
	</g>
</g>
<g>
	<g>
		<path d="M226.285,109.401c-27.867-22.018-66.828-23.136-95.812-3.097c-1.806-3.612-5.247-6.278-9.289-6.88V68.548
			c0-1.72-1.118-2.838-2.838-2.838s-2.838,1.118-2.838,2.838v31.306c-4.816,1.548-8.343,5.763-8.773,10.923l-1.376,21.674
			c-0.602,6.794,4.816,12.643,11.525,13.245l21.674,1.376c7.052,0.602,12.643-4.817,13.245-11.525
			c0.258-3.956-1.376-7.913-4.472-10.407c19.696-11.869,45.412-10.407,63.731,3.956c15.482,12.385,23.652,32.425,20.9,52.121
			c-0.602,3.354,0.258,6.794,2.236,9.289c1.978,2.494,4.816,4.214,8.171,4.816c0.602,0,1.118,0,1.72,0
			c6.193,0,11.267-4.472,12.643-11.009C260.688,155.845,248.818,127.119,226.285,109.401z M250.797,183.539
			c-0.602,3.354-3.354,5.935-6.794,5.935c-0.258,0-0.602,0-0.86,0c-1.72-0.258-3.354-1.118-4.472-2.494
			c-1.118-1.376-1.72-3.354-1.376-5.074c3.096-21.674-5.935-43.691-23.136-57.195c-11.009-8.773-24.512-12.987-38.015-12.987
			c-12.643,0-25.63,3.956-35.779,10.751c-0.86,0.602-1.376,1.72-1.118,2.838c0,1.118,0.86,1.978,1.978,2.236
			c3.096,0.86,5.333,3.698,5.075,7.052c-0.258,3.698-3.096,6.45-6.794,6.45c-0.258,0-0.258,0-0.602,0l-21.674-1.376
			c-3.698-0.258-6.45-3.698-6.193-7.311l1.376-21.674c0.258-3.698,3.354-6.45,7.311-6.193c3.354,0.258,5.935,3.097,6.193,6.45
			c0,1.118,0.86,1.978,1.72,2.494c0.86,0.602,1.978,0.258,2.838-0.258c27.092-20.9,65.107-20.556,92.199,0.602
			C243.744,130.215,254.495,156.963,250.797,183.539z"/>
	</g>
</g>
<g>
</g>
<g>
</g>
<g>
</g>
<g>
</g>
<g>
</g>
<g>
</g>
<g>
</g>
<g>
</g>
<g>
</g>
<g>
</g>
<g>
</g>
<g>
</g>
<g>
</g>
<g>
</g>
<g>
</g>
</svg>
