<?xml version="1.0" encoding="iso-8859-1"?>
<!-- Generator: Adobe Illustrator 19.0.0, SVG Export Plug-In . SVG Version: 6.00 Build 0)  -->
<svg version="1.1" id="Layer_1" xmlns="http://www.w3.org/2000/svg" xmlns:xlink="http://www.w3.org/1999/xlink" x="0px" y="0px"
	 viewBox="0 0 352.629 352.629" style="enable-background:new 0 0 352.629 352.629;" xml:space="preserve">
<g>
	<g>
		<path d="M240.862,0c-61.753,0-111.637,50.142-111.637,111.637c0,23.05,6.966,44.466,19.007,62.183l-2.064,2.064
			c-5.763,5.763-7.311,14.105-4.644,21.243l-20.642,20.642l-2.15-2.15c-1.118-1.118-2.838-1.118-3.956,0L6.235,317.624
			c-7.913,8.171-7.913,21.157,0,29.07c3.698,3.698,9.03,5.935,14.363,5.935c5.333,0,10.407-2.236,14.621-5.935l102.004-108.541
			c1.118-1.118,1.118-2.838,0-3.956l-2.666-2.666l20.642-20.642c2.322,0.86,4.816,1.376,7.397,1.376
			c5.333,0,10.407-1.978,13.847-5.935l2.064-2.064c17.804,11.955,39.219,19.007,62.183,19.007
			c61.753,0,111.637-49.884,111.637-111.637C352.5,49.884,302.615,0,240.862,0z M30.833,342.566
			c-2.838,2.838-6.45,4.214-10.407,4.214s-7.569-1.376-10.407-4.214c-4.989-4.989-5.591-13.159-1.634-18.835l12.041,12.041
			c0.602,0.602,1.118,0.86,1.978,0.86s1.376-0.258,1.978-0.86c1.118-1.118,1.118-2.839,0-3.956l-12.213-12.213l104.412-98.048
			l14.363,14.363L30.833,342.566z M130.773,227.661l-5.935-5.935l19.437-19.438c0.516,0.774,1.118,1.462,1.806,2.15l2.236,1.978
			c0.602,0.602,1.29,1.204,1.978,1.72L130.773,227.661z M172.658,202.46c-2.494,2.838-6.192,4.214-10.149,4.214
			c-3.698,0-7.311-1.376-10.149-4.214l-2.236-1.978c-5.677-5.677-5.677-14.965,0-20.556l1.376-1.376
			c6.364,8.515,14.019,16.169,22.534,22.534L172.658,202.46z M240.862,217.942c-22.362,0-43.175-6.88-60.205-18.749
			c-0.086-0.172-0.258-0.344-0.344-0.43c-0.43-0.43-0.86-0.602-1.376-0.774c-9.461-6.794-17.718-15.138-24.426-24.598
			c-0.172-0.43-0.344-0.774-0.688-1.118c-0.086-0.086-0.172-0.172-0.258-0.172c-11.783-17.115-18.663-37.757-18.663-60.119
			c0-58.657,47.648-105.961,105.961-105.961c58.657,0,105.961,47.39,105.961,105.961
			C346.909,170.552,299.519,217.942,240.862,217.942z"/>
	</g>
</g>
<g>
	<g>
		<path d="M240.862,22.018c-49.626,0-89.619,40.337-89.619,89.619c0,49.626,40.337,89.619,89.619,89.619
			c49.626,0,89.619-39.994,89.619-89.619S290.488,22.018,240.862,22.018z M240.862,195.924c-46.272,0-84.029-37.757-84.029-84.029
			c0-46.272,37.757-84.029,84.029-84.029c46.53,0,84.029,37.499,84.029,84.029C324.891,158.167,287.134,195.924,240.862,195.924z"/>
	</g>
</g>
<g>
	<g>
		<path d="M303.733,76.46c-13.245-23.652-38.359-37.499-65.365-36.381c-1.72,0-2.838,1.118-2.838,2.838
			c0,1.72,1.118,2.838,2.838,2.838c24.77-1.118,47.906,11.525,60.291,33.285c0.602,0.86,1.72,1.376,2.494,1.376
			c0.258,0,0.86-0.258,1.376,0C303.991,79.557,304.593,77.836,303.733,76.46z"/>
	</g>
</g>
<g>
	<g>
		<path d="M278.104,134.859l-0.001-68.031c0-0.86-0.602-1.72-1.118-2.236c-0.517-0.516-1.376-0.86-2.236-0.602l-57.797,13.245
			c-1.376,0.258-2.236,1.376-2.236,2.838v60.033c-2.236-1.462-4.816-2.236-7.569-2.236c-7.913,0-14.105,6.45-14.105,14.105
			c0,7.913,6.45,14.105,14.105,14.105c7.569,0,14.105-6.45,14.105-14.105c0-1.806-0.344-3.526-0.946-5.074
			c0.086-0.258,0.086-0.516,0.086-0.86V98.048l52.121-11.783v40.767c-2.236-1.548-4.989-2.408-7.913-2.408
			c-7.913,0-14.105,6.193-14.105,14.105s6.45,14.105,14.105,14.105c7.913,0,14.105-6.193,14.105-14.105
			C278.706,137.353,278.534,136.063,278.104,134.859z M207.061,160.403c-4.816,0-8.429-3.956-8.429-8.429
			c0-4.817,3.956-8.429,8.429-8.429s8.429,3.956,8.429,8.429C215.49,156.791,211.534,160.403,207.061,160.403z M272.427,80.33
			l-52.121,11.869v-9.891l52.121-11.869V80.33z M264.6,147.416c-4.816,0-8.429-3.956-8.429-8.429c0-4.817,3.956-8.429,8.429-8.429
			c4.816,0,8.429,3.698,8.429,8.429C273.029,143.803,269.073,147.416,264.6,147.416z"/>
	</g>
</g>
<g>
</g>
<g>
</g>
<g>
</g>
<g>
</g>
<g>
</g>
<g>
</g>
<g>
</g>
<g>
</g>
<g>
</g>
<g>
</g>
<g>
</g>
<g>
</g>
<g>
</g>
<g>
</g>
<g>
</g>
</svg>
