<?xml version="1.0" encoding="iso-8859-1"?>
<!-- Generator: Adobe Illustrator 19.0.0, SVG Export Plug-In . SVG Version: 6.00 Build 0)  -->
<svg version="1.1" id="Layer_1" xmlns="http://www.w3.org/2000/svg" xmlns:xlink="http://www.w3.org/1999/xlink" x="0px" y="0px"
	 viewBox="0 0 352.37 352.37" style="enable-background:new 0 0 352.37 352.37;" xml:space="preserve">
<g>
	<g>
		<path d="M283.384,0H69.14c-1.72,0-2.838,1.118-2.838,2.838v74.74c0,0.86,0.258,1.72,1.118,2.236l105.961,73.364v34.145
			c-44.122,1.806-79.213,38.015-79.213,82.48c0,45.67,37.241,82.566,82.566,82.566c45.412,0,82.566-36.897,82.566-82.566
			c0-44.896-35.693-81.363-80.33-82.566v-34.145l105.961-73.364c0.602-0.602,1.118-1.376,1.118-2.236V2.752
			C286.223,1.118,285.104,0,283.384,0z M118.509,108.283l-46.53-32.167V5.591h46.53V108.283z M253.798,270.062
			c0,42.574-34.661,76.977-76.976,76.977c-42.574,0-76.977-34.403-76.977-76.977c0-42.574,34.661-76.976,76.976-76.976
			C219.137,193.086,253.798,227.489,253.798,270.062z M280.631,76.117h-0.085v-0.001l-104.326,72.16l-52.121-36.123V5.591h104.326
			v76.976c0,1.72,1.118,2.838,2.838,2.838c1.376,0,2.838-1.376,2.838-2.838V5.591h46.53V76.117z"/>
	</g>
</g>
<g>
	<g>
		<path d="M217.675,246.41c-0.86-1.376-2.494-1.978-3.956-1.118c-1.462,0.86-1.978,2.494-1.118,3.956
			c3.354,6.193,5.333,13.245,5.333,20.556c0,22.792-18.577,41.197-41.197,41.197c-22.792,0-41.197-18.577-41.197-41.197
			c0-22.792,18.577-41.197,41.197-41.197c7.311,0,14.363,1.978,20.556,5.677c1.376,0.602,3.096,0.258,3.956-1.118
			c0.602-1.376,0.258-3.097-1.118-3.956c-7.052-3.956-15.223-6.193-23.394-6.193c-25.802-0.086-46.702,21.072-46.702,46.788
			c0,25.974,21.157,46.788,46.788,46.788c25.63,0,46.788-20.9,47.046-46.788C223.867,261.633,221.889,253.463,217.675,246.41z"/>
	</g>
</g>
<g>
</g>
<g>
</g>
<g>
</g>
<g>
</g>
<g>
</g>
<g>
</g>
<g>
</g>
<g>
</g>
<g>
</g>
<g>
</g>
<g>
</g>
<g>
</g>
<g>
</g>
<g>
</g>
<g>
</g>
</svg>
