<?xml version="1.0" encoding="iso-8859-1"?>
<!-- Generator: Adobe Illustrator 19.0.0, SVG Export Plug-In . SVG Version: 6.00 Build 0)  -->
<svg version="1.1" id="Layer_1" xmlns="http://www.w3.org/2000/svg" xmlns:xlink="http://www.w3.org/1999/xlink" x="0px" y="0px"
	 viewBox="0 0 352.099 352.099" style="enable-background:new 0 0 352.099 352.099;" xml:space="preserve">
<g>
	<g>
		<path d="M351.059,57.617c-0.86-0.602-1.72-0.86-2.494-0.602L234.089,84.624L120.388,30.525c-0.517-0.43-1.118-0.602-1.892-0.602
			c-0.688,0-1.29,0.172-1.806,0.602L2.301,57.015c-1.376,0.258-2.236,1.376-2.236,2.839v117.572c-0.086,0.344-0.086,0.774,0,1.118
			v57.195c-0.086,0.344-0.086,0.774,0,1.118v54.959c0,0.86,0.602,1.72,1.118,2.236c0.602,0.258,1.118,0.602,1.72,0.602
			c0.258,0,0.602,0,0.86,0l114.647-27.436l113.787,54.098c0.258,0.258,0.602,0.43,0.946,0.516c0.258,0.086,0.688,0.086,0.86,0.086
			c0,0,0.258,0,0.258,0.258l115.594-27.609c1.376-0.258,2.236-1.376,2.236-2.838V59.768
			C352.177,59.08,351.575,58.219,351.059,57.617z M116.001,149.387c-0.086,0.172-0.172,0.344-0.258,0.516
			c-0.344,0.946-0.258,1.978,0.258,2.752v54.787c-0.086,0.172-0.172,0.344-0.258,0.516c-0.344,0.946-0.258,1.978,0.258,2.752v51.346
			L5.999,288.288v-49.97l56.421-13.417c0.344,0.086,0.688,0.172,1.032,0.172c1.72,0,2.838-1.376,2.838-2.838v-56.507l36.381-8.601
			c1.376-0.258,2.236-1.978,1.978-3.354s-1.978-2.236-3.354-1.978l-34.919,8.257v-53.582l49.626-11.697V149.387z M5.999,232.642
			v-52.636L60.7,167.104v52.55h-0.001L5.999,232.642z M167.864,284.676l-46.272-22.018V213.72l46.272,22.104V284.676z
			 M167.864,229.632l-46.272-22.104v-51.863l46.272,21.932V229.632z M234.089,126.424c-1.72,0-2.838,1.118-2.838,2.838v76.116
			c-0.086,0.344-0.086,0.774,0,1.118v108.369l-57.797-27.523V238.49l42.832,20.47c0.258,0.258,0.86,0.258,1.118,0.258
			c1.118,0,2.236-0.602,2.494-1.72c0.602-1.376,0-3.097-1.376-3.698l-45.068-21.502v-52.121l42.832,20.298
			c0.258,0.258,0.86,0.258,1.118,0.258c1.118,0,2.236-0.602,2.494-1.376c0.602-1.376,0-3.097-1.376-3.698l-46.272-22.104
			c-0.172-0.172-0.43-0.258-0.688-0.344l-50.056-23.91V68.455c0-1.72-1.118-2.838-2.838-2.838s-2.838,1.118-2.838,2.838v20.384
			l-53.238,12.557c-1.376,0.258-2.236,1.978-1.978,3.354v56.335L5.913,173.985V61.918l109.745-25.372v12.987
			c0,1.72,1.118,2.838,2.838,2.838s2.838-1.118,2.838-2.838V37.32l109.917,52.293v17.718c0,1.72,1.118,2.838,2.838,2.838
			c1.376,0,2.838-1.118,2.838-2.838V89.785l54.959-13.245v57.539c-0.086,0.344-0.086,0.774,0,1.118v54.098l-54.959,12.987v-73.02
			C236.927,127.542,235.808,126.424,234.089,126.424z M346.586,289.407h-0.085l-109.659,26.146V207.958l96.93-22.878
			c1.376-0.258,2.236-1.978,1.978-3.354s-1.978-2.236-3.354-1.978l-34.919,8.257v-51.346l36.381-8.515
			c1.376-0.258,2.236-1.978,1.978-3.354c-0.258-1.376-1.978-2.236-3.354-1.978l-34.919,8.171V75.163l49.024-11.869V289.407z"/>
	</g>
</g>
<g>
</g>
<g>
</g>
<g>
</g>
<g>
</g>
<g>
</g>
<g>
</g>
<g>
</g>
<g>
</g>
<g>
</g>
<g>
</g>
<g>
</g>
<g>
</g>
<g>
</g>
<g>
</g>
<g>
</g>
</svg>
