<?xml version="1.0" encoding="iso-8859-1"?>
<!-- Generator: Adobe Illustrator 19.0.0, SVG Export Plug-In . SVG Version: 6.00 Build 0)  -->
<svg version="1.1" id="Layer_1" xmlns="http://www.w3.org/2000/svg" xmlns:xlink="http://www.w3.org/1999/xlink" x="0px" y="0px"
	 viewBox="0 0 352.371 352.371" style="enable-background:new 0 0 352.371 352.371;" xml:space="preserve">
<g>
	<g>
		<path d="M351.253,57.668c-0.86-0.602-1.72-0.86-2.494-0.602L234.455,84.932L120.324,30.661c-0.516-0.43-1.118-0.602-1.892-0.602
			c-0.688,0-1.29,0.172-1.806,0.602L2.236,57.151C0.86,57.409,0,58.528,0,59.99v231.961c0,0.86,0.602,1.72,1.118,2.236
			c0.602,0.258,1.118,0.602,1.72,0.602c0.258,0,0.602,0,0.86,0.258l114.647-27.436l114.561,54.443
			c0.258,0.258,0.86,0.258,1.118,0.258c0.172,0,0.344,0,0.516-0.086v0.086l115.594-27.609c1.376-0.258,2.236-1.376,2.236-2.838
			V59.904C352.371,59.13,352.112,58.27,351.253,57.668z M236.863,316.205V126.731c0-1.72-1.118-2.838-2.838-2.838
			c-1.72,0-2.838,1.118-2.838,2.838v188.442l-109.659-52.121V69.02c0-1.72-1.118-2.838-2.838-2.838s-2.838,1.118-2.838,2.838
			v193.344L5.934,288.597V62.226l109.659-25.63v12.987c0,1.72,1.118,2.838,2.838,2.838s2.838-1.376,2.838-2.838V37.37
			l109.917,52.293v17.718c0,1.72,1.118,2.838,2.838,2.838c1.72,0,2.838-1.376,2.838-2.838V90.179l109.917-26.834v226.628h0.001
			L236.863,316.205z"/>
	</g>
</g>
<g>
</g>
<g>
</g>
<g>
</g>
<g>
</g>
<g>
</g>
<g>
</g>
<g>
</g>
<g>
</g>
<g>
</g>
<g>
</g>
<g>
</g>
<g>
</g>
<g>
</g>
<g>
</g>
<g>
</g>
</svg>
