<?xml version="1.0" encoding="iso-8859-1"?>
<!-- Generator: Adobe Illustrator 19.0.0, SVG Export Plug-In . SVG Version: 6.00 Build 0)  -->
<svg version="1.1" id="Layer_1" xmlns="http://www.w3.org/2000/svg" xmlns:xlink="http://www.w3.org/1999/xlink" x="0px" y="0px"
	 viewBox="0 0 352.458 352.458" style="enable-background:new 0 0 352.458 352.458;" xml:space="preserve">
<g>
	<g>
		<path d="M351.167,57.999c-0.86-0.602-1.72-0.86-2.494-0.602L234.025,85.091L121.098,31.336c-0.516-1.204-1.978-1.806-3.269-1.548
			L2.236,57.397C0.86,57.655,0,58.773,0,60.235v231.961c0,0.86,0.602,1.72,1.118,2.236c0.602,0.258,1.118,0.602,1.72,0.602
			c0.258,0,0.602,0,0.86-0.258l113.873-27.178l115.336,54.873c0.258,0.258,0.86,0.258,1.118,0.258s0.602,0,0.602,0l115.594-27.609
			c1.376-0.258,2.236-1.376,2.236-2.838V60.321C352.285,59.375,351.769,58.515,351.167,57.999z M231.101,315.504l-109.659-52.121
			v-31.995c14.277,13.418,33.542,21.675,54.701,21.675c21.243,0,40.681-8.343,54.959-22.018V315.504z M176.143,247.386
			c-40.853,0-74.138-33.285-74.138-74.138s33.199-74.138,74.138-74.138c40.853,0,74.138,33.284,74.138,74.138
			S216.996,247.386,176.143,247.386z M346.694,289.96l-109.917,26.232v-90.479c0-0.172,0-0.43-0.086-0.602
			c11.955-13.933,19.179-32.081,19.179-51.862c0-43.95-35.779-79.814-79.814-79.814c-21.243,0-40.681,8.343-54.959,22.018V69.008
			c0-1.72-1.118-2.838-2.838-2.838c-1.72,0-2.838,1.118-2.838,2.838v52.121c0,0.086,0,0.172,0,0.344
			c-11.955,13.933-19.179,32.081-19.179,51.862c0,19.868,7.311,38.101,19.437,52.121v36.897L5.763,288.583V62.213l109.659-26.146
			v13.503c0,1.72,1.118,2.838,2.838,2.838s2.838-1.376,2.838-2.838V37.615l109.917,52.293v17.46c0,1.72,1.118,2.838,2.838,2.838
			s2.838-1.376,2.838-2.838V90.165l109.918-26.49v226.284L346.694,289.96L346.694,289.96z"/>
	</g>
</g>
<g>
	<g>
		<path d="M200.827,157.681c0.086-0.258,0.172-0.516,0.172-0.86v-3.354c0-13.503-11.267-24.512-24.77-24.512
			s-24.77,11.009-24.77,24.512v3.354c0,0.258,0,0.516,0.086,0.774c-6.709,2.064-11.525,7.999-11.525,14.793v23.394
			c0,8.429,7.569,16.083,16.341,16.083h39.219c9.03,0,16.341-7.311,16.341-16.083v-23.394
			C211.921,165.68,207.277,159.831,200.827,157.681z M206.416,195.782c0,5.677-5.075,10.407-10.751,10.407h-39.219
			c-5.677,0-10.751-4.816-10.751-10.407l0.001-23.394c0-5.333,4.816-9.891,10.751-9.891h22.276c1.72,0,2.838-1.118,2.838-2.838
			s-1.118-2.838-2.838-2.838h-21.674v-3.354c0-10.407,8.773-18.921,19.179-18.921s19.179,8.429,19.179,18.921v3.354h-2.838
			c-1.72,0-2.838,1.118-2.838,2.838s1.118,2.838,2.838,2.838h3.096c5.935,0,10.751,4.472,10.751,9.891V195.782z"/>
	</g>
</g>
<g>
	<g>
		<path d="M176.142,170.496c-4.472,0-8.171,3.698-8.171,8.171c0.001,3.44,2.237,6.45,5.333,7.655v8.944
			c0,1.72,1.118,2.838,2.838,2.838c1.72,0,2.838-1.118,2.838-2.838v-8.944c3.096-1.118,5.333-4.128,5.333-7.655
			C184.313,174.194,180.614,170.496,176.142,170.496z M176.143,180.817c-1.376,0-2.494-1.118-2.494-2.494
			c-0.087-1.376,1.032-2.494,2.494-2.494c1.376,0,2.494,1.118,2.494,2.494C178.637,179.699,177.519,180.817,176.143,180.817z"/>
	</g>
</g>
<g>
	<g>
		<path d="M229.037,129.814c-0.86-1.118-2.838-1.118-3.956-0.258c-1.118,0.86-1.118,2.838-0.258,3.956
			c9.03,11.267,14.105,25.372,14.105,39.735c0,34.661-28.21,63.129-63.129,63.129c-34.661,0-63.129-28.21-63.129-63.129
			c0-34.661,28.21-63.129,63.129-63.129c12.385,0,24.254,3.698,34.661,10.407c1.376,0.86,3.096,0.602,3.956-0.86
			c0.86-1.376,0.602-3.097-0.86-3.956c-11.267-7.311-24.254-11.267-37.757-11.267c-37.757,0-68.806,30.704-68.806,68.806
			c0.086,37.757,30.79,68.806,68.805,68.806c38.015,0,68.806-31.048,68.462-68.806C244.26,157.422,238.927,141.941,229.037,129.814z
			"/>
	</g>
</g>
<g>
</g>
<g>
</g>
<g>
</g>
<g>
</g>
<g>
</g>
<g>
</g>
<g>
</g>
<g>
</g>
<g>
</g>
<g>
</g>
<g>
</g>
<g>
</g>
<g>
</g>
<g>
</g>
<g>
</g>
</svg>
