<?xml version="1.0" encoding="iso-8859-1"?>
<!-- Generator: Adobe Illustrator 19.0.0, SVG Export Plug-In . SVG Version: 6.00 Build 0)  -->
<svg version="1.1" id="Layer_1" xmlns="http://www.w3.org/2000/svg" xmlns:xlink="http://www.w3.org/1999/xlink" x="0px" y="0px"
	 viewBox="0 0 352.714 352.714" style="enable-background:new 0 0 352.714 352.714;" xml:space="preserve">
<g>
	<g>
		<path d="M267.352,101.832c-0.602-1.376-2.236-2.236-3.698-1.72c-1.376,0.602-2.236,2.236-1.72,3.698
			c8.429,22.792,7.569,47.648-2.236,69.666c-20.9,45.927-74.998,66.57-120.926,45.67c-22.276-10.149-39.219-28.21-47.906-51.002
			c-8.429-22.792-7.913-47.648,2.236-69.924c20.9-45.928,74.998-66.57,120.926-45.67c13.503,5.935,25.372,15.482,34.403,27.092
			c0.86,1.376,2.838,1.376,3.956,0.602c1.376-0.86,1.376-2.838,0.602-3.956c-9.547-12.385-22.276-22.276-36.639-28.726
			C167.584,25.544,109.788,47.304,87.77,96.07c-10.407,23.394-11.267,49.884-2.236,74.138c9.03,24.254,27.092,43.433,50.744,54.098
			c12.987,5.935,26.49,8.773,39.735,8.773c37.241,0,72.418-21.158,88.759-57.195C275.523,152.233,276.383,126,267.352,101.832z"/>
	</g>
</g>
<g>
	<g>
		<path d="M176.357,63.731c-39.735,0-72.16,32.425-72.16,72.16s32.425,72.16,72.16,72.16s72.16-32.425,72.16-72.16
			S216.092,63.731,176.357,63.731z M176.357,202.46c-36.639,0-66.57-29.845-66.57-66.57s29.845-66.57,66.57-66.57
			c36.639,0,66.57,29.845,66.57,66.57C242.926,172.616,212.996,202.46,176.357,202.46z"/>
	</g>
</g>
<g>
	<g>
		<path d="M176.357,0C101.617,0,40.724,60.893,40.724,135.633c0,51.002,27.867,96.93,73.02,120.41
			c24.254,61.151,60.291,95.554,60.635,95.812c0.602,0.602,1.376,0.86,1.978,0.86c0.602,0,1.376-0.258,1.978-1.118
			c0.258-0.258,36.123-34.661,60.635-95.812c45.068-23.394,73.02-69.322,73.02-120.066C311.904,60.893,251.011,0,176.357,0z
			 M235.53,251.484c-0.602,0.258-1.118,0.86-1.376,1.376c-20.9,52.464-50.142,84.889-57.797,92.715
			c-7.569-7.913-36.897-40.337-57.797-92.715c-0.258-0.602-0.86-1.118-1.376-1.376C73.492,229.209,46.4,184.915,46.4,135.891
			c0-71.644,58.313-129.957,129.957-129.957s129.957,58.313,129.957,129.957C306.313,184.657,279.221,229.209,235.53,251.484z"/>
	</g>
</g>
<g>
</g>
<g>
</g>
<g>
</g>
<g>
</g>
<g>
</g>
<g>
</g>
<g>
</g>
<g>
</g>
<g>
</g>
<g>
</g>
<g>
</g>
<g>
</g>
<g>
</g>
<g>
</g>
<g>
</g>
</svg>
