<?xml version="1.0" encoding="iso-8859-1"?>
<!-- Generator: Adobe Illustrator 19.0.0, SVG Export Plug-In . SVG Version: 6.00 Build 0)  -->
<svg version="1.1" id="Layer_1" xmlns="http://www.w3.org/2000/svg" xmlns:xlink="http://www.w3.org/1999/xlink" x="0px" y="0px"
	 viewBox="0 0 351.868 351.868" style="enable-background:new 0 0 351.868 351.868;" xml:space="preserve">
<g>
	<g>
		<path d="M328.467,176.493l-72.418-72.418c-14.965-14.965-35.263-23.394-56.421-23.394c-8.429,0-16.943,1.376-24.77,3.956
			c-1.376,0.602-2.236,2.236-1.72,3.698c0.602,1.376,2.236,2.236,3.698,1.72c7.311-2.58,14.965-3.698,22.792-3.698
			c19.696,0,38.359,7.913,52.464,22.018l72.418,72.418c13.847,13.503,21.674,31.823,22.018,51.002
			c0.258,19.179-6.794,37.241-20.298,50.744c-12.987,13.245-30.447,20.298-49.368,20.298c-19.696,0-38.359-7.913-52.465-22.018
			l-72.418-72.418c-24.254-24.512-28.726-61.409-11.439-89.533l13.933,13.933c-9.805,20.04-5.591,45.154,11.095,61.839
			l25.716,25.716c0.258,0.688,0.688,1.204,1.376,1.634c0.172,0.086,0.344,0.172,0.516,0.258l16.599,16.599
			c0.258,0.344,0.516,0.688,0.946,0.946l27.35,27.35c10.407,10.407,24.254,16.341,38.875,16.341c13.503,0,26.49-5.074,35.779-14.621
			c9.547-9.547,14.965-22.792,14.621-36.897c-0.258-14.363-6.193-27.866-16.341-38.015l-72.417-72.417
			c-10.407-10.407-24.254-16.341-38.875-16.341c-3.956,0-7.913,0.602-11.525,1.376c-1.72,0.258-2.494,1.978-2.236,3.354
			c0.258,1.72,1.978,2.494,3.354,2.236c3.354-0.86,7.052-1.118,10.407-1.118c12.987,0,25.63,5.333,34.919,14.621l72.418,72.418
			c9.289,9.289,14.363,21.415,14.621,34.145c0.258,12.643-4.472,24.512-12.987,32.941c-8.171,8.429-19.696,12.987-31.823,12.987
			c-12.987,0-25.63-5.333-34.919-14.621l-26.232-26.232c8.257-12.643,12.385-27.436,12.127-42.831
			c-0.258-20.556-8.773-40.337-23.394-54.959l-72.418-72.418c-14.965-14.965-35.263-23.394-56.42-23.394
			c-20.556,0-39.478,7.913-53.582,22.018C7.402,80.338-0.252,99.862,0.006,120.675c0.258,20.556,8.773,40.337,23.394,54.959
			l72.418,72.418c14.965,14.965,35.263,23.394,56.421,23.394c9.891,0,19.437-1.72,28.468-5.333c1.72-0.602,2.236-2.236,1.72-3.698
			c-0.602-1.72-2.236-2.236-3.698-1.72c-8.171,3.354-17.201,5.074-26.49,5.074c-19.696,0-38.359-7.913-52.464-22.018l-72.418-72.417
			C13.509,157.83,5.682,139.511,5.338,120.331C5.08,101.152,12.133,83.09,25.636,69.587c12.987-13.245,30.447-20.298,49.368-20.298
			c19.696,0,38.359,7.913,52.464,22.018l72.418,72.418c13.847,13.503,21.674,31.823,22.018,51.002
			c0.258,13.847-3.354,27.178-10.321,38.445l-14.105-14.105c3.612-7.397,5.505-15.739,5.247-24.082
			c-0.258-14.363-6.193-27.867-16.341-38.015l-25.974-25.974c-0.258-0.43-0.602-0.86-1.118-1.118l-16.857-16.857
			c-0.258-0.344-0.516-0.688-0.946-0.946l-27.609-27.609c-10.407-10.407-24.254-16.341-38.875-16.341
			c-13.503,0-26.49,5.333-35.779,14.621c-9.546,9.548-14.965,22.794-14.62,36.898c0.258,14.363,6.193,27.867,16.341,38.015
			l72.418,72.418c10.407,10.407,24.254,16.341,38.875,16.341c3.355,0,6.45-0.258,9.891-0.86c1.376-0.258,2.494-1.978,2.236-3.354
			c-0.258-1.376-1.978-2.494-3.355-2.236c-2.838,0.602-5.677,0.86-8.772,0.86c-12.987,0-25.63-5.333-34.919-14.621l-72.418-72.418
			c-9.289-9.289-14.363-21.415-14.621-34.145c-0.259-12.643,4.472-24.512,12.987-32.941c8.171-8.429,19.696-12.987,31.823-12.987
			c12.987,0,25.63,5.333,34.919,14.621l26.404,26.404c-19.438,30.533-14.879,71.128,11.611,97.618l72.418,72.418
			c14.965,14.965,35.263,23.394,56.421,23.394c20.298,0,39.219-7.569,52.98-21.674c14.621-14.621,22.276-34.145,22.018-54.959
			C351.603,210.81,343.088,191.114,328.467,176.493z M158.775,137.015l23.652,23.652c9.289,9.289,14.363,21.416,14.707,34.145
			c0,6.88-1.376,13.675-3.956,19.696l-23.652-23.652C155.248,176.321,150.862,154.733,158.775,137.015z"/>
	</g>
</g>
<g>
</g>
<g>
</g>
<g>
</g>
<g>
</g>
<g>
</g>
<g>
</g>
<g>
</g>
<g>
</g>
<g>
</g>
<g>
</g>
<g>
</g>
<g>
</g>
<g>
</g>
<g>
</g>
<g>
</g>
</svg>
