<?xml version="1.0" encoding="iso-8859-1"?>
<!-- Generator: Adobe Illustrator 19.0.0, SVG Export Plug-In . SVG Version: 6.00 Build 0)  -->
<svg version="1.1" id="Layer_1" xmlns="http://www.w3.org/2000/svg" xmlns:xlink="http://www.w3.org/1999/xlink" x="0px" y="0px"
	 viewBox="0 0 352.457 352.457" style="enable-background:new 0 0 352.457 352.457;" xml:space="preserve">
<g>
	<g>
		<path d="M344.114,167.757h-3.01c-0.946-18.406-4.989-36.381-11.783-53.238c0-0.43-0.086-0.86-0.172-1.118
			c-7.311-17.632-17.373-33.542-29.673-47.218c-0.086-0.086-0.172-0.172-0.258-0.344c-0.258-0.258-0.43-0.516-0.688-0.774
			c-15.826-17.545-35.693-31.909-59.001-41.627c-17.632-7.397-36.123-11.525-54.701-12.471V8.215c0-4.473-3.956-8.171-8.429-8.171
			s-8.171,3.698-8.171,8.171v2.752c-18.663,0.946-37.155,5.074-54.959,12.471C72.418,40.381,40.853,71.945,23.91,112.798
			c-0.086,0.172-0.172,0.43-0.258,0.688c-7.225,17.804-11.181,36.123-12.041,54.357H8.429c-4.817,0-8.429,3.698-8.429,8.429
			s3.956,8.429,8.429,8.429h3.269c1.032,18.406,5.161,36.467,12.041,53.41c0,0.43,0,0.86,0.172,1.29
			c16.943,40.853,48.508,72.418,89.361,89.361c0.258,0.258,0.86,0.258,1.118,0.258c0.086,0,0.086,0,0.172,0
			c17.632,7.311,35.607,11.095,53.668,11.955v3.01c0,4.817,3.698,8.429,8.171,8.429s8.429-3.698,8.429-8.429v-3.096
			c18.406-0.946,36.467-5.074,53.41-11.869c0.086,0,0.086,0,0.172,0c0.258,0,0.86-0.258,0.86,0
			c30.962-12.815,56.593-34.231,74.568-61.581c0.516-0.774,1.032-1.634,1.548-2.408c0,0,0,0,0-0.086
			c5.161-8.085,9.633-16.685,13.417-25.888c7.311-17.804,11.353-36.209,12.299-54.443h2.924c4.816,0,8.429-3.698,8.429-8.429
			S348.587,167.757,344.114,167.757z M11.353,179.024h-3.01v-0.001c-1.72,0-2.838-1.118-2.838-2.838c0-1.72,1.376-2.838,2.838-2.838
			h3.01C11.353,175.24,11.353,177.132,11.353,179.024z M240.132,30.231c37.241,16.083,66.57,45.411,82.566,82.566l-47.304,19.438
			c-10.837-24.684-30.275-44.122-54.959-54.959L240.132,30.231z M271.094,215.663c-10.407,25.372-30.189,45.068-55.56,55.56
			c-25.114,10.321-52.722,10.407-77.836,0.344c-0.258-0.258-0.516-0.43-0.774-0.602c-25.372-10.407-45.068-30.189-55.56-55.56
			c0-0.086-0.086-0.172-0.172-0.258c-9.891-24.168-10.665-52.035,0.172-78.094c16.341-39.477,54.701-63.387,95.038-63.387
			c13.245,0,26.49,2.236,39.219,7.913c25.372,10.407,45.068,30.189,55.56,55.56C281.501,162.338,281.501,190.291,271.094,215.663z
			 M173.82,8.213c0-1.376,1.118-2.494,2.494-2.494c1.72,0,2.838,1.118,2.838,2.494v2.58c-1.806,0-3.612,0-5.333,0L173.82,8.213z
			 M29.243,115.035c16.341-39.219,46.788-69.924,86.265-86.265c19.438-8.171,40.337-12.127,60.893-12.127
			c19.782,0,39.735,3.612,58.743,11.181l-19.61,47.39c-26.06-10.063-53.84-9.374-78.18,0L121.7,37.284
			c-0.602-1.376-2.236-1.978-3.698-1.376c-1.376,0.602-1.978,2.236-1.376,3.698l15.74,37.757
			c-23.738,10.493-43.691,29.501-54.959,54.959l-36.897-15.223c-1.376-0.86-3.096,0-3.698,1.376c-0.86,1.376,0,3.097,1.376,3.698
			l36.983,15.31c-9.891,25.888-9.202,53.41,0,77.578l-46.96,19.438C13.675,197.257,12.815,154.683,29.243,115.035z M112.756,322.14
			c-38.359-16.686-66.914-46.875-82.395-82.653l46.788-19.61c4.644,10.407,10.751,19.868,18.148,28.124
			c0.258,0.344,0.602,0.602,0.86,0.946l0.086,0.086c9.719,10.751,21.846,19.696,35.865,25.974L112.756,322.14z M179.153,343.899
			c0,1.376-1.376,2.839-2.838,2.839c-1.376,0-2.494-1.376-2.494-2.839v-2.838c0.774,0,1.462,0,2.236,0c1.032,0,2.064,0,3.096,0
			V343.899z M117.744,324.203l19.524-47.046c12.557,4.73,25.888,7.311,39.133,7.311c13.159,0,26.318-2.494,38.789-7.139
			l19.524,47.046C198.246,338.652,156.705,339.685,117.744,324.203z M299.133,278.018c-16.169,19.438-36.725,34.489-59.431,44.294
			L220.35,275.18c24.598-10.837,43.95-30.103,54.873-54.701l47.218,19.351C316.42,253.764,308.593,266.579,299.133,278.018z
			 M335.857,180.744c-0.086,0.344-0.172,0.688-0.172,1.118c0,0.344,0.086,0.602,0.086,0.86c-0.688,17.459-4.3,35.091-11.095,52.207
			l-47.304-19.61c9.719-25.114,9.805-52.379,0.258-77.578l47.304-19.61c6.364,16.341,10.063,33.801,10.837,51.604
			c-0.086,0.258-0.086,0.516-0.086,0.774c0,0.43,0.086,0.774,0.172,1.118C335.943,174.637,335.943,177.733,335.857,180.744z
			 M344.114,179.023h-2.752c0-1.892,0-3.784,0-5.677h2.752c1.72,0,2.839,1.118,2.839,2.838
			C346.952,177.906,345.49,179.023,344.114,179.023z"/>
	</g>
</g>
<g>
	<g>
		<path d="M309.969,105.144c-14.105-26.49-35.521-48.164-62.011-62.269c-1.376-0.86-3.096-0.258-3.956,1.118
			c-0.86,1.376-0.258,3.097,1.118,3.956c25.63,13.847,46.272,34.403,59.775,60.033c0.602,0.86,1.376,1.376,2.494,1.376
			c0.602,0,0.86-0.258,1.376-0.258C310.313,108.24,310.83,106.606,309.969,105.144z"/>
	</g>
</g>
<g>
	<g>
		<path d="M219.576,31.091c-14.363-4.214-29.328-6.193-44.294-6.193c-1.72,0-2.838,1.118-2.838,2.838
			c0.001,1.549,1.376,2.753,2.839,2.753c14.363,0,28.726,1.978,42.574,6.192c0.258,0,0.602,0,0.86,0c1.376,0,2.58-0.86,2.838-2.236
			C221.812,33.069,220.952,31.608,219.576,31.091z"/>
	</g>
</g>
<g>
</g>
<g>
</g>
<g>
</g>
<g>
</g>
<g>
</g>
<g>
</g>
<g>
</g>
<g>
</g>
<g>
</g>
<g>
</g>
<g>
</g>
<g>
</g>
<g>
</g>
<g>
</g>
<g>
</g>
</svg>
