<?xml version="1.0" encoding="iso-8859-1"?>
<!-- Generator: Adobe Illustrator 19.0.0, SVG Export Plug-In . SVG Version: 6.00 Build 0)  -->
<svg version="1.1" id="Layer_1" xmlns="http://www.w3.org/2000/svg" xmlns:xlink="http://www.w3.org/1999/xlink" x="0px" y="0px"
	 viewBox="0 0 352.369 352.369" style="enable-background:new 0 0 352.369 352.369;" xml:space="preserve">
<g>
	<g>
		<path d="M351.425,316.226L193.774,158.575c0-0.086,0.086-0.172,0.086-0.172l11.267-34.145c6.45-19.438,0-47.39-14.621-62.011
			L151.63,23.372c-15.223-14.965-39.735-14.965-54.701,0l-85.663,85.663C3.956,116.346,0,125.978,0,136.386
			c0,10.407,3.956,20.04,11.267,27.35l38.875,38.875c10.751,10.751,28.468,17.201,45.068,17.201c5.935,0,11.869-0.86,17.201-2.838
			l33.113-11.095l78.18,78.18c0.602,0.602,1.118,0.86,1.978,0.86h19.179v16.599c0,1.376,1.376,2.838,2.838,2.838h16.341v18.921
			c0,0.86,0.258,1.376,0.86,1.978l4.214,4.214c7.052,7.052,15.482,10.751,24.254,10.751c3.698,0,7.569-0.86,11.869-1.978
			l45.412-17.46c0.86-0.258,1.376-1.118,1.72-1.978C352.285,317.86,352.027,316.742,351.425,316.226z M144.75,200.719
			l-34.317,11.438c-17.718,5.935-43.089,0-56.421-13.245l-38.875-38.875c-6.193-6.193-9.547-14.621-9.547-23.394
			c0-9.03,3.354-17.201,9.547-23.394L100.8,27.587c6.45-6.45,14.965-9.547,23.394-9.547s16.943,3.097,23.136,9.547l38.875,38.875
			c12.987,12.987,19.179,38.875,13.245,56.421l-11.267,34.145C182.249,175.09,162.811,194.785,144.75,200.719z M303.261,332.826
			c-11.009,3.956-21.416,1.376-30.189-7.311l-3.355-3.354v-20.556c0-1.376-1.376-2.838-2.838-2.838h-16.341v-16.599
			c0-1.72-1.118-2.838-2.838-2.838h-20.9l-75.601-75.6c10.751-4.73,21.674-13.503,30.017-23.566l130.989,130.989
			c0.602,0.602,1.118,0.86,1.978,0.86c0.86,0,1.376-0.258,1.978-0.86c1.118-1.118,1.118-2.838,0-3.956L184.657,175.691
			c2.666-3.784,4.988-7.569,6.88-11.439l152.921,152.921L303.261,332.826z"/>
	</g>
</g>
<g>
	<g>
		<path d="M123.42,72.654l-7.913-7.913c-3.096-3.097-7.311-4.816-11.869-4.816c-4.472,0-8.773,1.72-11.869,4.816L52.55,103.96
			c-3.096,3.097-4.816,7.311-4.816,11.869c0,4.472,1.72,8.773,4.816,11.869l7.913,7.913c3.096,3.097,7.311,4.817,11.869,4.817
			c4.472,0,8.429-1.72,11.869-4.817l39.219-39.219c3.096-3.097,4.816-7.311,4.816-11.869S126.516,75.751,123.42,72.654z
			 M119.463,91.833l-39.219,39.219c-4.214,4.214-11.267,4.214-15.482,0l-7.913-7.913c-1.978-1.978-3.096-4.817-3.096-7.569
			c0-2.752,1.118-5.677,3.096-7.569l39.219-39.219c1.978-1.978,4.816-3.097,7.569-3.097c2.753,0,5.677,1.118,7.913,3.097
			l7.913,7.913c1.978,1.978,3.096,4.816,3.096,7.569C122.56,87.017,121.442,89.856,119.463,91.833z"/>
	</g>
</g>
<g>
</g>
<g>
</g>
<g>
</g>
<g>
</g>
<g>
</g>
<g>
</g>
<g>
</g>
<g>
</g>
<g>
</g>
<g>
</g>
<g>
</g>
<g>
</g>
<g>
</g>
<g>
</g>
<g>
</g>
</svg>
