<?xml version="1.0" encoding="iso-8859-1"?>
<!-- Generator: Adobe Illustrator 19.0.0, SVG Export Plug-In . SVG Version: 6.00 Build 0)  -->
<svg version="1.1" id="Layer_1" xmlns="http://www.w3.org/2000/svg" xmlns:xlink="http://www.w3.org/1999/xlink" x="0px" y="0px"
	 viewBox="0 0 352.348 352.348" style="enable-background:new 0 0 352.348 352.348;" xml:space="preserve">
<g>
	<g>
		<path d="M79.364,56.872c-18.577-0.086-33.801,15.137-33.801,33.8c0,18.577,15.223,33.801,33.801,33.801
			c18.577,0,33.801-15.223,33.801-33.801C113.165,72.094,97.941,56.872,79.364,56.872z M79.364,118.883
			c-15.482,0-28.21-12.643-28.21-28.21c0-15.568,12.643-28.21,28.21-28.21c15.567,0,28.21,12.73,28.21,28.21
			C107.574,106.154,94.931,118.883,79.364,118.883z"/>
	</g>
</g>
<g>
	<g>
		<path d="M156.34,53.174c-11.525-11.525-25.974-19.179-41.713-22.276c-1.72-0.258-3.096,0.86-3.355,2.236
			c-0.258,1.72,0.86,3.097,2.236,3.355c14.621,2.838,27.867,9.891,38.617,20.556c29.328,29.329,29.328,76.976,0,106.305
			c-29.328,29.328-76.976,29.329-106.305,0c-29.328-29.329-29.328-76.976,0-106.305c9.03-9.03,20.556-15.825,32.941-19.179
			c1.376-0.258,2.236-1.978,1.978-3.354c-0.258-1.376-1.978-2.236-3.355-1.978c-13.245,3.698-25.63,11.009-35.521,20.9
			c-31.564,31.564-31.564,82.566,0,114.131c15.825,15.826,36.639,23.652,57.195,23.652c20.556,0,41.455-7.913,57.195-23.996
			C187.905,135.74,187.905,84.738,156.34,53.174z"/>
	</g>
</g>
<g>
	<g>
		<path d="M316.227,306.292L178.1,168.165c-1.118-1.118-2.838-1.118-3.956,0c-1.118,1.118-1.118,2.838,0,3.956l138.128,138.128
			c0.602,0.602,1.118,0.86,1.978,0.86s1.376-0.258,1.978-0.86C317.346,309.13,317.346,307.411,316.227,306.292z"/>
	</g>
</g>
<g>
	<g>
		<path d="M351.404,315.065L189.022,152.684c17.718-37.757,9.891-82.566-19.696-112.153c-38.617-38.617-101.746-38.617-140.364,0
			c-38.617,38.617-38.617,101.746,0,140.364c29.587,29.586,74.396,37.499,112.153,19.696l80.072,80.072
			c0.602,0.602,1.118,0.86,1.978,0.86l18.921,0.258v20.04c0,1.72,1.118,2.838,2.838,2.838h19.179v17.718
			c0,0.86,0.258,1.376,0.86,1.978l3.956,3.956c2.838,2.838,5.849,5.074,9.03,6.794h-46.788c-1.72,0-2.838,1.118-2.838,2.838
			c0,1.72,1.118,2.838,2.838,2.838h85.405c1.72,0,2.838-1.118,2.838-2.838c0-1.72-1.118-2.838-2.838-2.838h-6.193l40.251-15.482
			c0.86-0.258,1.376-1.118,1.72-1.978C352.264,316.699,352.006,315.581,351.404,315.065z M302.982,331.664
			c-11.009,3.956-21.674,1.118-30.189-7.311l-3.096-3.097h-0.602v-19.179c0-1.72-1.118-2.838-2.838-2.838h-19.179V279.2
			c0-1.376-1.376-2.838-2.838-2.838l-20.556-0.258l-80.588-80.588c-0.86-0.86-1.978-1.118-3.096-0.602
			c-35.779,17.718-78.955,10.751-107.423-17.718c-36.639-36.639-36.639-95.812,0-132.451c36.639-36.381,96.156-36.381,132.451,0
			c28.21,28.21,35.521,71.3,17.718,107.423c-0.602,0.86-0.258,2.236,0.602,3.097l160.661,160.661L302.982,331.664z"/>
	</g>
</g>
<g>
	<g>
		<path d="M121.163,335.019H35.758c-1.72,0-2.838,1.118-2.838,2.838c0,1.72,1.118,2.838,2.838,2.838h85.405
			c1.376,0,2.838-1.118,2.838-2.838C123.916,336.223,122.797,335.019,121.163,335.019z"/>
	</g>
</g>
<g>
</g>
<g>
</g>
<g>
</g>
<g>
</g>
<g>
</g>
<g>
</g>
<g>
</g>
<g>
</g>
<g>
</g>
<g>
</g>
<g>
</g>
<g>
</g>
<g>
</g>
<g>
</g>
<g>
</g>
</svg>
