<?xml version="1.0" encoding="iso-8859-1"?>
<!-- Generator: Adobe Illustrator 19.0.0, SVG Export Plug-In . SVG Version: 6.00 Build 0)  -->
<svg version="1.1" id="Layer_1" xmlns="http://www.w3.org/2000/svg" xmlns:xlink="http://www.w3.org/1999/xlink" x="0px" y="0px"
	 viewBox="0 0 353.002 353.002" style="enable-background:new 0 0 353.002 353.002;" xml:space="preserve">
<g>
	<g>
		<path d="M243.586,86.065c-0.602-1.376-2.236-2.236-3.698-1.72s-2.236,2.236-1.72,3.698c5.935,16.341,5.333,33.801-1.72,49.626
			c-14.965,32.683-53.582,47.39-86.265,32.425s-47.39-53.582-32.425-86.265s53.582-47.39,86.265-32.425
			c9.547,4.472,18.062,11.267,24.512,19.438c0.86,1.376,2.838,1.376,3.956,0.602c1.376-0.86,1.376-2.838,0.602-3.956
			c-7.052-9.03-16.341-16.341-26.748-21.158c-35.521-16.341-77.492-0.258-93.576,35.263c-16.341,35.521-0.258,77.492,35.263,93.576
			c9.289,4.215,19.18,6.193,28.985,6.193c27.092,0,52.722-15.482,64.849-41.455C249.435,122.704,250.036,103.782,243.586,86.065z"/>
	</g>
</g>
<g>
	<g>
		<path d="M177.102,64.563c-25.458,0.086-46.272,20.9-46.272,46.272c0,25.372,20.556,46.272,46.272,46.272
			s46.272-20.9,46.272-46.272S202.475,64.563,177.102,64.563z M177.016,151.172c-22.276,0-40.595-18.062-40.595-40.595
			c0-22.276,18.062-40.595,40.595-40.595s40.939,18.32,40.595,40.595C217.612,132.853,199.292,151.172,177.016,151.172z"/>
	</g>
</g>
<g>
	<g>
		<path d="M352.901,332.13l-46.53-217.598c-0.258-1.376-1.376-2.236-2.838-2.236H269.99c0-0.602,0-1.118,0-1.72
			c0-51.346-41.713-93.059-93.059-93.059c-51.346,0-93.06,41.713-93.06,93.06c0,0.602,0,1.118,0,1.72H49.468
			c-1.376,0-2.494,0.86-2.838,2.236L0.1,332.13c-0.258,0.86,0,1.376,0.602,2.236s1.376,1.118,2.236,1.118h346.694
			c0.86,0,1.978-0.602,2.494-1.118C352.643,333.851,353.244,332.991,352.901,332.13z M177.016,22.935
			c48.164,0,87.383,39.219,87.383,87.383c0,83.427-75.858,135.633-87.383,142.944c-11.525-7.569-87.383-59.775-87.383-142.944
			C89.633,62.069,128.852,22.935,177.016,22.935z M6.808,329.894l45.068-212.007h32.339c4.558,88.587,90.565,140.708,91.426,141.223
			c0.258,0.258,0.86,0.258,1.376,0.258s1.118-0.258,1.376-0.258c0.86-0.516,86.867-52.636,91.426-141.223h31.478l45.068,212.007
			H6.808z"/>
	</g>
</g>
<g>
</g>
<g>
</g>
<g>
</g>
<g>
</g>
<g>
</g>
<g>
</g>
<g>
</g>
<g>
</g>
<g>
</g>
<g>
</g>
<g>
</g>
<g>
</g>
<g>
</g>
<g>
</g>
<g>
</g>
</svg>
