<?xml version="1.0" encoding="iso-8859-1"?>
<!-- Generator: Adobe Illustrator 19.0.0, SVG Export Plug-In . SVG Version: 6.00 Build 0)  -->
<svg version="1.1" id="Layer_1" xmlns="http://www.w3.org/2000/svg" xmlns:xlink="http://www.w3.org/1999/xlink" x="0px" y="0px"
	 viewBox="0 0 352.371 352.371" style="enable-background:new 0 0 352.371 352.371;" xml:space="preserve">
<g>
	<g>
		<path d="M316.592,217.339h-41.197v-8.171c0-19.696-16.083-35.779-35.779-35.779h-60.635V135.03l137.524,0.001
			c19.696,0,35.779-16.083,35.779-35.779V35.865c0.001-19.696-16.083-35.779-35.779-35.779H35.779C16.083,0.085,0,16.169,0,35.865
			v63.387c0,19.696,16.083,35.779,35.779,35.779h137.525v38.359h-60.291c-19.696,0-35.779,16.083-35.779,35.779v8.171H36.037
			c-19.696,0-35.779,16.083-35.779,35.779v63.387c0,19.696,16.083,35.779,35.779,35.779h87.985
			c19.696,0,35.779-16.083,35.779-35.779v-63.388c0-19.696-16.083-35.779-35.779-35.779H82.825v-8.171
			c0-16.599,13.503-30.189,30.189-30.189h126.602c16.599,0,30.189,13.503,30.189,30.189v8.171h-41.197
			c-19.696,0-35.779,16.083-35.779,35.779v63.387c0,19.695,16.083,35.779,35.779,35.779h87.985
			c19.696,0,35.779-16.083,35.779-35.779v-63.387C352.371,233.422,336.288,217.339,316.592,217.339z M123.678,222.929
			c16.599,0,30.188,13.503,30.188,30.189v63.387c0,16.599-13.503,30.189-30.189,30.189H35.693
			c-16.599,0-30.189-13.503-30.189-30.189v-63.387c0-16.599,13.503-30.189,30.189-30.189H123.678z M35.779,129.354
			c-16.686,0-30.189-13.503-30.189-30.189V35.779c0-16.599,13.503-30.189,30.189-30.189h280.727
			c16.599,0,30.189,13.503,30.189,30.189v63.387c0,16.599-13.503,30.189-30.189,30.189H35.779z M346.351,316.505
			c0,16.599-13.503,30.189-30.189,30.189h-87.985c-16.599,0-30.189-13.503-30.189-30.189v-63.387
			c0-16.599,13.503-30.189,30.189-30.189h87.985c16.685,0,30.189,13.503,30.189,30.189V316.505z"/>
	</g>
</g>
<g>
	<g>
		<path d="M321.839,30.103H35.693c-1.72,0-2.838,1.118-2.838,2.838c0.085,1.72,1.204,2.838,2.838,2.838h286.145
			c1.72,0,2.838-1.118,2.838-2.838S323.558,30.103,321.839,30.103z"/>
	</g>
</g>
<g>
	<g>
		<path d="M77.234,63.386H36.037c-1.72,0-2.838,1.118-2.838,2.838s1.118,2.838,2.838,2.838h41.197c1.376,0,2.838-1.118,2.838-2.838
			S78.954,63.386,77.234,63.386z"/>
	</g>
</g>
<g>
	<g>
		<path d="M200.912,63.386h-98.908c-1.72,0-2.838,1.118-2.838,2.838s1.118,2.838,2.838,2.838h98.908
			c1.376,0,2.838-1.118,2.838-2.838S202.632,63.386,200.912,63.386z"/>
	</g>
</g>
<g>
	<g>
		<path d="M321.839,63.386H222.93c-1.72,0-2.838,1.118-2.838,2.838s1.118,2.838,2.838,2.838h98.908c1.72,0,2.838-1.118,2.838-2.838
			S323.559,63.386,321.839,63.386z"/>
	</g>
</g>
<g>
	<g>
		<path d="M148.534,96.414H35.779c-1.72,0-2.838,1.118-2.838,2.838s1.118,2.838,2.838,2.838h112.755c1.72,0,2.838-1.118,2.838-2.838
			C151.286,97.531,150.169,96.414,148.534,96.414z"/>
	</g>
</g>
<g>
	<g>
		<path d="M321.839,96.328H173.304c-1.72,0-2.838,1.118-2.838,2.838s1.118,2.838,2.838,2.838h148.534
			c1.72,0,2.838-1.118,2.838-2.838C324.677,97.445,323.558,96.328,321.839,96.328z"/>
	</g>
</g>
<g>
	<g>
		<path d="M121.184,250.28H35.779c-1.72,0-2.839,1.118-2.839,2.838c0,1.72,1.118,2.838,2.838,2.838h85.405
			c1.376,0,2.838-1.118,2.838-2.838C124.022,251.398,122.903,250.28,121.184,250.28z"/>
	</g>
</g>
<g>
	<g>
		<path d="M57.711,283.307H35.693c-1.72,0-2.838,1.118-2.838,2.838c0,1.72,1.118,2.838,2.838,2.838h22.018
			c1.72,0,2.838-1.118,2.838-2.838S59.431,283.307,57.711,283.307z"/>
	</g>
</g>
<g>
	<g>
		<path d="M121.184,283.307H79.986c-1.72,0-2.838,1.118-2.838,2.838c0,1.72,1.118,2.838,2.838,2.838h41.197
			c1.376,0,2.838-1.118,2.838-2.838C123.936,284.425,122.818,283.307,121.184,283.307z"/>
	</g>
</g>
<g>
	<g>
		<path d="M253.119,283.307h-22.018c-1.72,0-2.838,1.118-2.838,2.838c0,1.72,1.118,2.838,2.838,2.838h22.018
			c1.72,0,2.838-1.118,2.838-2.838C255.871,284.425,254.753,283.307,253.119,283.307z"/>
	</g>
</g>
<g>
	<g>
		<path d="M316.506,283.307h-41.197c-1.72,0-2.838,1.118-2.838,2.838c0,1.72,1.118,2.838,2.838,2.838h41.197
			c1.376,0,2.838-1.118,2.838-2.838C319.344,284.425,318.226,283.307,316.506,283.307z"/>
	</g>
</g>
<g>
	<g>
		<path d="M316.506,250.28h-85.405c-1.72,0-2.838,1.118-2.838,2.838c0,1.72,1.118,2.838,2.838,2.838h85.405
			c1.376,0,2.838-1.118,2.838-2.838C319.344,251.398,318.225,250.28,316.506,250.28z"/>
	</g>
</g>
<g>
</g>
<g>
</g>
<g>
</g>
<g>
</g>
<g>
</g>
<g>
</g>
<g>
</g>
<g>
</g>
<g>
</g>
<g>
</g>
<g>
</g>
<g>
</g>
<g>
</g>
<g>
</g>
<g>
</g>
</svg>
