<?xml version="1.0" encoding="iso-8859-1"?>
<!-- Generator: Adobe Illustrator 19.0.0, SVG Export Plug-In . SVG Version: 6.00 Build 0)  -->
<svg version="1.1" id="Layer_1" xmlns="http://www.w3.org/2000/svg" xmlns:xlink="http://www.w3.org/1999/xlink" x="0px" y="0px"
	 viewBox="0 0 352.371 352.371" style="enable-background:new 0 0 352.371 352.371;" xml:space="preserve">
<g>
	<g>
		<path d="M351.253,57.624c-0.86-0.602-1.72-0.86-2.494-0.602L234.885,85.061L120.324,30.618c-0.516-0.43-1.118-0.602-1.892-0.602
			c-0.688,0-1.29,0.172-1.806,0.602L2.236,57.108C0.86,57.366,0,58.485,0,59.947v231.961c0,0.86,0.602,1.72,1.118,2.236
			c0.602,0.258,1.118,0.602,1.72,0.602c0.258,0,0.602,0,0.602,0.258l114.819-27.436l114.647,54.529
			c0.258,0.258,0.86,0.258,1.118,0.258c0.172,0,0.344,0,0.516-0.086v0.086l115.594-27.609c1.376-0.258,2.236-1.376,2.236-2.838
			V59.947C352.371,59.087,351.855,58.227,351.253,57.624z M115.594,262.15L5.677,288.554V62.183l109.917-25.458v12.729
			c0,1.72,1.118,2.838,2.838,2.838s2.838-1.376,2.838-2.838V37.241l109.917,52.293v16.857c-3.269-0.688-6.708-1.118-10.149-1.118
			c-15.825,0-30.189,7.311-39.477,20.04c-9.289-12.643-23.652-20.04-39.477-20.04c-7.483,0-14.535,1.72-20.9,4.73V68.634
			c0-1.72-1.118-2.838-2.838-2.838s-2.838,1.118-2.838,2.838v43.95c0,0.172,0,0.344,0.086,0.516
			c-13.417,8.687-22.276,23.824-22.276,40.853c0,19.61,9.547,37.499,22.276,52.464V262.15z M231.187,315.129L231.187,315.129
			L121.27,262.837v-49.97c24.512,25.802,56.679,41.972,58.915,43.003c0.258,0.258,0.602,0.258,1.118,0.258
			c0.258,0,0.86,0,1.72-0.258c1.806-0.86,25.888-12.987,48.164-32.769V315.129z M181.303,250.194
			c-10.751-5.677-82.566-45.412-82.566-96.156c0-23.652,19.437-43.089,43.089-43.089c15.223,0,29.07,7.913,36.897,20.9
			c0.602,0.86,1.376,1.376,2.494,1.376s1.978-0.602,2.494-1.376c7.913-12.987,21.674-20.9,36.897-20.9
			c4.214,0,8.171,0.602,12.041,1.72c0.172,0.086,0.43,0.172,0.688,0.172c17.546,5.505,30.447,21.932,30.447,41.197
			C263.869,204.782,191.71,244.604,181.303,250.194z M346.78,289.671l-109.917,26.232v-98.048
			c17.718-17.029,32.941-38.961,32.941-63.731c0-21.243-13.847-39.477-32.941-46.1V90.393L346.78,63.301V289.671z"/>
	</g>
</g>
<g>
	<g>
		<path d="M248.818,148.36c-0.43-1.632-2.15-2.493-3.526-2.148c-1.72,0.258-2.494,1.978-2.236,3.354
			c0.258,1.72,0.602,3.354,0.602,5.074c0,28.984-38.445,59.087-62.269,73.02c-23.824-13.933-62.269-44.036-62.269-73.02
			c0-13.245,10.751-23.996,23.996-23.996c8.429,0,16.083,4.214,20.556,11.525c3.355,5.677,9.633,9.461,16.255,10.063
			c0.43,0.258,0.946,0.344,1.462,0.344c7.311,0,14.363-3.956,18.32-10.149c4.472-7.311,12.127-11.525,20.556-11.525
			c3.698,0,7.052,0.86,10.407,2.494c1.376,0.602,3.096,0,3.698-1.376c0.602-1.376,0-3.097-1.376-3.698
			c-4.214-1.978-8.429-3.097-12.987-3.097c-10.407,0-20.04,5.333-25.372,14.363c-2.58,4.128-6.966,6.794-11.783,7.224
			c-0.344-0.172-0.774-0.172-1.118-0.172c-5.333,0-10.407-2.838-13.245-7.311c-5.333-9.03-14.965-14.363-25.372-14.363
			c-16.341,0-29.587,13.245-29.587,29.586c0,39.735,59.775,74.998,66.57,78.955c0.602,0.258,0.86,0.258,1.376,0.258
			c0.602,0,1.118,0,1.376-0.258c6.794-3.956,66.57-39.219,66.57-78.955C249.42,152.316,249.42,150.338,248.818,148.36z"/>
	</g>
</g>
<g>
</g>
<g>
</g>
<g>
</g>
<g>
</g>
<g>
</g>
<g>
</g>
<g>
</g>
<g>
</g>
<g>
</g>
<g>
</g>
<g>
</g>
<g>
</g>
<g>
</g>
<g>
</g>
<g>
</g>
</svg>
