<?xml version="1.0" encoding="iso-8859-1"?>
<!-- Generator: Adobe Illustrator 19.0.0, SVG Export Plug-In . SVG Version: 6.00 Build 0)  -->
<svg version="1.1" id="Layer_1" xmlns="http://www.w3.org/2000/svg" xmlns:xlink="http://www.w3.org/1999/xlink" x="0px" y="0px"
	 viewBox="0 0 352.284 352.284" style="enable-background:new 0 0 352.284 352.284;" xml:space="preserve">
<g>
	<g>
		<path d="M176.099,0C101.359,0,40.81,60.893,40.81,135.289c0,135.633,132.193,215.964,133.655,216.738
			c0.258,0.258,0.86,0.258,1.376,0.258c0.602,0,1.118,0,1.978-0.258c1.118-0.86,133.655-81.191,133.655-216.738
			C311.388,60.549,250.839,0,176.099,0z M175.841,346.437c-14.363-9.289-129.698-86.265-129.698-211.148
			c0-71.644,58.312-129.698,129.698-129.698c71.3,0,129.699,58.054,129.699,129.699
			C305.454,260.172,190.204,337.405,175.841,346.437z"/>
	</g>
</g>
<g>
	<g>
		<path d="M218.414,75.514c-16.943,0-32.425,8.171-42.316,21.674c-9.891-13.847-25.372-21.674-42.316-21.674
			c-28.726,0-52.121,23.394-52.121,52.121c0,62.011,89.361,106.305,93.06,108.283c0.258,0.258,0.86,0.258,1.118,0.258
			c0.258,0,0.86-0.258,1.72-0.258c3.698-1.978,93.06-46.272,93.06-108.283C270.535,98.908,247.141,75.514,218.414,75.514z
			 M175.841,230.241c-11.009-5.677-88.759-47.906-88.759-102.606c0-25.63,20.9-46.53,46.53-46.53
			c16.341,0,31.306,8.429,39.994,22.534c0.86,1.72,3.698,1.72,4.816,0c8.429-14.105,23.394-22.534,39.735-22.534
			c25.63,0,46.53,20.9,46.53,46.53C264.6,182.593,186.505,224.65,175.841,230.241z"/>
	</g>
</g>
<g>
	<g>
		<path d="M247.398,124.882c-1.72,0-2.838,1.118-2.838,2.838c0,37.499-54.443,71.644-68.806,79.814
			c-32.167-18.577-68.806-50.142-68.806-79.814c0-14.621,11.869-26.49,26.49-26.49c9.547,0,18.062,4.817,22.792,12.987
			c3.956,6.794,11.525,11.009,19.437,11.009c7.913,0,15.223-4.214,19.438-11.009c5.075-8.171,13.503-12.987,22.792-12.987
			c7.052,0,13.503,2.838,18.577,7.569c1.118,1.118,2.838,1.118,3.956,0c1.118-1.118,1.118-2.838,0-3.956
			c-6.193-5.935-14.105-9.289-22.534-9.289c-11.525,0-21.674,5.935-27.608,15.825c-3.096,5.333-8.773,8.429-14.621,8.429
			c-5.935,0-11.525-3.355-14.621-8.429c-5.935-9.891-16.341-15.825-27.609-15.825c-17.718,0-32.167,14.363-32.167,32.167
			c0,41.713,60.893,78.353,73.02,85.405c0.602,0.258,0.86,0.258,1.376,0.258c0.602,0,0.86,0,1.376-0.258
			c12.127-6.794,73.02-43.433,73.02-85.405C250.237,126,249.119,124.882,247.398,124.882z"/>
	</g>
</g>
<g>
</g>
<g>
</g>
<g>
</g>
<g>
</g>
<g>
</g>
<g>
</g>
<g>
</g>
<g>
</g>
<g>
</g>
<g>
</g>
<g>
</g>
<g>
</g>
<g>
</g>
<g>
</g>
<g>
</g>
</svg>
