<?xml version="1.0" encoding="iso-8859-1"?>
<!-- Generator: Adobe Illustrator 19.0.0, SVG Export Plug-In . SVG Version: 6.00 Build 0)  -->
<svg version="1.1" id="Layer_1" xmlns="http://www.w3.org/2000/svg" xmlns:xlink="http://www.w3.org/1999/xlink" x="0px" y="0px"
	 viewBox="0 0 352.371 352.371" style="enable-background:new 0 0 352.371 352.371;" xml:space="preserve">
<g>
	<g>
		<path d="M116.583,49.541c-0.602-1.376-2.236-2.236-3.698-1.72c-1.462,0.516-2.236,2.236-1.72,3.698
			c4.214,11.525,3.956,23.996-1.118,34.919c-5.075,11.009-14.105,19.696-25.63,23.996c-11.267,4.214-23.652,3.956-34.919-1.118
			C38.488,104.241,29.801,95.21,25.5,83.685c-4.214-11.267-3.956-23.996,1.118-34.919c5.075-11.009,14.105-19.696,25.63-23.996
			c11.267-4.214,23.652-3.956,34.919,1.118c6.794,3.097,12.643,7.569,17.201,13.503c0.86,1.376,2.838,1.376,3.956,0.602
			c1.376-0.86,1.376-2.838,0.602-3.956c-5.075-6.45-11.869-11.869-19.437-15.223C76.847,15.138,63,14.88,50.013,19.696
			c-12.987,5.074-23.136,14.62-28.726,27.091c-5.677,12.643-5.935,26.49-1.118,39.477c5.075,12.987,14.621,23.136,27.092,28.726
			c6.794,3.097,13.847,4.472,21.158,4.472c6.021,0.001,12.214-1.117,18.062-3.611c12.987-5.074,23.136-14.621,28.726-27.092
			S121.399,62.269,116.583,49.541z"/>
	</g>
</g>
<g>
	<g>
		<path d="M68.505,34.059c-18.921,0-34.145,15.223-34.145,34.145c0,18.922,15.223,34.145,34.145,34.145s34.145-15.482,34.145-34.145
			C102.564,49.282,87.341,34.059,68.505,34.059z M68.505,96.414c-15.482,0-28.468-12.643-28.468-28.468
			c0-15.482,12.643-28.468,28.468-28.468S96.973,52.12,96.973,67.945C96.973,83.427,83.986,96.414,68.505,96.414z"/>
	</g>
</g>
<g>
	<g>
		<path d="M283.867,176.142c-37.499,0-67.945,30.447-67.945,67.945c0,54.013,42.058,90.393,59.259,103.037
			c-0.774,0.516-1.204,1.29-1.204,2.408c0,1.72,1.118,2.838,2.838,2.838h7.052c0.602,0,1.118,0,1.376-0.258
			c0.602-0.602,66.57-40.595,66.57-107.939C351.812,206.589,321.365,176.142,283.867,176.142z M283.867,346.093
			c-9.547-6.192-62.269-43.433-62.269-102.004c0-34.403,27.867-62.269,62.269-62.269s62.269,27.867,62.269,62.269
			C346.135,302.745,293.414,339.9,283.867,346.093z"/>
	</g>
</g>
<g>
	<g>
		<path d="M332.375,226.027c-0.602-1.376-2.236-2.236-3.698-1.72c-1.462,0.516-2.236,2.236-1.72,3.698
			c4.214,11.525,3.956,23.996-1.118,34.919c-5.075,11.009-14.105,19.696-25.63,23.996c-11.267,4.214-23.652,3.956-34.919-1.118
			c-22.792-10.407-33.285-37.5-22.792-60.635c10.407-22.792,37.499-33.285,60.635-22.792c6.794,3.097,12.643,7.569,17.201,13.503
			c0.86,1.376,2.838,1.376,3.956,0.602c1.376-0.86,1.376-2.838,0.602-3.956c-5.075-6.45-11.869-11.869-19.437-15.223
			c-25.974-11.869-56.679-0.258-68.204,25.63c-11.869,25.63-0.258,56.421,25.63,67.945c6.794,3.097,13.847,4.472,21.157,4.472
			c6.193,0,12.385-0.86,18.32-3.097c12.987-5.074,23.136-14.621,28.726-27.092C336.589,252.861,337.105,238.756,332.375,226.027z"/>
	</g>
</g>
<g>
	<g>
		<path d="M283.867,209.943c-18.921,0-34.145,15.223-34.145,34.145c0,18.921,15.223,34.145,34.145,34.145
			s34.403-15.223,34.145-34.145C317.925,225.166,302.702,209.943,283.867,209.943z M283.867,272.299
			c-15.482,0-28.468-12.643-28.468-28.468c0-15.482,12.643-28.468,28.468-28.468s28.726,12.987,28.468,28.468
			C312.335,259.311,299.348,272.299,283.867,272.299z"/>
	</g>
</g>
<g>
	<g>
		<path d="M136.451,67.946C136.451,30.447,106.004,0,68.505,0S0.559,30.447,0.559,67.945c0,67.687,65.967,107.681,66.57,107.939
			c0.258,0.258,0.86,0.258,1.376,0.258h7.052c1.376,0,2.838-1.118,2.838-2.838c-0.086-1.118-0.516-1.978-1.376-2.408
			C94.221,158.167,136.451,121.786,136.451,67.946z M68.419,169.864C58.872,163.757,6.15,126.516,6.15,67.859
			c0-34.403,27.867-62.269,62.269-62.269s62.269,27.867,62.269,62.269C130.689,126.516,77.966,163.671,68.419,169.864z"/>
	</g>
</g>
<g>
	<g>
		<path d="M162.511,177.862c-4.214-2.494-9.03-4.817-14.105-5.935c-1.376-0.602-3.096,0.602-3.354,1.978
			c-0.43,1.376,0.688,3.097,2.064,3.354c4.472,1.118,8.429,2.838,12.385,5.333c0.258,0.258,0.86,0.602,1.376,0.602
			c1.118,0,1.978-0.602,2.494-1.376C164.23,180.443,163.973,178.722,162.511,177.862z"/>
	</g>
</g>
<g>
	<g>
		<path d="M181.518,201.773c-1.72-5.074-4.214-9.547-7.311-13.503c-0.86-1.376-2.838-1.376-3.956-0.602
			c-1.376,0.86-1.376,2.838-0.602,3.956c2.838,3.698,5.075,7.655,6.536,11.869c0.258,1.118,1.376,1.978,2.494,1.978
			c0.258,0,0.602,0,1.118,0C181.174,204.869,182.034,203.235,181.518,201.773z"/>
	</g>
</g>
<g>
	<g>
		<path d="M174.465,241.508c-1.204-0.86-3.096-0.602-3.956,0.602c-2.838,3.698-6.192,6.794-9.891,9.289
			c-1.376,0.86-1.634,2.58-0.774,3.956c0.602,0.602,1.376,1.118,2.236,1.118c0.602,0,1.118,0,1.978-0.258
			c4.214-3.097,7.913-6.45,11.009-10.751C175.927,244.346,175.669,242.368,174.465,241.508z"/>
	</g>
</g>
<g>
	<g>
		<path d="M175.326,346.694h-14.363c-1.72,0-2.838,1.118-2.838,2.839c0,1.72,1.118,2.838,2.838,2.838h14.363
			c1.376,0,2.838-1.118,2.838-2.838C178.164,347.813,177.046,346.694,175.326,346.694z"/>
	</g>
</g>
<g>
	<g>
		<path d="M262.107,346.694h-14.363c-1.72,0-2.838,1.118-2.838,2.839c0,1.72,1.118,2.838,2.838,2.838h14.363
			c1.72,0,2.838-1.118,2.838-2.838C264.945,347.813,263.827,346.694,262.107,346.694z"/>
	</g>
</g>
<g>
	<g>
		<path d="M233.122,346.694h-14.363c-1.72,0-2.838,1.118-2.838,2.839c0,1.72,1.118,2.838,2.838,2.838h14.363
			c1.72,0,2.838-1.118,2.838-2.838C235.961,347.813,234.757,346.694,233.122,346.694z"/>
	</g>
</g>
<g>
	<g>
		<path d="M204.31,346.694h-14.363c-1.72,0-2.838,1.118-2.838,2.839c0,1.72,1.118,2.838,2.838,2.838h14.363
			c1.376,0,2.838-1.118,2.838-2.838C207.148,347.813,206.03,346.694,204.31,346.694z"/>
	</g>
</g>
<g>
	<g>
		<path d="M181.518,214.244c-1.72,0-2.838,1.118-2.838,2.838v0.602c0,4.214-0.602,8.429-1.978,12.643
			c-0.602,1.72,0.258,3.097,1.72,3.698c0.258,0,0.602,0,0.86,0c1.118,0,2.236-0.86,2.838-1.978
			c1.376-4.472,2.236-9.289,2.236-14.363v-0.602C184.356,215.362,182.895,214.244,181.518,214.244z"/>
	</g>
</g>
<g>
	<g>
		<path d="M119.507,342.738c-3.956-1.978-7.913-4.817-11.009-7.913c-1.118-1.118-2.838-1.118-3.956,0
			c-1.118,1.118-1.118,2.838,0,3.956c3.698,3.354,7.913,6.45,12.385,8.773c0.258,0.258,0.86,0.258,1.118,0.258
			c1.118,0,1.978-0.602,2.838-1.376C121.485,344.974,120.883,343.34,119.507,342.738z"/>
	</g>
</g>
<g>
	<g>
		<path d="M146.255,346.694h-9.03c-1.72,0-3.354,0-5.075-0.258c-1.376,0-3.096,1.118-3.096,2.494c0,1.376,1.118,2.838,2.494,3.097
			c1.72,0.258,3.698,0.258,5.677,0.258h9.03c1.72,0,2.838-1.118,2.838-2.838C149.094,347.727,147.975,346.694,146.255,346.694z"/>
	</g>
</g>
<g>
	<g>
		<path d="M122.862,263.526c-0.517-1.376-2.237-1.979-3.613-1.376c-4.816,1.978-9.03,4.816-12.987,8.171
			c-1.118,1.118-1.376,2.838-0.258,3.956c0.602,0.602,1.376,0.86,2.236,0.86s1.376-0.258,1.72-0.86
			c3.355-2.838,7.311-5.333,11.525-7.052C122.862,266.623,123.464,264.988,122.862,263.526z"/>
	</g>
</g>
<g>
	<g>
		<path d="M151.588,259.225c-0.259-1.29-1.893-2.15-3.354-1.892c-3.698,0.86-7.311,1.376-11.009,1.376c-0.86,0-1.978,0-2.838,0
			c-1.376,0.258-2.494,1.376-2.494,3.097c0,1.376,1.376,2.494,2.838,2.494c0.86,0,1.72,0,2.494,0c4.214,0,8.429-0.602,12.385-1.72
			C150.986,262.322,151.846,260.602,151.588,259.225z"/>
	</g>
</g>
<g>
	<g>
		<path d="M133.268,170.552h-14.363c-1.72,0-2.838,1.118-2.838,2.838c0,1.72,1.118,2.838,2.838,2.838h14.363
			c1.72,0,2.838-1.118,2.838-2.838C136.106,171.67,134.988,170.552,133.268,170.552z"/>
	</g>
</g>
<g>
	<g>
		<path d="M100.242,323.903c-1.893-4.3-3.269-8.515-3.871-12.987c0-1.72-1.72-2.838-3.096-2.494c-1.72,0.258-2.838,1.72-2.494,3.097
			c0.602,5.074,2.236,10.149,4.472,14.621c0.602,1.118,1.376,1.72,2.494,1.72c0.602,0,0.86,0,1.376-0.258
			C100.242,326.999,100.844,325.365,100.242,323.903z"/>
	</g>
</g>
<g>
	<g>
		<path d="M100.585,280.727c-1.376-0.602-3.096-0.258-3.956,1.118c-2.494,4.472-4.214,9.289-5.333,14.363
			c-0.258,1.72,0.86,3.097,2.236,3.354c0.258,0,0.258,0,0.602,0c1.118,0,2.494-0.86,2.838-2.236
			c0.86-4.472,2.494-8.773,4.816-12.643C102.306,283.307,102.048,281.587,100.585,280.727z"/>
	</g>
</g>
<g>
	<g>
		<path d="M104.542,170.466H90.179c-1.72,0-2.838,1.118-2.838,2.838c0,1.72,1.118,2.838,2.838,2.838h14.363
			c1.462,0,2.838-1.118,2.838-2.838C107.38,171.584,106.261,170.466,104.542,170.466z"/>
	</g>
</g>
<g>
</g>
<g>
</g>
<g>
</g>
<g>
</g>
<g>
</g>
<g>
</g>
<g>
</g>
<g>
</g>
<g>
</g>
<g>
</g>
<g>
</g>
<g>
</g>
<g>
</g>
<g>
</g>
<g>
</g>
</svg>
