<?xml version="1.0" encoding="iso-8859-1"?>
<!-- Generator: Adobe Illustrator 19.0.0, SVG Export Plug-In . SVG Version: 6.00 Build 0)  -->
<svg version="1.1" id="Layer_1" xmlns="http://www.w3.org/2000/svg" xmlns:xlink="http://www.w3.org/1999/xlink" x="0px" y="0px"
	 viewBox="0 0 352.285 352.285" style="enable-background:new 0 0 352.285 352.285;" xml:space="preserve">
<g>
	<g>
		<path d="M316.42,44.208H127.721c-0.345-0.172-0.86-0.258-1.29-0.258c-0.43,0-0.946,0.086-1.29,0.258H97.618
			c-0.344-0.172-0.86-0.258-1.29-0.258s-0.946,0.086-1.29,0.258H35.779C16.083,44.208,0,60.291,0,79.987v192.57
			c0,19.696,16.083,35.779,35.779,35.779h280.727c19.696,0,35.779-16.083,35.779-35.779V79.987
			C352.199,60.291,336.116,44.208,316.42,44.208z M99.08,49.54h24.512v100.026L99.08,161.435V49.54z M247.012,96.586
			c0.344-0.172,0.602-0.258,0.86-0.43l-66.569,65.795c-1.118,1.118-1.118,2.838,0,3.956c0.602,0.602,1.118,0.86,1.978,0.86
			s1.376-0.258,1.978-0.86l66.053-65.193c0,0,0,0.086-0.086,0.086l-46.702,100.456c-0.774,0.43-1.29,1.29-1.29,2.408
			c0,0.086,0,0.172,0,0.258l-23.996,51.604c-1.376,3.097-2.838,4.214-2.838,4.214c-0.258-0.258-1.376-1.376-1.978-5.074
			l-12.815-65.193l5.677-5.419c1.118-1.118,1.118-2.838,0-3.956c-1.118-1.118-2.838-1.118-3.956,0l-5.849,5.591L94.865,174.68
			c-3.355-0.602-4.472-1.376-4.816-1.72c0.258-0.258,1.118-1.376,4.214-2.494L247.012,96.586z M256.645,90.737
			c-1.72-1.72-5.075-2.838-11.869,0.258l-87.985,42.488V79.987h159.543v96.156H222.5l34.145-73.536
			C259.742,95.812,258.365,92.458,256.645,90.737z M208.309,206.589h138.213v24.512H196.87L208.309,206.589z M158.597,200.998
			h-29.242v-14.707l27.264,4.816L158.597,200.998z M5.505,79.815c0-16.686,13.503-30.275,30.102-30.275h57.797v114.647l-1.376,0.688
			c-6.794,3.097-7.569,6.45-7.311,8.773c0.258,2.408,2.15,5.161,8.773,6.364v20.986H5.505V79.815z M93.49,302.486H35.693
			c-16.686-0.085-30.189-13.589-30.189-30.188v-35.521H93.49V302.486z M126.516,231.101c-0.086,0-0.086,0-0.172,0
			c-1.72,0-2.838,1.118-2.838,2.838v68.462H98.994v-68.462c0-1.72-1.118-2.838-2.838-2.838H5.419v-24.512h90.737
			c1.376,0,2.838-1.118,2.838-2.838v-22.792l24.512,4.3v18.491c0,1.72,1.118,2.838,2.838,2.838h32.941c0.086,0,0.172,0,0.258,0
			l4.816,24.512h-37.67C126.602,231.101,126.602,231.101,126.516,231.101z M346.523,272.212
			c0.086,16.686-13.503,30.189-30.103,30.189H129.268v-65.624h35.779c0.172,0,0.344,0,0.516-0.086l3.698,18.921
			c1.118,7.311,4.214,9.289,6.45,9.547c0,0,0.258,0,0.602,0c2.236,0,5.333-1.376,8.171-7.311l9.805-21.157h152.233V272.212z
			 M346.608,200.912H210.976l8.945-19.179c0.172,0,0.258,0,0.43,0h98.908c1.376,0,2.838-1.376,2.838-2.838V77.148
			c0-1.72-1.118-2.838-2.838-2.838H154.039c-1.72,0-2.838,1.118-2.838,2.838v59.087L129.183,146.9V49.626h187.151
			c16.685-0.085,30.274,13.503,30.274,30.103V200.912z"/>
	</g>
</g>
<g>
</g>
<g>
</g>
<g>
</g>
<g>
</g>
<g>
</g>
<g>
</g>
<g>
</g>
<g>
</g>
<g>
</g>
<g>
</g>
<g>
</g>
<g>
</g>
<g>
</g>
<g>
</g>
<g>
</g>
</svg>
