<?xml version="1.0" encoding="iso-8859-1"?>
<!-- Generator: Adobe Illustrator 19.0.0, SVG Export Plug-In . SVG Version: 6.00 Build 0)  -->
<svg version="1.1" id="Layer_1" xmlns="http://www.w3.org/2000/svg" xmlns:xlink="http://www.w3.org/1999/xlink" x="0px" y="0px"
	 viewBox="0 0 352.341 352.341" style="enable-background:new 0 0 352.341 352.341;" xml:space="preserve">
<g>
	<g>
		<path d="M348.768,326.429L198.514,15.256c-5.677-11.869-11.267-13.847-14.965-13.245c-3.698,0.602-8.429,3.956-10.407,17.201
			L150.35,148.051l-133.311,26.49c-13.245,2.494-16.341,7.311-16.943,11.009c-0.602,3.698,1.376,9.289,13.503,14.965l315.13,146.556
			c5.075,2.236,9.289,3.354,12.987,3.354c3.355,0,5.935-1.118,7.913-3.354C353.498,343.029,353.24,335.718,348.768,326.429z
			 M346.532,341.653L205.567,198.709c-1.118-1.118-2.838-1.118-3.956,0c-1.118,1.118-1.118,2.838,0,3.956l139.934,141.825
			c-2.408-0.086-5.763-0.86-10.235-2.839L16.093,195.096c-8.171-3.698-10.751-7.311-10.407-9.03
			c0.258-1.978,3.698-4.472,12.385-6.193l134.601-26.662l21.33,21.588c0.602,0.602,1.118,0.86,1.978,0.86s1.376-0.258,1.978-0.86
			c1.118-1.118,1.118-2.838,0-3.956l-21.932-22.19l22.706-128.667c1.376-8.773,3.956-12.127,5.935-12.385
			c1.978,0,5.075,2.838,8.773,10.149l150.255,311.174C346.704,335.203,347.221,339.331,346.532,341.653z"/>
	</g>
</g>
<g>
</g>
<g>
</g>
<g>
</g>
<g>
</g>
<g>
</g>
<g>
</g>
<g>
</g>
<g>
</g>
<g>
</g>
<g>
</g>
<g>
</g>
<g>
</g>
<g>
</g>
<g>
</g>
<g>
</g>
</svg>
