<?xml version="1.0" encoding="iso-8859-1"?>
<!-- Generator: Adobe Illustrator 19.0.0, SVG Export Plug-In . SVG Version: 6.00 Build 0)  -->
<svg version="1.1" id="Layer_1" xmlns="http://www.w3.org/2000/svg" xmlns:xlink="http://www.w3.org/1999/xlink" x="0px" y="0px"
	 viewBox="0 0 352.457 352.457" style="enable-background:new 0 0 352.457 352.457;" xml:space="preserve">
<g>
	<g>
		<path d="M351.253,57.71c-0.86-0.602-1.72-0.86-2.494-0.602L233.337,84.459L120.324,30.704c-0.516-0.43-1.118-0.602-1.892-0.602
			c-0.688,0-1.29,0.172-1.806,0.602L2.236,57.194C0.86,57.452,0,58.571,0,60.033v231.961c0,0.86,0.602,1.72,1.118,2.236
			c0.602,0.258,1.118,0.602,1.72,0.602c0.258,0,0.602,0,0.86,0l114.303-27.35l114.905,54.615c0.258,0.258,0.86,0.258,1.118,0.258
			s0.602,0,0.602,0l115.594-27.609c1.376-0.258,2.236-1.376,2.236-2.838V59.947C352.371,59.173,351.855,58.313,351.253,57.71z
			 M115.854,262.494L5.935,288.726V62.269l109.659-25.63v12.987c0,1.72,1.118,2.838,2.838,2.838c1.72,0,2.838-1.376,2.838-2.838
			V37.413l109.917,52.293v14.879c-2.666,0.516-5.161,1.806-7.052,3.698l-47.906,47.906l-47.906-47.906
			c-2.064-1.892-4.472-3.097-7.052-3.698V68.806c0-1.72-1.118-2.838-2.838-2.838s-2.838,1.118-2.838,2.838v35.779
			c-2.666,0.516-5.161,1.806-7.052,3.698c-5.333,5.333-5.333,14.105,0,19.438l7.052,7.052v81.707l-7.052,7.052
			c-2.494,2.838-3.956,6.192-3.956,9.891s1.376,7.311,3.956,9.891c2.15,1.978,4.644,3.182,7.311,3.698V262.494z M231.185,315.215
			l-109.659-52.121l0.001-16.255c2.58-0.516,4.989-1.806,6.794-3.612l47.906-47.906l47.906,47.906
			c2.064,1.892,4.472,3.097,7.052,3.698V315.215z M228.09,239.357l-49.884-49.884c-0.602-0.602-1.118-0.86-1.978-0.86
			s-1.376,0.258-1.978,0.86l-49.884,49.884c-3.096,3.097-8.429,3.097-11.525,0c-1.72-1.72-2.494-3.698-2.494-5.935
			c0-2.236,1.118-4.472,2.494-5.935l49.884-49.884c1.118-1.118,1.118-2.838,0-3.956l-49.884-49.884
			c-3.096-3.097-3.096-8.429,0-11.525c1.204-1.204,2.752-1.978,4.386-2.236c0.344,0.172,0.774,0.258,1.204,0.258
			c0.43,0,0.86-0.086,1.204-0.258c1.72,0.258,3.44,0.946,4.73,2.236l49.884,49.884c1.118,1.118,2.838,1.118,3.956,0l49.884-49.884
			c3.096-3.097,8.429-3.097,11.525,0c3.096,3.097,3.096,8.429,0,11.525l-49.884,49.884c-1.118,1.118-1.118,2.838,0,3.956
			l49.884,49.884c1.72,1.72,2.494,3.698,2.494,5.935c0,2.236-1.118,4.472-2.494,5.935
			C236.519,242.454,231.187,242.454,228.09,239.357z M121.184,210.889v-70.439l35.263,35.177L121.184,210.889z M231.187,140.363
			v70.439l-35.263-35.177L231.187,140.363z M346.78,289.757L236.863,315.99v-69.064c2.58-0.516,4.988-1.806,7.052-3.698
			c2.494-2.838,3.956-6.193,3.956-9.891s-1.376-7.311-3.956-9.891l-7.052-7.052v-81.707l7.052-7.052
			c5.333-5.333,5.333-14.105,0-19.438c-2.064-1.892-4.472-3.097-7.052-3.698V89.275L346.78,63.301V289.757z"/>
	</g>
</g>
<g>
</g>
<g>
</g>
<g>
</g>
<g>
</g>
<g>
</g>
<g>
</g>
<g>
</g>
<g>
</g>
<g>
</g>
<g>
</g>
<g>
</g>
<g>
</g>
<g>
</g>
<g>
</g>
<g>
</g>
</svg>
