<?xml version="1.0" encoding="iso-8859-1"?>
<!-- Generator: Adobe Illustrator 19.0.0, SVG Export Plug-In . SVG Version: 6.00 Build 0)  -->
<svg version="1.1" id="Layer_1" xmlns="http://www.w3.org/2000/svg" xmlns:xlink="http://www.w3.org/1999/xlink" x="0px" y="0px"
	 viewBox="0 0 352.112 352.112" style="enable-background:new 0 0 352.112 352.112;" xml:space="preserve">
<g>
	<g>
		<path d="M176.013,0c-31.564,0-57.539,25.63-57.539,57.539c0,30.705,24.167,55.99,54.7,57.453v185.001
			c0,1.72,1.118,2.838,2.838,2.838s2.838-1.376,2.838-2.838V114.991c30.533-1.462,54.701-26.834,54.701-57.453
			C233.551,25.974,207.577,0,176.013,0z M176.013,109.142c-28.468,0-51.862-23.394-51.862-51.862
			c0-28.468,23.05-51.862,51.862-51.862c28.726,0,51.862,23.394,51.862,51.862C227.875,85.748,204.481,109.142,176.013,109.142z"/>
	</g>
</g>
<g>
	<g>
		<path d="M176.012,19.179c-1.72,0-2.838,1.118-2.838,2.838c0,1.72,1.118,2.839,2.839,2.839c18.062,0,32.941,14.621,32.941,32.941
			c0,1.72,1.118,2.838,2.838,2.838c1.72,0,2.838-1.118,2.838-2.838C214.629,36.638,197.428,19.179,176.012,19.179z"/>
	</g>
</g>
<g>
	<g>
		<path d="M201.642,250.969c-1.72-0.258-2.838,0.86-3.096,2.494c-0.258,1.72,0.86,3.097,2.494,3.097
			c59.173,4.214,103.983,23.394,103.983,44.552c0,24.512-58.915,45.411-128.838,45.411s-128.839-20.9-128.839-45.412
			c0-21.157,44.552-40.337,103.983-44.552c1.376-0.258,2.494-1.376,2.494-3.097c-0.258-1.376-1.376-2.494-3.096-2.494
			c-64.592,4.473-109.401,25.115-109.401,50.142c0,28.468,58.915,51.002,134.429,51.002s134.429-22.534,135.031-51.002
			C311.044,276.082,265.89,255.441,201.642,250.969z"/>
	</g>
</g>
<g>
	<g>
		<path d="M187.452,283.135c-1.72-0.258-2.838,0.86-3.096,2.494c-0.258,1.72,1.118,2.838,2.494,3.097
			c19.179,1.978,30.447,8.171,30.447,12.987c0,5.333-15.825,13.245-41.455,13.245c-25.63,0-41.455-7.569-41.455-13.245
			c0.171-5.075,11.438-11.267,30.617-12.987c1.376-0.258,2.838-1.72,2.494-3.097c-0.258-1.376-1.376-2.838-3.096-2.494
			c-21.416,1.978-35.521,9.289-35.521,18.32c0,12.127,24.254,18.921,47.046,18.921c22.792,0,47.046-6.45,47.046-18.921
			C222.973,292.424,209.125,285.113,187.452,283.135z"/>
	</g>
</g>
<g>
</g>
<g>
</g>
<g>
</g>
<g>
</g>
<g>
</g>
<g>
</g>
<g>
</g>
<g>
</g>
<g>
</g>
<g>
</g>
<g>
</g>
<g>
</g>
<g>
</g>
<g>
</g>
<g>
</g>
</svg>
