<?xml version="1.0" encoding="iso-8859-1"?>
<!-- Generator: Adobe Illustrator 19.0.0, SVG Export Plug-In . SVG Version: 6.00 Build 0)  -->
<svg version="1.1" id="Layer_1" xmlns="http://www.w3.org/2000/svg" xmlns:xlink="http://www.w3.org/1999/xlink" x="0px" y="0px"
	 viewBox="0 0 352.457 352.457" style="enable-background:new 0 0 352.457 352.457;" xml:space="preserve">
<g>
	<g>
		<path d="M351.167,58.213c-0.86-0.602-1.72-0.86-2.494-0.602l-113.873,27.78L121.098,31.293c-0.516-1.204-1.978-1.806-3.269-1.548
			L2.236,57.353C0.86,57.611,0,58.73,0,60.191v231.961c0,0.86,0.602,1.72,1.118,2.236c0.602,0.258,1.118,0.602,1.72,0.602
			c0.258,0,0.602,0,0.86,0l114.303-27.35l114.905,54.615c0.258,0.258,0.86,0.258,1.118,0.258s0.602,0,0.602,0.258l115.594-27.609
			c1.376-0.258,2.236-1.376,2.236-2.838V60.363C352.285,59.59,352.027,58.729,351.167,58.213z M231.101,315.374l-109.659-52.121
			v-31.736c14.277,13.503,33.542,21.76,54.7,21.76c21.243,0,40.681-8.343,54.959-22.018V315.374z M176.142,247.601
			c-40.853,0-74.138-33.285-74.138-74.139c0-40.854,33.199-74.138,74.138-74.138c40.853,0,74.138,33.284,74.138,74.138
			S216.996,247.601,176.142,247.601z M236.777,316.407v-90.48c0-0.172,0-0.43-0.086-0.602
			c11.955-13.933,19.179-32.081,19.179-51.862c0-43.95-35.779-79.814-79.814-79.814c-21.243,0-40.681,8.343-54.959,22.018V69.222
			c0-1.72-1.118-2.838-2.838-2.838c-1.72,0-2.838,1.118-2.838,2.838v52.121c0,0.086,0,0.172,0,0.344
			c-11.955,13.933-19.179,32.081-19.179,51.862c0,19.868,7.311,38.101,19.438,52.121v36.639L5.849,288.54V62.17l109.659-26.146
			v13.761c0,1.72,1.118,2.838,2.838,2.838s2.838-1.376,2.838-2.838V37.572l109.917,52.293v17.718c0,1.72,1.118,2.838,2.838,2.838
			c1.72,0,2.838-1.376,2.838-2.838V90.724L346.694,63.89l0.001,226.285L236.777,316.407z"/>
	</g>
</g>
<g>
	<g>
		<path d="M220.35,173.462c0-4.817-3.698-8.429-8.171-8.429h-71.3c-4.472,0-8.171,3.698-8.171,8.429c0,4.73,3.698,8.429,8.171,8.429
			h71.3C216.996,181.891,220.608,178.193,220.35,173.462z M212.265,176.645h-71.3c-1.376,0-2.494-1.118-2.494-2.838
			s1.118-2.838,2.494-2.838h71.3c1.376-0.001,2.494,1.376,2.494,2.838C214.759,175.527,213.641,176.645,212.265,176.645z"/>
	</g>
</g>
<g>
	<g>
		<path d="M229.037,130.029c-0.86-1.118-2.838-1.118-3.956-0.258c-1.118,0.86-1.118,2.838-0.258,3.956
			c9.03,11.267,14.105,25.372,14.105,39.735c0,34.661-28.468,63.129-63.129,63.129c-34.661,0-63.129-28.468-63.129-63.129
			c0-34.661,28.21-63.129,63.129-63.129c12.385,0,24.254,3.698,34.661,10.407c1.376,0.86,3.096,0.602,3.956-0.86
			c0.86-1.376,0.602-3.097-0.86-3.956c-11.267-7.311-24.254-11.267-37.757-11.267c-37.757,0-68.806,31.048-68.806,68.806
			c0,37.757,30.79,68.806,68.805,68.806c38.015,0,68.806-31.048,68.462-68.806C244.26,157.637,238.927,142.156,229.037,130.029z"/>
	</g>
</g>
<g>
</g>
<g>
</g>
<g>
</g>
<g>
</g>
<g>
</g>
<g>
</g>
<g>
</g>
<g>
</g>
<g>
</g>
<g>
</g>
<g>
</g>
<g>
</g>
<g>
</g>
<g>
</g>
<g>
</g>
</svg>
