<?xml version="1.0" encoding="iso-8859-1"?>
<!-- Generator: Adobe Illustrator 19.0.0, SVG Export Plug-In . SVG Version: 6.00 Build 0)  -->
<svg version="1.1" id="Layer_1" xmlns="http://www.w3.org/2000/svg" xmlns:xlink="http://www.w3.org/1999/xlink" x="0px" y="0px"
	 viewBox="0 0 352.371 352.371" style="enable-background:new 0 0 352.371 352.371;" xml:space="preserve">
<g>
	<g>
		<path d="M351.167,58.041c-0.86-0.602-1.72-0.86-2.494-0.602L234.025,85.134L121.098,31.379c-0.516-1.204-1.978-1.806-3.269-1.548
			L2.236,57.439C0.86,57.697,0,58.816,0,60.277v231.961c0,0.86,0.602,1.72,1.118,2.236c0.602,0.258,1.118,0.602,1.72,0.602
			c0.258,0,0.602,0,0.86,0l114.303-27.35l114.905,54.615c0.258,0.258,0.86,0.258,1.118,0.258c0.172,0,0.344,0,0.516-0.086v0.086
			l115.594-27.609c1.376-0.258,2.236-1.376,2.236-2.838V60.191C352.285,59.418,351.769,58.557,351.167,58.041z M231.101,315.546
			l-109.659-52.121v-31.995c14.277,13.418,33.542,21.675,54.701,21.675c21.243,0,40.681-8.343,54.959-22.018V315.546z
			 M176.143,247.428c-40.853,0-74.138-33.285-74.138-74.138s33.199-74.138,74.138-74.138c40.853,0,74.138,33.284,74.138,74.138
			S216.996,247.428,176.143,247.428z M236.777,316.235v-90.479c0-0.172,0-0.43-0.086-0.602
			c11.955-13.933,19.179-32.081,19.179-51.862c0-43.95-35.779-79.814-79.814-79.814c-21.243,0-40.681,8.343-54.959,22.018V69.051
			c0-1.72-1.118-2.838-2.838-2.838c-1.72,0-2.838,1.118-2.838,2.838v52.121c0,0.086,0,0.172,0,0.344
			c-11.955,13.933-19.179,32.081-19.179,51.862c0,19.954,7.311,38.187,19.437,52.207c0,0.086,0,0.172,0,0.258v36.639L5.763,288.712
			V62.342l109.659-26.146v13.503c0,1.72,1.118,2.838,2.838,2.838s2.838-1.376,2.838-2.838V37.744l109.917,52.292v17.46
			c0,1.72,1.118,2.838,2.838,2.838s2.838-1.376,2.838-2.838V90.295l109.918-26.49v226.198h0.086L236.777,316.235z"/>
	</g>
</g>
<g>
	<g>
		<path d="M215.276,153.509c-3.354-3.269-8.429-3.269-11.783,0.086l-32.683,32.683l-16.943-16.943
			c-3.354-3.354-8.429-3.354-11.869,0c-3.096,3.354-3.096,8.429,0,11.869l22.534,22.534c1.72,1.72,3.698,2.494,5.935,2.494
			c2.236,0,4.214-0.86,6.193-2.236l38.617-38.617c1.72-1.72,2.494-3.698,2.494-5.935S216.91,155.229,215.276,153.509z
			 M210.46,161.164l-38.617,38.617c-0.86,1.118-2.494,1.118-3.698,0l-22.534-22.534c-1.118-0.86-1.118-2.494,0-3.698
			c0.602-0.602,1.376-0.86,1.978-0.86c0.86,0,1.376,0.258,1.72,0.258l18.921,18.921c0.602,0.602,1.118,0.86,1.978,0.86
			c0.86,0,1.376-0.258,1.978-0.86l34.661-34.661c0.86-1.118,2.494-1.118,3.698,0c0.516,0.602,0.774,1.204,0.774,1.978
			C211.32,160.046,211.062,160.562,210.46,161.164z"/>
	</g>
</g>
<g>
	<g>
		<path d="M229.037,129.857c-0.86-1.118-2.838-1.118-3.956-0.258c-1.118,0.86-1.118,2.838-0.258,3.956
			c9.03,11.267,14.105,25.372,14.105,39.735c0,34.661-28.468,63.129-63.129,63.129c-34.661,0-63.129-28.468-63.129-63.129
			c0-34.661,28.21-63.129,63.129-63.129c12.385,0,24.254,3.698,34.661,10.407c1.376,0.86,3.096,0.602,3.956-0.86
			c0.86-1.376,0.602-3.097-0.86-3.956c-11.267-7.311-24.254-11.267-37.757-11.267c-37.757,0-68.806,30.704-68.806,68.806
			c0.086,37.757,30.79,68.806,68.805,68.806c38.015,0,68.806-31.048,68.462-68.806C244.26,157.465,238.927,141.984,229.037,129.857z
			"/>
	</g>
</g>
<g>
</g>
<g>
</g>
<g>
</g>
<g>
</g>
<g>
</g>
<g>
</g>
<g>
</g>
<g>
</g>
<g>
</g>
<g>
</g>
<g>
</g>
<g>
</g>
<g>
</g>
<g>
</g>
<g>
</g>
</svg>
