<?xml version="1.0" encoding="iso-8859-1"?>
<!-- Generator: Adobe Illustrator 19.0.0, SVG Export Plug-In . SVG Version: 6.00 Build 0)  -->
<svg version="1.1" id="Layer_1" xmlns="http://www.w3.org/2000/svg" xmlns:xlink="http://www.w3.org/1999/xlink" x="0px" y="0px"
	 viewBox="0 0 498 498" style="enable-background:new 0 0 498 498;" xml:space="preserve">
<g>
	<g>
		<path d="M248.7,199.3c-27.4,0-49.7,22.3-49.7,49.7s22.3,49.7,49.7,49.7s49.7-22.3,49.7-49.7C298.4,221.6,276.1,199.3,248.7,199.3z
			 M248.7,292.7c-24.1,0-43.7-19.6-43.7-43.7s19.6-43.7,43.7-43.7c24.1,0,43.7,19.6,43.7,43.7C292.4,273.1,272.8,292.7,248.7,292.7z
			"/>
	</g>
</g>
<g>
	<g>
		<path d="M202.6,256.8L58.7,249l144-7.8c1.6-0.1,2.9-1.5,2.8-3.2c-0.1-1.6-1.5-2.9-3.2-2.8L2.8,246c-1.6,0.1-2.8,1.4-2.8,3
			c0,1.6,1.2,2.9,2.8,3l199.5,10.8c0.1,0,0.1,0,0.2,0c1.5,0,2.9-1.3,2.9-2.8C205.5,258.3,204.3,256.9,202.6,256.8z"/>
	</g>
</g>
<g>
	<g>
		<path d="M495.2,246l-199.5-10.8c-1.7-0.1-3.1,1.1-3.2,2.8c-0.1,1.7,1.1,3.1,2.8,3.2l143.9,7.8l-143.9,7.8
			c-1.6,0.1-2.9,1.5-2.8,3.2c0.1,1.6,1.4,2.8,3,2.8c0.1,0,0.2,0,0.2,0L495.2,252c1.6-0.1,2.8-1.4,2.8-3
			C498,247.4,496.8,246.1,495.2,246z"/>
	</g>
</g>
<g>
	<g>
		<path d="M260,292.5c-1.7-0.1-3.1,1.1-3.2,2.8l-7.8,144l-7.8-144c-0.1-1.6-1.6-2.9-3.2-2.8c-1.6,0.1-2.9,1.5-2.8,3.2L246,495.2
			c0.1,1.6,1.4,2.8,3,2.8c1.6,0,2.9-1.2,3-2.8l10.8-199.5C262.9,294,261.7,292.6,260,292.5z"/>
	</g>
</g>
<g>
	<g>
		<path d="M252,2.8c-0.1-1.6-1.4-2.8-3-2.8c-1.6,0-2.9,1.2-3,2.8l-10.8,199.5c-0.1,1.7,1.1,3.1,2.8,3.2c1.7,0.1,3.1-1.1,3.2-2.8
			l7.8-144l7.8,144c0.1,1.6,1.4,2.8,3,2.8c0,0,0.1,0,0.2,0c1.6-0.1,2.9-1.5,2.8-3.2L252,2.8z"/>
	</g>
</g>
<g>
	<g>
		<path d="M211.3,222.1l-62.5-76.3c-1-1.3-2.9-1.4-4.2-0.4c-1.3,1-1.4,2.9-0.4,4.2l62.5,76.3c0.6,0.7,1.4,1.1,2.3,1.1
			c0.7,0,1.4-0.2,1.9-0.7C212.2,225.3,212.3,223.4,211.3,222.1z"/>
	</g>
</g>
<g>
	<g>
		<path d="M224.7,207.9l-76.3-62.5c-1.3-1.1-3.2-0.9-4.2,0.4c-1.1,1.3-0.9,3.2,0.4,4.2l76.4,62.4c0.6,0.5,1.2,0.7,1.9,0.7
			c0.8,0,1.7-0.3,2.2-1C226.2,210.8,226,208.9,224.7,207.9z"/>
	</g>
</g>
<g>
	<g>
		<path d="M353.3,350.2l-62.5-76.3c-1-1.3-2.9-1.4-4.2-0.4s-1.4,2.9-0.4,4.2l62.5,76.3c0.6,0.7,1.4,1.1,2.3,1.1
			c0.6,0,1.3-0.2,1.9-0.7C354.2,353.4,354.3,351.5,353.3,350.2z"/>
	</g>
</g>
<g>
	<g>
		<path d="M352.9,349.8l-76.4-62.5c-1.3-1.1-3.2-0.9-4.2,0.4c-1.1,1.3-0.9,3.2,0.4,4.2l76.4,62.5c0.6,0.5,1.2,0.7,1.9,0.7
			c0.8,0,1.7-0.4,2.3-1.1C354.4,352.7,354.2,350.8,352.9,349.8z"/>
	</g>
</g>
<g>
	<g>
		<path d="M405.5,92.2C363.6,50.4,308,27.3,248.7,27.3c-59.3,0-114.9,23-156.8,64.9C50,134.1,27,189.8,27,249s23,114.9,64.9,156.8
			c41.9,41.8,97.6,64.9,156.8,64.9s114.9-23.1,156.8-64.9c41.8-41.9,64.9-97.6,64.9-156.8C470.4,189.7,447.4,134.1,405.5,92.2z
			 M248.7,464.7C129.8,464.7,33,367.9,33,249S129.8,33.3,248.7,33.3S464.4,130.1,464.4,249S367.6,464.7,248.7,464.7z"/>
	</g>
</g>
<g>
	<g>
		<path d="M225.1,287.7c-1-1.3-2.9-1.4-4.2-0.4l-76.3,62.5c-1.3,1-1.4,2.9-0.4,4.2c0.6,0.7,1.4,1.1,2.3,1.1c0.7,0,1.4-0.2,1.9-0.7
			l76.3-62.5C226,290.9,226.1,289,225.1,287.7z"/>
	</g>
</g>
<g>
	<g>
		<path d="M210.9,273.5c-1.3-1.1-3.2-0.9-4.2,0.4l-62.5,76.3c-1.1,1.3-0.9,3.2,0.4,4.2c0.6,0.5,1.2,0.7,1.9,0.7
			c0.9,0,1.8-0.4,2.4-1.1l62.4-76.3C212.4,276.4,212.2,274.5,210.9,273.5z"/>
	</g>
</g>
<g>
	<g>
		<path d="M353.3,145.7c-1-1.3-2.9-1.4-4.2-0.4l-76.4,62.5c-1.3,1-1.4,2.9-0.4,4.2c0.6,0.7,1.4,1.1,2.3,1.1c0.7,0,1.4-0.2,1.9-0.7
			l76.4-62.5C354.2,148.9,354.3,147,353.3,145.7z"/>
	</g>
</g>
<g>
	<g>
		<path d="M352.9,145.4c-1.3-1.1-3.2-0.9-4.2,0.4l-62.5,76.3c-1.1,1.3-0.9,3.2,0.4,4.2c0.6,0.5,1.2,0.7,1.9,0.7
			c0.9,0,1.7-0.4,2.3-1.1l62.5-76.3C354.4,148.3,354.2,146.4,352.9,145.4z"/>
	</g>
</g>
<g>
	<g>
		<path d="M273.5,239.7c-0.6-1.6-2.3-2.4-3.9-1.8c-1.6,0.6-2.4,2.3-1.8,3.9c0.9,2.3,1.3,4.7,1.3,7.2c0,11.3-9.2,20.4-20.4,20.4
			c-11.3,0-20.4-9.2-20.4-20.4c0-11.3,9.2-20.4,20.4-20.4c2.5,0,4.8,0.5,7.1,1.3c1.6,0.5,3.3-0.2,3.9-1.8c0.5-1.6-0.2-3.3-1.8-3.9
			c-2.9-1-6-1.6-9.2-1.6c-14.6,0-26.4,11.8-26.4,26.4c0,14.6,11.8,26.4,26.4,26.4c14.5,0,26.4-11.8,26.5-26.4
			C275.2,245.8,274.6,242.7,273.5,239.7z"/>
	</g>
</g>
<g>
	<g>
		<path d="M395.1,128.1c-1-1.3-2.9-1.5-4.2-0.4c-1.3,1-1.5,2.9-0.4,4.2c27.6,33.1,42.8,75,42.8,118c0,101.7-82.8,184.5-184.5,184.5
			S64.3,351.6,64.3,249.9S147,65.4,248.8,65.4c43,0,84.9,15.2,118,42.8c1.2,1,3.1,0.9,4.2-0.4c1-1.2,0.9-3.1-0.4-4.2
			c-34.1-28.5-77.4-44.2-121.8-44.2c-105,0-190.5,85.5-190.5,190.5s85.5,190.5,190.5,190.5S439.3,355,439.3,250
			C439.3,205.5,423.6,162.3,395.1,128.1z"/>
	</g>
</g>
<g>
</g>
<g>
</g>
<g>
</g>
<g>
</g>
<g>
</g>
<g>
</g>
<g>
</g>
<g>
</g>
<g>
</g>
<g>
</g>
<g>
</g>
<g>
</g>
<g>
</g>
<g>
</g>
<g>
</g>
</svg>
