<?xml version="1.0" encoding="iso-8859-1"?>
<!-- Generator: Adobe Illustrator 19.0.0, SVG Export Plug-In . SVG Version: 6.00 Build 0)  -->
<svg version="1.1" id="Layer_1" xmlns="http://www.w3.org/2000/svg" xmlns:xlink="http://www.w3.org/1999/xlink" x="0px" y="0px"
	 viewBox="0 0 498 498" style="enable-background:new 0 0 498 498;" xml:space="preserve">
<g>
	<g>
		<path d="M364.3,133.8c-0.9-0.9-2.3-1.1-3.5-0.5l-147.1,79.1c-0.5,0.3-0.9,0.7-1.2,1.2l-79.1,147.1c-0.6,1.1-0.4,2.6,0.5,3.5
			c0.6,0.6,1.3,0.9,2.1,0.9c0.5,0,1-0.1,1.4-0.4l147.1-79.1c0.5-0.3,0.9-0.7,1.2-1.2l79.1-147.1
			C365.4,136.2,365.2,134.7,364.3,133.8z M280.9,280.8l-137.5,74l74-137.5l137.5-74L280.9,280.8z"/>
	</g>
</g>
<g>
	<g>
		<path d="M265,233c-4.3-4.2-10-6.6-16-6.6c-12.4,0-22.6,10.1-22.6,22.6c0,12.4,10.1,22.6,22.6,22.6s22.6-10.1,22.6-22.6
			C271.6,243,269.3,237.3,265,233z M249,265.6c-9.1,0-16.6-7.4-16.6-16.6c0-9.1,7.4-16.6,16.6-16.6c4.4,0,8.6,1.7,11.7,4.8
			c3.2,3.2,4.9,7.4,4.9,11.8C265.6,258.1,258.2,265.6,249,265.6z"/>
	</g>
</g>
<g>
	<g>
		<path d="M249,0C111.7,0,0,111.7,0,249s111.7,249,249,249s249-111.7,249-249S386.3,0,249,0z M249,492C115,492,6,383,6,249
			S115,6,249,6s243,109,243,243S383,492,249,492z"/>
	</g>
</g>
<g>
	<g>
		<path d="M416.4,109.7c-1-1.3-2.9-1.5-4.2-0.4c-1.3,1-1.5,2.9-0.4,4.2c31.7,38,49.1,86.1,49.1,135.5c0,116.8-95,211.8-211.8,211.8
			S37.3,365.8,37.3,249s95-211.8,211.8-211.8c49.3,0,97.4,17.4,135.4,49.1c1.2,1,3.1,0.9,4.2-0.4c1-1.2,0.9-3.1-0.4-4.2
			c-39-32.6-88.5-50.5-139.3-50.5C128.9,31.2,31.2,128.9,31.2,249S128.9,466.8,249,466.8S466.8,369.1,466.9,249
			C466.9,198.2,449,148.7,416.4,109.7z"/>
	</g>
</g>
<g>
	<g>
		<path d="M237.3,233l-20-20c-1.1-1.2-3-1.2-4.2,0c-1.2,1.1-1.2,3,0,4.2l20,20c0.6,0.6,1.3,0.9,2.1,0.9c0.7,0,1.5-0.3,2.1-0.9
			C238.5,236.1,238.5,234.2,237.3,233z"/>
	</g>
</g>
<g>
	<g>
		<path d="M283.6,279.3l-18-18.1c-1.1-1.2-3-1.2-4.2,0c-1.2,1.1-1.2,3,0,4.2l18,18.1c0.6,0.6,1.3,0.9,2.1,0.9s1.5-0.3,2.1-0.9
			C284.8,282.4,284.8,280.5,283.6,279.3z"/>
	</g>
</g>
<g>
</g>
<g>
</g>
<g>
</g>
<g>
</g>
<g>
</g>
<g>
</g>
<g>
</g>
<g>
</g>
<g>
</g>
<g>
</g>
<g>
</g>
<g>
</g>
<g>
</g>
<g>
</g>
<g>
</g>
</svg>
