<?xml version="1.0" encoding="iso-8859-1"?>
<!-- Generator: Adobe Illustrator 19.0.0, SVG Export Plug-In . SVG Version: 6.00 Build 0)  -->
<svg version="1.1" id="Layer_1" xmlns="http://www.w3.org/2000/svg" xmlns:xlink="http://www.w3.org/1999/xlink" x="0px" y="0px"
	 viewBox="0 0 498 498" style="enable-background:new 0 0 498 498;" xml:space="preserve">
<g>
	<g>
		<path d="M425.1,72.9C378,25.9,315.5,0,249,0S120,25.9,72.9,72.9C25.9,120,0,182.5,0,249s25.9,129,72.9,176.1
			C120,472.1,182.5,498,249,498s129-25.9,176.1-72.9C472.1,378,498,315.5,498,249S472.1,119.9,425.1,72.9z M249,492
			C115,492,6,383,6,249S115,6,249,6s243,109,243,243S383,492,249,492z"/>
	</g>
</g>
<g>
	<g>
		<path d="M249,76.4c-95.2,0-172.6,77.4-172.6,172.6S153.8,421.6,249,421.6S421.6,344.2,421.6,249S344.2,76.4,249,76.4z M249,415.6
			c-91.9,0-166.6-74.7-166.6-166.6S157.1,82.4,249,82.4S415.6,157.1,415.6,249S340.9,415.6,249,415.6z"/>
	</g>
</g>
<g>
	<g>
		<path d="M336.3,159c-7.2-0.1-14.7,0.4-22.3,1.5c-1.6,0.2-2.7,1.8-2.5,3.4c0.2,1.6,1.8,2.7,3.4,2.5c6.3-0.9,12.5-1.4,18.5-1.5
			c-0.5,40.9-19.5,83.1-52.4,116c-32.9,32.9-75,51.8-116,52.3c0.4-41,19.4-83.1,52.3-116c21.4-21.4,47.1-37.2,74.3-45.6
			c1.6-0.5,2.5-2.2,2-3.8c-0.5-1.6-2.2-2.5-3.8-2c-28.1,8.7-54.7,25-76.8,47.1c-34.8,34.9-54.5,79.8-54.1,123.3c0,1.7,1.4,3,3,3
			c0.5,0,1,0,1.5,0c43,0,87.3-19.7,121.8-53.9c34.8-34.9,54.6-79.8,54.1-123.3C339.2,160.3,337.9,159,336.3,159z"/>
	</g>
</g>
<g>
	<g>
		<path d="M249,226.4c-12.5,0-22.6,10.1-22.6,22.6s10.1,22.6,22.6,22.6s22.6-10.1,22.6-22.6S261.5,226.4,249,226.4z M249,265.6
			c-9.1,0-16.6-7.4-16.6-16.6c0-9.1,7.4-16.6,16.6-16.6s16.6,7.4,16.6,16.6C265.6,258.1,258.2,265.6,249,265.6z"/>
	</g>
</g>
<g>
	<g>
		<path d="M249,43.1c-1.7,0-3,1.3-3,3v58.5c0,1.7,1.3,3,3,3s3-1.4,3-3V46.1C252,44.4,250.7,43.1,249,43.1z"/>
	</g>
</g>
<g>
	<g>
		<path d="M249,390.4c-1.7,0-3,1.3-3,3v58.5c0,1.7,1.3,3,3,3s3-1.3,3-3v-58.5C252,391.7,250.7,390.4,249,390.4z"/>
	</g>
</g>
<g>
	<g>
		<path d="M176.4,117.7l-9.8-17c-0.8-1.4-2.7-1.9-4.1-1.1s-1.9,2.7-1.1,4.1l9.8,17c0.6,1,1.6,1.5,2.6,1.5c0.5,0,1-0.1,1.5-0.4
			C176.7,121,177.2,119.1,176.4,117.7z"/>
	</g>
</g>
<g>
	<g>
		<path d="M336.2,394.6l-9.8-17c-0.8-1.4-2.7-1.9-4.1-1.1c-1.4,0.8-1.9,2.7-1.1,4.1l9.8,17c0.6,1,1.6,1.5,2.6,1.5
			c0.5,0,1-0.2,1.5-0.4C336.5,397.9,337,396,336.2,394.6z"/>
	</g>
</g>
<g>
	<g>
		<path d="M120.3,171.5l-17-9.8c-1.4-0.8-3.3-0.3-4.1,1.1c-0.8,1.4-0.3,3.3,1.1,4.1l17,9.8c0.5,0.3,1,0.4,1.5,0.4
			c1.1,0,2.1-0.5,2.6-1.5C122.2,174.2,121.7,172.3,120.3,171.5z"/>
	</g>
</g>
<g>
	<g>
		<path d="M397.2,331.3l-17-9.8c-1.4-0.8-3.3-0.3-4.1,1.1c-0.8,1.4-0.3,3.3,1.1,4.1l17,9.8c0.5,0.3,1,0.4,1.5,0.4c1,0,2-0.5,2.6-1.5
			C399.1,334,398.6,332.1,397.2,331.3z"/>
	</g>
</g>
<g>
	<g>
		<path d="M121.4,322.6c-0.8-1.4-2.7-1.9-4.1-1.1l-17,9.8c-1.4,0.8-1.9,2.7-1.1,4.1c0.6,1,1.6,1.5,2.6,1.5c0.5,0,1.1-0.1,1.5-0.4
			l17-9.8C121.7,325.9,122.2,324,121.4,322.6z"/>
	</g>
</g>
<g>
	<g>
		<path d="M398.3,162.8c-0.8-1.4-2.7-1.9-4.1-1.1l-17,9.8c-1.4,0.8-1.9,2.7-1.1,4.1c0.6,1,1.6,1.5,2.6,1.5c0.5,0,1-0.1,1.5-0.4
			l17-9.8C398.6,166.1,399.1,164.2,398.3,162.8z"/>
	</g>
</g>
<g>
	<g>
		<path d="M175.2,376.5c-1.4-0.8-3.3-0.3-4.1,1.1l-9.8,17c-0.8,1.4-0.3,3.3,1.1,4.1c0.5,0.3,1,0.4,1.5,0.4c1.1,0,2.1-0.6,2.6-1.5
			l9.8-17C177.1,379.2,176.6,377.3,175.2,376.5z"/>
	</g>
</g>
<g>
	<g>
		<path d="M335.1,99.6c-1.4-0.8-3.3-0.3-4.1,1.1l-9.8,17c-0.8,1.4-0.3,3.3,1.1,4.1c0.5,0.3,1,0.4,1.5,0.4c1,0,2-0.6,2.6-1.5l9.8-17
			C337,102.3,336.5,100.4,335.1,99.6z"/>
	</g>
</g>
<g>
	<g>
		<path d="M104.6,246H46.1c-1.7,0-3,1.3-3,3s1.3,3,3,3h58.5c1.6,0,3-1.3,3-3S106.3,246,104.6,246z"/>
	</g>
</g>
<g>
	<g>
		<path d="M451.9,246h-58.5c-1.7,0-3,1.3-3,3s1.3,3,3,3h58.5c1.7,0,3-1.3,3-3S453.6,246,451.9,246z"/>
	</g>
</g>
<g>
	<g>
		<path d="M249,39.5c-115.5,0-209.5,94-209.5,209.5s94,209.5,209.5,209.5s209.5-94,209.5-209.5S364.5,39.5,249,39.5z M249,452.5
			c-112.2,0-203.5-91.3-203.5-203.5S136.8,45.5,249,45.5S452.5,136.8,452.5,249S361.2,452.5,249,452.5z"/>
	</g>
</g>
<g>
</g>
<g>
</g>
<g>
</g>
<g>
</g>
<g>
</g>
<g>
</g>
<g>
</g>
<g>
</g>
<g>
</g>
<g>
</g>
<g>
</g>
<g>
</g>
<g>
</g>
<g>
</g>
<g>
</g>
</svg>
