<?xml version="1.0" encoding="iso-8859-1"?>
<!-- Generator: Adobe Illustrator 19.0.0, SVG Export Plug-In . SVG Version: 6.00 Build 0)  -->
<svg version="1.1" id="Layer_1" xmlns="http://www.w3.org/2000/svg" xmlns:xlink="http://www.w3.org/1999/xlink" x="0px" y="0px"
	 viewBox="0 0 498 498" style="enable-background:new 0 0 498 498;" xml:space="preserve">
<g>
	<g>
		<path d="M111.9,289c-13,0-23.5,10.5-23.5,23.5S98.9,336,111.9,336c12.9,0,23.5-10.5,23.5-23.5S124.9,289,111.9,289z M111.9,330
			c-9.6,0-17.5-7.9-17.5-17.5c0-9.6,7.9-17.5,17.5-17.5c9.6,0,17.5,7.9,17.5,17.5C129.4,322.1,121.5,330,111.9,330z"/>
	</g>
</g>
<g>
	<g>
		<path d="M236.4,306.7c-13,0-23.5,10.5-23.5,23.5s10.5,23.5,23.5,23.5c12.9,0,23.5-10.5,23.5-23.5S249.4,306.7,236.4,306.7z
			 M236.4,347.7c-9.6,0-17.5-7.9-17.5-17.5c0-9.6,7.9-17.5,17.5-17.5c9.6,0,17.5,7.9,17.5,17.5C253.9,339.8,246,347.7,236.4,347.7z"
			/>
	</g>
</g>
<g>
	<g>
		<path d="M357.4,173.9c-13,0-23.5,10.5-23.5,23.5s10.5,23.5,23.5,23.5s23.5-10.5,23.5-23.5S370.4,173.9,357.4,173.9z M357.4,214.9
			c-9.6,0-17.5-7.9-17.5-17.5c0-9.6,7.9-17.5,17.5-17.5c9.7,0,17.5,7.9,17.5,17.5C374.9,207,367,214.9,357.4,214.9z"/>
	</g>
</g>
<g>
	<g>
		<path d="M335.5,223.6c-1.2-1.1-3.1-1-4.2,0.2l-80.5,88.3c-1.1,1.2-1,3.1,0.2,4.2c0.6,0.5,1.3,0.8,2,0.8c0.8,0,1.6-0.4,2.2-1
			l80.5-88.3C336.8,226.6,336.7,224.7,335.5,223.6z"/>
	</g>
</g>
<g>
	<g>
		<path d="M202.5,320.5l-66.4-8.1c-1.6-0.2-3.1,1-3.3,2.6c-0.2,1.6,1,3.1,2.6,3.3l66.4,8.1c0.2,0,0.3,0,0.4,0c1.5,0,2.8-1.1,2.9-2.6
			C205.3,322.2,204.1,320.7,202.5,320.5z"/>
	</g>
</g>
<g>
	<g>
		<path d="M90.4,336.7c-1.2-1.1-3.1-0.9-4.2,0.3L5.6,429.2c-1.1,1.2-0.9,3.1,0.3,4.2c0.6,0.5,1.3,0.7,2,0.7c0.8,0,1.6-0.3,2.2-1.1
			l80.6-92.1C91.8,339.7,91.6,337.8,90.4,336.7z"/>
	</g>
</g>
<g>
	<g>
		<path d="M474.2,130.5c-0.8-1.5-2.7-1.9-4.1-1.1l-93.7,54.7c-1.5,0.8-1.9,2.7-1.1,4.1c0.6,1,1.6,1.5,2.6,1.5c0.5,0,1.1-0.1,1.5-0.4
			l93.7-54.7C474.6,133.8,475,131.9,474.2,130.5z"/>
	</g>
</g>
<g>
	<g>
		<path d="M460,60.5H38.1C17.8,60.5,0,79.3,0,100.7v333.8c0,1.7,1.3,3,3,3h492c1.7,0,3-1.4,3-3V100.7C498,79.3,480.2,60.5,460,60.5z
			 M492,431.5H6V100.7c0-18.2,15-34.2,32.1-34.2H460c17.1,0,32,16,32,34.2V431.5z"/>
	</g>
</g>
<g>
	<g>
		<path d="M495,111.3H3c-1.7,0-3,1.3-3,3s1.3,3,3,3h492c1.7,0,3-1.3,3-3S496.7,111.3,495,111.3z"/>
	</g>
</g>
<g>
	<g>
		<path d="M36.5,90.9c-1.2-1.1-3.2-1.1-4.3,0c-0.6,0.5-0.9,1.3-0.9,2.1s0.3,1.5,0.9,2.1c0.5,0.6,1.3,0.9,2.1,0.9s1.6-0.3,2.2-0.9
			c0.6-0.5,0.9-1.3,0.9-2.1S37.1,91.4,36.5,90.9z"/>
	</g>
</g>
<g>
	<g>
		<path d="M55.9,90.9c-1.1-1.1-3.1-1.1-4.2,0c-0.6,0.5-0.9,1.3-0.9,2.1s0.3,1.5,0.9,2.1c0.5,0.6,1.3,0.9,2.1,0.9s1.6-0.3,2.1-0.9
			c0.6-0.5,0.9-1.3,0.9-2.1S56.5,91.5,55.9,90.9z"/>
	</g>
</g>
<g>
	<g>
		<path d="M75.5,90.9c-1.2-1.1-3.2-1.1-4.3,0c-0.6,0.5-0.9,1.3-0.9,2.1s0.3,1.5,0.9,2.1c0.5,0.6,1.3,0.9,2.1,0.9s1.6-0.3,2.2-0.9
			c0.6-0.5,0.9-1.3,0.9-2.1S76.1,91.5,75.5,90.9z"/>
	</g>
</g>
<g>
</g>
<g>
</g>
<g>
</g>
<g>
</g>
<g>
</g>
<g>
</g>
<g>
</g>
<g>
</g>
<g>
</g>
<g>
</g>
<g>
</g>
<g>
</g>
<g>
</g>
<g>
</g>
<g>
</g>
</svg>
