<?xml version="1.0" encoding="iso-8859-1"?>
<!-- Generator: Adobe Illustrator 19.0.0, SVG Export Plug-In . SVG Version: 6.00 Build 0)  -->
<svg version="1.1" id="Layer_1" xmlns="http://www.w3.org/2000/svg" xmlns:xlink="http://www.w3.org/1999/xlink" x="0px" y="0px"
	 viewBox="0 0 352.286 352.286" style="enable-background:new 0 0 352.286 352.286;" xml:space="preserve">
<g>
	<g>
		<path d="M217.856,154.082c-1.118-1.118-2.838-1.376-3.956-0.258l-46.358,40.595c-1.892-1.204-4.214-1.978-6.622-1.978
			c-6.794,0-12.385,5.677-12.385,12.385c0,6.708,5.677,12.385,12.385,12.385c6.708,0,12.385-5.677,12.385-12.385
			c0-2.322-0.688-4.558-1.892-6.45l46.1-40.337C218.716,156.92,218.974,155.2,217.856,154.082z M160.919,211.621
			c-3.698,0-6.794-3.097-6.794-6.794c0-3.698,3.096-6.794,6.794-6.794s6.794,3.097,6.794,6.794
			C167.628,208.524,164.532,211.621,160.919,211.621z"/>
	</g>
</g>
<g>
	<g>
		<path d="M142.342,201.386l-40.681-5.763c-0.516-6.279-5.935-11.353-12.385-11.353c-6.794,0-12.385,5.677-12.385,12.385
			c0,6.708,5.677,12.385,12.385,12.385c5.247,0,9.805-3.354,11.611-8.085l40.595,5.763h0.258c1.376,0,2.494-1.118,2.838-2.236
			C144.836,203.106,143.718,201.645,142.342,201.386z M89.275,203.45c-3.698,0-6.794-3.097-6.794-6.794
			c0-3.698,3.096-6.794,6.794-6.794s6.794,3.097,6.794,6.794C96.07,200.354,92.974,203.45,89.275,203.45z"/>
	</g>
</g>
<g>
	<g>
		<path d="M315.13,99.382c-0.86-1.376-2.494-1.978-3.956-1.118l-69.236,36.811c-2.322-2.666-5.677-4.386-9.461-4.386
			c-6.794,0-12.385,5.677-12.385,12.385c0,6.794,5.677,12.385,12.385,12.385s12.385-5.677,12.385-12.385
			c0-0.946-0.086-1.892-0.344-2.838l69.408-36.897C315.388,102.478,315.904,100.843,315.13,99.382z M232.477,150.125
			c-3.698,0-6.794-3.097-6.794-6.794c0-3.698,3.096-6.794,6.794-6.794s6.794,3.097,6.794,6.794
			C239.271,147.029,236.176,150.125,232.477,150.125z"/>
	</g>
</g>
<g>
	<g>
		<path d="M321.839,85.276h-24.512c-1.72,0-2.838,1.118-2.838,2.838s1.118,2.838,2.838,2.838h24.512
			c1.118,0,3.096,0.258,3.096,1.376V260.3c0,1.72-1.978,3.956-3.096,3.956H30.619c-0.172,0-0.344,0-0.516-0.086l48.68-50.916
			c1.118-1.118,1.118-2.838,0-3.956c-1.118-1.118-2.838-1.118-3.956,0l-47.39,49.541V92.329c0-1.376,2.236-1.376,3.096-1.376H278.06
			c1.72,0,2.838-1.118,2.838-2.838s-1.118-2.838-2.838-2.838H30.533c-5.333,0-8.773,2.838-8.773,7.052V260.3
			c0,4.214,3.956,9.547,8.773,9.547h291.22c4.816,0,8.429-5.074,8.773-9.547V92.329C330.611,88.114,327.257,85.276,321.839,85.276z"
			/>
	</g>
</g>
<g>
	<g>
		<path d="M332.589,61.882H19.696C8.687,61.882,0,70.655,0,81.578v189.13c0,11.009,8.773,19.696,19.696,19.696H332.59
			c11.009,0,19.696-8.773,19.696-19.696V81.578C352.285,70.655,343.598,61.882,332.589,61.882z M346.694,271.052
			c0,7.913-6.192,14.105-14.105,14.105H19.696c-7.913,0-14.105-6.193-14.105-14.105V81.922c0-7.913,6.192-14.105,14.105-14.105
			H332.59c7.913,0,14.105,6.192,14.105,14.105L346.694,271.052z"/>
	</g>
</g>
<g>
</g>
<g>
</g>
<g>
</g>
<g>
</g>
<g>
</g>
<g>
</g>
<g>
</g>
<g>
</g>
<g>
</g>
<g>
</g>
<g>
</g>
<g>
</g>
<g>
</g>
<g>
</g>
<g>
</g>
</svg>
