<?xml version="1.0" encoding="iso-8859-1"?>
<!-- Generator: Adobe Illustrator 19.0.0, SVG Export Plug-In . SVG Version: 6.00 Build 0)  -->
<svg version="1.1" id="Layer_1" xmlns="http://www.w3.org/2000/svg" xmlns:xlink="http://www.w3.org/1999/xlink" x="0px" y="0px"
	 viewBox="0 0 352.37 352.37" style="enable-background:new 0 0 352.37 352.37;" xml:space="preserve">
<g>
	<g>
		<path d="M225.252,114.691c-1.118-1.118-2.838-1.376-3.956-0.258L167.8,161.049c-2.236-1.462-4.816-2.322-7.655-2.322
			c-7.569,0-13.847,6.193-13.847,13.847c0,7.569,6.192,13.847,13.847,13.847c7.569,0,13.847-6.193,13.847-13.847
			c0-2.752-0.86-5.333-2.236-7.483l53.238-46.358C226.113,117.443,226.371,115.809,225.252,114.691z M160.145,180.658
			c-4.472,0-8.171-3.698-8.171-8.171c0-4.472,3.698-8.171,8.171-8.171c4.214,0,8.171,3.698,8.171,8.171
			C168.316,176.96,164.618,180.658,160.145,180.658z"/>
	</g>
</g>
<g>
	<g>
		<path d="M138.729,168.876l-47.131-6.795c-0.43-7.224-6.45-13.073-13.761-13.073c-7.569,0-13.847,6.193-13.847,13.847
			c0,7.569,6.193,13.847,13.847,13.847c6.021,0,11.095-3.87,12.987-9.202l47.304,6.708c1.376,0,2.494-0.86,2.838-2.236
			C141.223,170.596,140.105,169.134,138.729,168.876z M77.836,171.283c-4.472,0-8.171-3.698-8.171-8.171
			c0-4.472,3.698-8.171,8.171-8.171c4.472,0,8.171,3.698,8.171,8.171C86.007,167.671,82.309,171.283,77.836,171.283z"/>
	</g>
</g>
<g>
	<g>
		<path d="M327.343,27.566H25.114C11.267,27.566,0,38.833,0,52.679v205.815c0,13.847,11.267,25.114,25.114,25.114h98.65v24.512
			h-19.179c-1.72,0-2.838,1.118-2.838,2.838v11.009c0,1.72,1.118,2.838,2.838,2.838h143.202c1.376,0,2.838-1.118,2.838-2.838
			v-11.009c0-1.72-1.118-2.838-2.838-2.838h-19.179v-24.512h98.65c13.847,0,25.114-11.267,25.114-25.114V52.679
			C352.371,38.832,341.104,27.566,327.343,27.566z M245.034,313.711v5.333H107.423v-5.333h19.179h74.396
			c1.72,0,2.838-1.118,2.838-2.838c0-1.72-1.118-2.838-2.838-2.838h-71.644v-24.512h93.576v27.35
			c0.086,1.634,1.204,2.838,2.925,2.838H245.034z M346.78,258.408c0,10.751-8.773,19.438-19.438,19.438H25.114
			c-10.751,0-19.437-8.773-19.437-19.438v-7.913H346.78V258.408z M346.78,244.82H5.677V52.593c0-10.665,8.687-19.437,19.437-19.437
			h302.229c10.751,0,19.438,8.773,19.438,19.438V244.82z"/>
	</g>
</g>
<g>
	<g>
		<path d="M332.933,43.821h-13.847c-1.72,0-2.838,1.118-2.838,2.838s1.118,2.838,2.838,2.838h8.085l-74.396,43.347
			c-2.494-3.097-6.364-4.989-10.665-4.989c-7.569,0-13.847,6.193-13.847,13.847c0,7.569,6.193,13.847,13.847,13.847
			c7.569,0,13.847-6.193,13.847-13.847c0-1.29-0.172-2.494-0.516-3.612l74.654-43.519v173.735H23.91l41.713-47.046
			c0.86-1.118,0.86-2.838-0.258-3.956c-1.118-1.118-2.838-0.86-3.956,0.258l-39.477,44.552V49.584h264.127
			c1.72,0,2.838-1.118,2.838-2.838c0-1.72-1.118-2.838-2.838-2.838H19.093c-1.72,0-2.838,1.118-2.838,2.838v184.398
			c0.086,1.634,1.204,2.753,2.924,2.753h313.754c1.72,0,2.838-1.118,2.838-2.838v-184.4
			C335.771,44.939,334.653,43.821,332.933,43.821z M242.196,109.874c-4.472,0-8.171-3.698-8.171-8.171
			c0-4.472,3.698-8.171,8.171-8.171s8.171,3.698,8.171,8.171C250.367,106.176,246.668,109.874,242.196,109.874z"/>
	</g>
</g>
<g>
	<g>
		<path d="M176.228,255.57c-4.816,0-8.429,3.698-8.429,8.429s3.956,8.429,8.429,8.429s8.429-3.698,8.429-8.429
			S180.701,255.57,176.228,255.57z M176.228,267.181c-1.72,0-2.838-1.118-2.838-2.838c0-1.72,1.376-2.838,2.838-2.838
			c1.376,0,2.838,1.118,2.838,2.838C178.981,266.063,177.862,267.181,176.228,267.181z"/>
	</g>
</g>
<g>
</g>
<g>
</g>
<g>
</g>
<g>
</g>
<g>
</g>
<g>
</g>
<g>
</g>
<g>
</g>
<g>
</g>
<g>
</g>
<g>
</g>
<g>
</g>
<g>
</g>
<g>
</g>
<g>
</g>
</svg>
