<?xml version="1.0" encoding="iso-8859-1"?>
<!-- Generator: Adobe Illustrator 19.0.0, SVG Export Plug-In . SVG Version: 6.00 Build 0)  -->
<svg version="1.1" id="Layer_1" xmlns="http://www.w3.org/2000/svg" xmlns:xlink="http://www.w3.org/1999/xlink" x="0px" y="0px"
	 viewBox="0 0 352.284 352.284" style="enable-background:new 0 0 352.284 352.284;" xml:space="preserve">
<g>
	<g>
		<path d="M338.524,96.15c-9.03-5.677-20.556-5.333-32.941,0.86l-85.147,42.316c-6.966-6.107-16.169-9.891-26.232-9.891h-36.381
			c-10.063,0-19.265,3.698-26.232,9.891L46.788,97.011c-12.385-6.193-23.996-6.45-32.941-0.86C5.075,101.827,0,112.234,0,125.995
			v100.37c0,13.847,4.816,24.254,13.847,29.845c4.214,2.494,9.03,3.956,14.363,3.956c5.935,0,12.127-1.72,18.577-4.817
			l82.566-41.197c0.086,0,0.172-0.086,0.258-0.172c7.225,7.224,17.201,11.697,28.21,11.697h36.381
			c11.095,0,21.072-4.558,28.296-11.783c0.172,0.086,0.258,0.172,0.43,0.258l82.566,41.197c6.45,3.097,12.643,4.816,18.577,4.816
			c5.075,0,10.149-1.376,14.363-3.956c9.03-5.677,13.847-16.083,13.847-29.845V125.995
			C352.285,112.235,347.468,101.827,338.524,96.15z M44.466,250.361c-10.407,5.333-20.04,5.677-27.35,1.118
			c-7.311-4.472-11.267-13.503-11.267-25.114V125.995c0-11.525,3.956-20.556,11.267-25.114c7.052-4.472,16.943-3.956,27.35,1.118
			l82.997,41.369c-5.849,6.88-9.375,15.74-9.375,25.458v17.46c0,8.773,2.924,16.857,7.827,23.48L44.466,250.361z M194.462,220.173
			h-36.381c-18.921,0-34.145-15.223-34.145-33.801v-17.46c0-18.577,15.223-33.801,34.145-33.801h36.381
			c18.921,0,34.145,15.223,34.145,33.801v17.46C228.521,204.95,213.298,220.173,194.462,220.173z M346.436,226.365h-0.085v0.001
			c0,11.525-3.956,20.556-11.267,25.114c-7.052,4.472-16.943,3.956-27.35-1.118l-81.535-40.681
			c4.816-6.536,7.741-14.621,7.741-23.308v-17.459c0-9.719-3.526-18.577-9.375-25.458l83.255-41.369
			c10.407-5.074,20.04-5.677,27.35-1.118c7.311,4.472,11.267,13.503,11.267,25.114V226.365z"/>
	</g>
</g>
<g>
	<g>
		<path d="M191.022,148.615h-14.965c-1.72,0-2.838,1.118-2.838,2.838s1.118,2.838,2.838,2.838h14.965
			c6.794,0,12.385,5.677,12.385,12.385c0,1.72,1.118,2.838,2.838,2.838c1.72,0,2.838-1.118,2.838-2.838
			C209.083,156.786,200.913,148.615,191.022,148.615z"/>
	</g>
</g>
<g>
	<g>
		<path d="M322.182,124.103c-4.214-2.494-9.891-2.236-15.482,0.602l-37.757,18.577c-1.376,0.602-1.978,2.236-1.376,3.698
			c0.602,1.118,1.376,1.72,2.494,1.72c0.258,0,0.86,0,1.376,0l37.757-18.577c3.956-1.978,7.311-2.236,10.149-0.86
			c1.376,0.86,3.096,0.258,3.956-1.118C324.075,126.598,323.559,124.963,322.182,124.103z"/>
	</g>
</g>
<g>
</g>
<g>
</g>
<g>
</g>
<g>
</g>
<g>
</g>
<g>
</g>
<g>
</g>
<g>
</g>
<g>
</g>
<g>
</g>
<g>
</g>
<g>
</g>
<g>
</g>
<g>
</g>
<g>
</g>
</svg>
