<?xml version="1.0" encoding="iso-8859-1"?>
<!-- Generator: Adobe Illustrator 19.0.0, SVG Export Plug-In . SVG Version: 6.00 Build 0)  -->
<svg version="1.1" id="Layer_1" xmlns="http://www.w3.org/2000/svg" xmlns:xlink="http://www.w3.org/1999/xlink" x="0px" y="0px"
	 viewBox="0 0 352.284 352.284" style="enable-background:new 0 0 352.284 352.284;" xml:space="preserve">
<g>
	<g>
		<path d="M176.099,0C101.359,0,40.81,60.893,40.81,135.289c0,135.633,132.193,215.964,133.655,216.738
			c0.258,0.258,0.86,0.258,1.376,0.258c0.602,0,1.118,0,1.978-0.258c1.118-0.86,133.655-81.191,133.655-216.738
			C311.388,60.549,250.839,0,176.099,0z M175.841,346.437c-14.363-9.289-129.698-86.523-129.698-211.148
			c0-71.644,58.312-129.698,129.698-129.698c71.3,0,129.699,58.054,129.699,129.699
			C305.454,260.172,190.204,337.405,175.841,346.437z"/>
	</g>
</g>
<g>
	<g>
		<path d="M270.793,111.551c-1.978-5.935-7.913-9.891-16.599-11.009l-43.691-6.193l-19.696-39.477
			c-3.956-7.913-9.547-12.385-15.482-12.385c-6.193,0-11.525,4.472-15.482,12.385L140.405,94.35l-9.891,1.376l-33.801,5.074
			c-9.03,1.376-14.621,5.333-16.599,11.009c-1.72,5.333,0.258,11.525,5.677,17.201c0,0.258,0.258,0.602,0.258,0.602l32.683,31.823
			l-7.311,43.433c-1.376,8.773,0.602,15.482,5.333,19.179c2.236,1.72,4.816,2.494,7.913,2.494c3.698,0,7.569-1.118,12.385-3.698
			l38.875-20.556l39.219,20.298c7.913,4.214,14.965,4.472,19.696,0.86c4.73-3.612,6.45-10.407,5.075-19.179l-7.569-43.433
			l31.564-30.704C270.277,124.022,272.771,117.228,270.793,111.551z M226.585,158.081c-0.602,0.602-1.118,1.72-0.86,2.494
			l7.913,44.81c1.376,6.45,0.258,11.267-2.838,13.503c-2.838,2.236-7.913,1.72-13.847-1.376l-40.337-21.157
			c-0.86-0.602-1.72-0.602-2.494,0l-40.337,21.415c-5.677,3.097-10.751,3.698-13.847,1.376c-3.096-1.978-4.214-7.052-3.096-13.503
			l7.569-44.81c0-0.86-0.258-1.978-0.86-2.494l-32.684-31.565c-4.816-4.472-6.794-9.289-6.45-12.987
			c1.118-3.354,5.677-6.193,12.127-7.052l45.068-6.794c1.118,0,1.978-0.602,2.236-1.376l20.04-40.853
			c2.838-5.935,6.794-9.289,10.407-9.289c3.698,0,7.569,3.355,10.407,9.289l20.298,40.853c0.602,0.602,1.376,1.376,2.236,1.376
			l45.068,6.45c6.45,0.86,11.009,3.354,12.127,7.052c1.29,3.526-0.688,8.257-5.418,12.815L226.585,158.081z"/>
	</g>
</g>
<g>
	<g>
		<path d="M239.748,123.334c-0.262-1.032-1.036-1.548-2.153-1.893l-27.35-3.956c-1.376-0.258-2.838,0.86-3.096,2.236
			s0.86,2.838,2.236,3.097l21.674,3.097l-15.482,15.223c-7.311,7.052-10.751,17.46-9.03,27.609l3.698,21.415l-19.438-10.149
			c-9.03-4.817-20.04-4.817-29.07,0l-19.179,10.149l3.698-21.415c1.72-10.149-1.72-20.556-9.03-27.609L121.4,125.914l21.416-3.097
			c10.149-1.376,18.921-7.913,23.394-17.201l9.547-19.438l9.547,19.438c0.602,1.376,2.236,1.978,3.698,1.376
			c1.376-0.602,1.978-2.236,1.376-3.698l-12.127-24.512c-0.258-0.602-0.86-1.118-1.376-1.376c-0.258-0.258-0.86-0.258-1.118-0.258
			c-0.258,0-0.86,0-1.118,0.258c-0.602,0.258-1.118,0.86-1.376,1.376l-12.127,24.512c-3.698,7.569-10.751,12.987-19.179,14.105
			l-27.35,3.956c-1.118,0.258-1.978,0.86-2.236,1.978c-0.258,0.86,0,1.978,0.86,2.838l19.696,19.179
			c5.935,5.935,8.773,14.363,7.311,22.534l-4.472,27.092c-0.258,1.118,0.258,2.236,1.118,2.838c0.602,0.258,1.118,0.602,1.72,0.602
			c0.258,0,0.86-0.258,1.118,0l24.254-12.987c7.311-3.698,16.599-3.956,23.996,0l24.512,12.643c1.118,0.602,2.236,0.258,3.096-0.258
			c0.86-0.602,1.376-1.72,1.118-2.838l-4.816-27.092c-1.376-8.171,1.376-16.599,7.311-22.534l19.696-19.179
			C239.748,125.571,240.006,124.452,239.748,123.334z"/>
	</g>
</g>
<g>
</g>
<g>
</g>
<g>
</g>
<g>
</g>
<g>
</g>
<g>
</g>
<g>
</g>
<g>
</g>
<g>
</g>
<g>
</g>
<g>
</g>
<g>
</g>
<g>
</g>
<g>
</g>
<g>
</g>
</svg>
