<?xml version="1.0" encoding="iso-8859-1"?>
<!-- Generator: Adobe Illustrator 19.0.0, SVG Export Plug-In . SVG Version: 6.00 Build 0)  -->
<svg version="1.1" id="Layer_1" xmlns="http://www.w3.org/2000/svg" xmlns:xlink="http://www.w3.org/1999/xlink" x="0px" y="0px"
	 viewBox="0 0 352.458 352.458" style="enable-background:new 0 0 352.458 352.458;" xml:space="preserve">
<g>
	<g>
		<path d="M351.167,57.999c-0.86-0.602-1.72-0.86-2.494-0.602L234.025,85.091L121.098,31.336c-0.516-1.204-1.978-1.806-3.269-1.548
			L2.236,57.397C0.86,57.655,0,58.773,0,60.235v231.961c0,0.86,0.602,1.72,1.118,2.236c0.602,0.258,1.118,0.602,1.72,0.602
			c0.258,0,0.602,0,0.86-0.258l113.873-27.178l115.336,54.873c0.258,0.258,0.86,0.258,1.118,0.258s0.602,0,0.602,0l115.594-27.609
			c1.376-0.258,2.236-1.376,2.236-2.838V60.321C352.285,59.375,351.769,58.515,351.167,57.999z M231.101,315.418l-109.659-52.121
			v-32.511c14.363,13.761,33.801,22.276,55.216,22.276c20.986,0,40.165-8.171,54.443-21.502V315.418z M176.659,247.386
			c-21.932,0-41.627-9.547-55.216-24.77c0-1.548-0.946-2.58-2.408-2.752c-10.321-12.729-16.513-28.898-16.513-46.53
			c0-17.718,6.279-33.973,16.599-46.702c1.118-0.344,1.892-1.29,1.978-2.408c13.589-15.395,33.456-25.114,55.56-25.114
			c40.853,0,74.138,33.285,74.138,74.138S217.512,247.386,176.659,247.386z M346.694,289.96l-109.917,26.232v-90.479
			c12.299-14.019,19.696-32.425,19.696-52.464c0-43.95-35.779-79.815-79.814-79.815c-21.588,0-41.197,8.601-55.56,22.534v-46.96
			c0-1.72-1.118-2.838-2.838-2.838s-2.838,1.118-2.838,2.838v53.152c-11.611,13.847-18.577,31.736-18.577,51.174
			c0,19.61,7.139,37.585,18.921,51.432v37.585L5.849,288.583V62.213l109.659-26.146v13.503c0,1.72,1.118,2.838,2.838,2.838
			s2.838-1.376,2.838-2.838V37.615l109.917,52.293v17.46c0,1.72,1.118,2.838,2.838,2.838c1.72,0,2.838-1.376,2.838-2.838V90.165
			l109.918-26.49V289.96z"/>
	</g>
</g>
<g>
	<g>
		<path d="M212.438,164.819h-27.867v-27.35c0-4.472-3.698-8.171-8.429-8.171c-4.816,0-8.429,3.698-8.429,8.171v27.35h-26.748
			c-4.472,0-8.171,3.956-8.171,8.429c0,4.816,3.698,8.429,8.171,8.429h26.748v27.35c0,4.472,3.956,8.171,8.429,8.171
			s8.429-3.698,8.429-8.171v-27.35h27.867c4.472,0,8.171-3.956,8.171-8.429C220.609,168.431,216.91,164.819,212.438,164.819z
			 M212.524,176.086h-30.704c-1.72,0-2.838,1.118-2.838,2.838v30.447c0,1.376-1.376,2.494-2.838,2.494
			c-1.72,0-2.838-1.118-2.838-2.494v-30.189c0-1.72-1.118-2.838-2.838-2.838h-29.587c-1.376,0-2.494-1.376-2.494-2.838
			c0-1.72,1.118-2.838,2.494-2.838l29.587-0.258c1.72,0,2.838-1.118,2.838-2.838v-30.189c0-1.376,1.118-2.494,2.838-2.494
			c1.72,0,2.838,1.118,2.838,2.494v30.189c0,1.72,1.118,2.838,2.838,2.838h30.704c1.376,0.085,2.494,1.462,2.494,2.838
			C215.018,174.969,213.9,176.086,212.524,176.086z"/>
	</g>
</g>
<g>
	<g>
		<path d="M229.64,129.814c-0.86-1.118-2.838-1.118-3.956-0.258c-1.118,0.86-1.118,2.838-0.258,3.956
			c9.03,11.267,14.105,25.372,14.105,39.735c0,34.661-28.21,63.129-63.129,63.129c-34.661,0-63.129-28.21-63.129-63.129
			c0-34.661,28.21-63.129,63.129-63.129c12.385,0,24.254,3.698,34.661,10.407c1.376,0.86,3.096,0.602,3.956-0.86
			c0.86-1.376,0.602-3.097-0.86-3.956c-11.267-7.311-24.254-11.267-37.757-11.267c-37.757,0-68.806,30.704-68.806,68.806
			c-0.001,37.757,30.79,68.806,68.805,68.806c38.015,0,68.806-31.048,68.462-68.806C244.863,157.422,239.53,141.941,229.64,129.814z
			"/>
	</g>
</g>
<g>
</g>
<g>
</g>
<g>
</g>
<g>
</g>
<g>
</g>
<g>
</g>
<g>
</g>
<g>
</g>
<g>
</g>
<g>
</g>
<g>
</g>
<g>
</g>
<g>
</g>
<g>
</g>
<g>
</g>
</svg>
