<?xml version="1.0" encoding="iso-8859-1"?>
<!-- Generator: Adobe Illustrator 19.0.0, SVG Export Plug-In . SVG Version: 6.00 Build 0)  -->
<svg version="1.1" id="Layer_1" xmlns="http://www.w3.org/2000/svg" xmlns:xlink="http://www.w3.org/1999/xlink" x="0px" y="0px"
	 viewBox="0 0 512 512" style="enable-background:new 0 0 512 512;" xml:space="preserve">
<g>
	<g>
		<path d="M458.856,297.404c-3.968-9.566-13.303-15.804-23.654-15.804h-51.2v-256c0-14.14-11.46-25.6-25.6-25.6h-204.8
			c-14.14,0-25.6,11.46-25.6,25.6v256h-51.2c-10.351,0-19.686,6.238-23.654,15.804c-3.959,9.566-1.775,20.574,5.547,27.896
			l179.2,179.2c5.001,5,11.554,7.501,18.108,7.501c6.554,0,13.107-2.5,18.099-7.501l179.2-179.2
			C460.622,317.978,462.815,306.97,458.856,297.404z M256.001,486.4l-179.2-179.2h76.8V25.6h204.8v281.6h76.8L256.001,486.4z"/>
	</g>
</g>
<g>
</g>
<g>
</g>
<g>
</g>
<g>
</g>
<g>
</g>
<g>
</g>
<g>
</g>
<g>
</g>
<g>
</g>
<g>
</g>
<g>
</g>
<g>
</g>
<g>
</g>
<g>
</g>
<g>
</g>
</svg>
