<?xml version="1.0" encoding="iso-8859-1"?>
<!-- Generator: Adobe Illustrator 19.0.0, SVG Export Plug-In . SVG Version: 6.00 Build 0)  -->
<svg version="1.1" id="Layer_1" xmlns="http://www.w3.org/2000/svg" xmlns:xlink="http://www.w3.org/1999/xlink" x="0px" y="0px"
	 viewBox="0 0 512 512" style="enable-background:new 0 0 512 512;" xml:space="preserve">
<g>
	<g>
		<path d="M499.2,51.2H12.8C5.734,51.2,0,56.934,0,64v384c0,7.066,5.734,12.8,12.8,12.8h486.4c7.066,0,12.8-5.734,12.8-12.8V64
			C512,56.934,506.266,51.2,499.2,51.2z M486.4,435.2H25.6V76.8h460.8V435.2z"/>
	</g>
</g>
<g>
	<g>
		<path d="M458.325,107.622c-4.19-5.726-12.211-6.946-17.903-2.748L256,240.128L71.578,104.875
			c-5.726-4.173-13.722-2.978-17.903,2.748c-4.173,5.7-2.953,13.722,2.748,17.903l192,140.8c2.261,1.647,4.915,2.475,7.578,2.475
			s5.316-0.828,7.578-2.475l192-140.8C461.278,121.353,462.507,113.323,458.325,107.622z"/>
	</g>
</g>
<g>
</g>
<g>
</g>
<g>
</g>
<g>
</g>
<g>
</g>
<g>
</g>
<g>
</g>
<g>
</g>
<g>
</g>
<g>
</g>
<g>
</g>
<g>
</g>
<g>
</g>
<g>
</g>
<g>
</g>
</svg>
