<?xml version="1.0" encoding="iso-8859-1"?>
<!-- Generator: Adobe Illustrator 19.0.0, SVG Export Plug-In . SVG Version: 6.00 Build 0)  -->
<svg version="1.1" id="Layer_1" xmlns="http://www.w3.org/2000/svg" xmlns:xlink="http://www.w3.org/1999/xlink" x="0px" y="0px"
	 viewBox="0 0 512 512" style="enable-background:new 0 0 512 512;" xml:space="preserve">
<g>
	<g>
		<path d="M204.8,69.692c-65.98,0-119.467,66.859-119.467,149.333S138.82,368.358,204.8,368.358S324.267,301.5,324.267,219.025
			S270.78,69.692,204.8,69.692z M204.8,342.758c-51.755,0-93.867-55.509-93.867-123.733c0-68.233,42.112-123.733,93.867-123.733
			c51.755,0,93.867,55.509,93.867,123.733S256.555,342.758,204.8,342.758z"/>
	</g>
</g>
<g>
	<g>
		<path d="M331.452,38.4c-22.75,0-43.588,9.472-60.655,25.045c7.313,4.531,14.225,9.813,20.753,15.718
			C303.258,69.743,316.809,64,331.452,64c42.846,0,77.696,46.438,77.696,103.526c0,51.507-28.459,94.003-65.485,101.871
			c-2.33,9.318-5.367,18.236-8.892,26.829c55.475-2.244,99.977-58.812,99.977-128.7C434.748,96.213,388.497,38.4,331.452,38.4z"/>
	</g>
</g>
<g>
	<g>
		<path d="M451.14,291.951c-8.311-3.857-18.21-8.457-29.67-13.901c-6.025,7.066-12.621,13.414-19.695,18.97
			c71.518,34.321,84.625,36.292,84.625,51.277c0,17.212-17.212,17.212-34.432,17.212c-5.129,0-27.23,0-55.953,0
			c12.254,7.424,21.948,15.582,28.638,25.6h27.315c14.848,0,60.032,0,60.032-42.812C512,320.196,492.928,311.347,451.14,291.951z"/>
	</g>
</g>
<g>
	<g>
		<path d="M341.538,366.558c-10.769-5.001-23.851-11.085-39.211-18.424c-6.289,6.912-13.047,13.167-20.267,18.68
			C368.29,408.371,384,410.479,384,428.092C384,448,364.092,448,344.175,448c-19.917,0-258.842,0-278.758,0
			C45.5,448,25.6,448,25.6,428.092c0-17.604,15.71-19.721,101.939-61.269c-7.219-5.513-13.978-11.767-20.267-18.679
			c-15.369,7.339-28.442,13.423-39.211,18.423C19.925,388.898,0,398.148,0,428.092C0,473.6,47.531,473.6,65.425,473.6h278.758
			c17.894,0,65.425,0,65.425-45.508C409.6,398.148,389.675,388.898,341.538,366.558z"/>
	</g>
</g>
<g>
</g>
<g>
</g>
<g>
</g>
<g>
</g>
<g>
</g>
<g>
</g>
<g>
</g>
<g>
</g>
<g>
</g>
<g>
</g>
<g>
</g>
<g>
</g>
<g>
</g>
<g>
</g>
<g>
</g>
</svg>
