<?xml version="1.0" encoding="iso-8859-1"?>
<!-- Generator: Adobe Illustrator 19.0.0, SVG Export Plug-In . SVG Version: 6.00 Build 0)  -->
<svg version="1.1" id="Layer_1" xmlns="http://www.w3.org/2000/svg" xmlns:xlink="http://www.w3.org/1999/xlink" x="0px" y="0px"
	 viewBox="0 0 512 512" style="enable-background:new 0 0 512 512;" xml:space="preserve">
<g>
	<g>
		<path d="M281.114,103.347c-10.163,1.306-20.233,3.354-30.089,6.153c-51.217,14.532-95.565,49.331-122.086,95.462
			c-10.01,17.417-17.442,36.318-21.965,55.902c-2.065,8.917-2.236,11.187-3.627,20.25l-0.043,0.486h25.958
			c7.27-51.371,37.427-97.886,81.067-125.858c21.683-13.892,45.875-22.596,71.27-26.47v-25.958L281.114,103.347z"/>
	</g>
</g>
<g>
	<g>
		<path d="M274.569,52.369C220.425,59.511,169.54,83.55,129.98,121.267C85.478,163.703,57.856,220.484,51.644,281.6h25.83
			C88.132,175.71,175.761,88.218,281.6,77.474V51.652L274.569,52.369z"/>
	</g>
</g>
<g>
	<g>
		<path d="M268.023,1.382c-15.258,1.946-30.353,5.018-45.15,9.216C146.065,32.401,79.539,84.608,39.757,153.788
			C22.17,184.38,9.924,217.967,3.712,252.706c-2.347,13.201-2.406,16-3.712,28.894h25.83
			c7.927-86.707,55.757-165.453,129.101-212.463C194.133,44.006,235.392,30.515,281.6,25.83V0L268.023,1.382z"/>
	</g>
</g>
<g>
	<g>
		<path d="M409.6,0c-38.4,38.4-76.8,102.4-89.6,140.8c38.4,51.2,102.4,76.8,0,179.2s-128,38.502-179.2,0
			C102.4,332.8,38.4,371.302,0,409.6C0,448,51.2,512,128,512c64,0,179.2-25.6,268.8-115.2S512,192,512,128C512,51.2,448,0,409.6,0z
			 M378.701,378.701C307.328,450.065,208.239,486.4,128,486.4c-32-1.28-62.498-14.43-84.292-38.409
			c-6.801-7.501-10.615-17.254-15.932-25.882l-0.503-2.876c31.13-29.551,68.804-49.92,106.692-69.171l2.133-0.819l6.741,5.931
			c1.835,1.673,8.823,8.055,7.979,7.287c3.328,3.029,5.82,5.274,8.32,7.458c54.298,47.531,103.484,43.691,178.961-31.804
			c75.477-75.469,79.3-124.638,31.77-178.961c-2.167-2.475-4.395-4.958-7.398-8.26c0.725,0.802-5.581-6.093-7.219-7.91l-6.033-6.861
			l0.845-2.193c15.77-37.743,40.183-70.042,64.947-102.118l4.198-4.54l2.893,0.503c8.627,5.308,18.381,9.114,25.882,15.932
			c20.83,18.91,28.894,37.598,36.429,64.324c1.818,6.434,1.323,13.312,1.988,19.968C486.4,208.239,450.065,307.328,378.701,378.701z
			"/>
	</g>
</g>
<g>
</g>
<g>
</g>
<g>
</g>
<g>
</g>
<g>
</g>
<g>
</g>
<g>
</g>
<g>
</g>
<g>
</g>
<g>
</g>
<g>
</g>
<g>
</g>
<g>
</g>
<g>
</g>
<g>
</g>
</svg>
