<?xml version="1.0" encoding="iso-8859-1"?>
<!-- Generator: Adobe Illustrator 19.0.0, SVG Export Plug-In . SVG Version: 6.00 Build 0)  -->
<svg version="1.1" id="Layer_1" xmlns="http://www.w3.org/2000/svg" xmlns:xlink="http://www.w3.org/1999/xlink" x="0px" y="0px"
	 viewBox="0 0 511.996 511.996" style="enable-background:new 0 0 511.996 511.996;" xml:space="preserve">
<g>
	<g>
		<path d="M442.486,2.266c-3.422-2.372-7.851-2.927-11.785-1.451l-256,50.372c-4.992,1.877-8.303,6.647-8.303,11.972v356.907
			c-10.718-6.485-23.927-10.47-38.4-10.47c-35.345,0-64,22.921-64,51.2c0,28.279,28.655,51.2,64,51.2s64-22.921,64-51.2V148.835
			l230.4-40.772v260.804c-10.718-6.485-23.927-10.47-38.4-10.47c-35.345,0-64,22.921-64,51.2c0,28.279,28.655,51.2,64,51.2
			c35.345,0,64-22.921,64-51.2V12.788C447.998,8.589,445.933,4.664,442.486,2.266z M127.998,486.396
			c-20.454,0-38.4-11.964-38.4-25.6c0-13.636,17.946-25.6,38.4-25.6s38.4,11.964,38.4,25.6
			C166.398,474.432,148.452,486.396,127.998,486.396z M383.998,435.196c-20.454,0-38.4-11.964-38.4-25.6
			c0-13.636,17.946-25.6,38.4-25.6c20.454,0,38.4,11.964,38.4,25.6C422.398,423.232,404.452,435.196,383.998,435.196z
			 M422.398,80.722l-230.4,40.781V72.035l230.4-40.772V80.722z"/>
	</g>
</g>
<g>
</g>
<g>
</g>
<g>
</g>
<g>
</g>
<g>
</g>
<g>
</g>
<g>
</g>
<g>
</g>
<g>
</g>
<g>
</g>
<g>
</g>
<g>
</g>
<g>
</g>
<g>
</g>
<g>
</g>
</svg>
