<?xml version="1.0" encoding="iso-8859-1"?>
<!-- Generator: Adobe Illustrator 19.0.0, SVG Export Plug-In . SVG Version: 6.00 Build 0)  -->
<svg version="1.1" id="Layer_1" xmlns="http://www.w3.org/2000/svg" xmlns:xlink="http://www.w3.org/1999/xlink" x="0px" y="0px"
	 viewBox="0 0 512 512" style="enable-background:new 0 0 512 512;" xml:space="preserve">
<g>
	<g>
		<path d="M256,0C114.62,0,0,114.62,0,256s114.62,256,256,256s256-114.62,256-256S397.38,0,256,0z M256,486.4
			C128.956,486.4,25.6,383.044,25.6,256S128.956,25.6,256,25.6S486.4,128.956,486.4,256S383.044,486.4,256,486.4z"/>
	</g>
</g>
<g>
	<g>
		<path d="M256,115.2c-76.058,0-137.865,60.348-140.544,135.757l-16.802-16.802c-5.001-5-13.099-5-18.099,0
			c-5.001,5.001-5.001,13.099,0,18.099l38.4,38.4c5.001,5.001,13.099,5.001,18.099,0l38.4-38.4c5.001-5.001,5.001-13.099,0-18.099
			c-2.5-2.509-5.777-3.755-9.054-3.755s-6.554,1.246-9.054,3.746l-15.957,15.957C144.538,189.372,194.5,140.8,256,140.8
			c44.16,0,82.15,25.259,101.47,61.824l19.089-19.089C351.923,142.643,307.226,115.2,256,115.2z"/>
	</g>
</g>
<g>
	<g>
		<path d="M431.454,259.746l-38.4-38.4c-5.001-5.001-13.099-5.001-18.099,0l-38.4,38.4c-5,5.001-5,13.099,0,18.099
			c5.001,5,13.099,5,18.099,0l15.957-15.957C367.462,322.628,317.5,371.2,256,371.2c-44.16,0-82.15-25.259-101.47-61.824
			l-19.089,19.089C160.077,369.357,204.774,396.8,256,396.8c76.058,0,137.865-60.348,140.544-135.757l16.802,16.802
			c2.5,2.509,5.777,3.755,9.054,3.755s6.554-1.246,9.054-3.746C436.446,272.853,436.446,264.747,431.454,259.746z"/>
	</g>
</g>
<g>
</g>
<g>
</g>
<g>
</g>
<g>
</g>
<g>
</g>
<g>
</g>
<g>
</g>
<g>
</g>
<g>
</g>
<g>
</g>
<g>
</g>
<g>
</g>
<g>
</g>
<g>
</g>
<g>
</g>
</svg>
