<?xml version="1.0" encoding="iso-8859-1"?>
<!-- Generator: Adobe Illustrator 19.0.0, SVG Export Plug-In . SVG Version: 6.00 Build 0)  -->
<svg version="1.1" id="Layer_1" xmlns="http://www.w3.org/2000/svg" xmlns:xlink="http://www.w3.org/1999/xlink" x="0px" y="0px"
	 viewBox="0 0 512 512" style="enable-background:new 0 0 512 512;" xml:space="preserve">
<g>
	<g>
		<path d="M256,217.6c-21.205,0-38.4,17.195-38.4,38.4c0,21.205,17.195,38.4,38.4,38.4c21.205,0,38.4-17.195,38.4-38.4
			C294.4,234.795,277.205,217.6,256,217.6z M256,268.8c-7.057,0-12.8-5.743-12.8-12.8s5.743-12.8,12.8-12.8s12.8,5.743,12.8,12.8
			S263.057,268.8,256,268.8z"/>
	</g>
</g>
<g>
	<g>
		<path d="M382.711,129.288l-18.15,18.15c27.81,27.81,45.039,66.21,45.039,108.561c0,42.351-17.229,80.751-45.039,108.561
			l18.15,18.15C415.138,350.285,435.2,305.485,435.2,256S415.138,161.715,382.711,129.288z"/>
	</g>
</g>
<g>
	<g>
		<path d="M147.439,147.439l-18.15-18.15C96.862,161.715,76.8,206.515,76.8,256s20.062,94.285,52.489,126.711l18.15-18.15
			C119.629,336.751,102.4,298.351,102.4,256C102.4,213.649,119.629,175.249,147.439,147.439z"/>
	</g>
</g>
<g>
	<g>
		<path d="M328.405,183.595l-18.125,18.125C324.19,215.629,332.8,234.829,332.8,256s-8.61,40.371-22.519,54.281l18.125,18.125
			C346.94,309.879,358.4,284.279,358.4,256C358.4,227.721,346.94,202.121,328.405,183.595z"/>
	</g>
</g>
<g>
	<g>
		<path d="M201.719,201.719l-18.125-18.125C165.06,202.121,153.6,227.721,153.6,256c0,28.279,11.46,53.879,29.995,72.405
			l18.125-18.125C187.81,296.371,179.2,277.171,179.2,256S187.81,215.629,201.719,201.719z"/>
	</g>
</g>
<g>
	<g>
		<path d="M437.018,74.982l-18.176,18.176C460.561,134.878,486.4,192.478,486.4,256s-25.839,121.122-67.558,162.842l18.176,18.176
			C483.345,390.69,512,326.69,512,256S483.345,121.31,437.018,74.982z"/>
	</g>
</g>
<g>
	<g>
		<path d="M93.158,93.158L74.982,74.982C28.655,121.31,0,185.31,0,256s28.655,134.69,74.982,181.018l18.176-18.176
			C51.439,377.122,25.6,319.522,25.6,256S51.439,134.878,93.158,93.158z"/>
	</g>
</g>
<g>
</g>
<g>
</g>
<g>
</g>
<g>
</g>
<g>
</g>
<g>
</g>
<g>
</g>
<g>
</g>
<g>
</g>
<g>
</g>
<g>
</g>
<g>
</g>
<g>
</g>
<g>
</g>
<g>
</g>
</svg>
